<svg xmlns="http://www.w3.org/2000/svg" width="57.667" height="57.111" viewBox="-28.476 25.977 57.667 57.111"><g fill="#211915"><path d="M20.073 34.959c-5.229-5.227-12.18-8.106-19.572-8.106-7.393 0-14.345 2.879-19.571 8.106-5.228 5.229-8.108 12.18-8.108 19.574 0 7.393 2.88 14.343 8.108 19.572 5.226 5.229 12.178 8.107 19.571 8.107 7.393 0 14.343-2.878 19.572-8.107 5.227-5.229 8.107-12.179 8.107-19.572.001-7.393-2.88-14.345-8.107-19.574zm-1.224 37.923c-4.9 4.9-11.417 7.6-18.348 7.6-6.931 0-13.447-2.699-18.347-7.6-4.902-4.902-7.602-11.417-7.602-18.349 0-6.931 2.699-13.448 7.602-18.349 4.9-4.903 11.417-7.601 18.347-7.601 6.932 0 13.448 2.698 18.348 7.601 4.902 4.901 7.599 11.417 7.599 18.349s-2.697 13.447-7.599 18.349zm0 0"/><path d="M19.32 39.285a.865.865 0 1 0-1.346 1.088 22.533 22.533 0 0 1 5.014 14.16 22.346 22.346 0 0 1-6.584 15.903A22.353 22.353 0 0 1 .501 77.02a22.45 22.45 0 0 1-14.991-5.722.865.865 0 1 0-1.158 1.286A24.192 24.192 0 0 0 .5 78.749c6.468 0 12.552-2.517 17.125-7.09 4.574-4.573 7.092-10.656 7.092-17.126a24.273 24.273 0 0 0-5.397-15.248zm-41.309 15.248c0-12.402 10.089-22.49 22.49-22.49a22.453 22.453 0 0 1 14.991 5.726.863.863 0 0 0 1.221-.068.863.863 0 0 0-.066-1.22A24.172 24.172 0 0 0 .501 30.315c-6.469 0-12.55 2.52-17.125 7.093-4.574 4.575-7.094 10.656-7.094 17.125a24.28 24.28 0 0 0 5.4 15.25.873.873 0 0 0 1.219.126c.37-.3.427-.846.126-1.219a22.526 22.526 0 0 1-5.016-14.157zm0 0"/><path d="M15.926 47.91a.864.864 0 0 0-1.071-1.269l-.066.029a6.44 6.44 0 0 0 .501-1.157.867.867 0 0 0-.287-.941.86.86 0 0 0-.979-.065c-.872.517-1.807.898-2.781 1.134a6.41 6.41 0 0 0-4.287-1.654c-3.511 0-6.367 2.854-6.367 6.363 0 .1.001.2.006.3a14.813 14.813 0 0 1-9.669-5.338.856.856 0 0 0-.737-.318.868.868 0 0 0-.679.427 6.377 6.377 0 0 0-.861 3.202c0 1.074.267 2.112.762 3.028a.868.868 0 0 0-.808.863v.069a6.38 6.38 0 0 0 2.23 4.837.862.862 0 0 0-.259.917 6.356 6.356 0 0 0 3.704 3.971 10.15 10.15 0 0 1-4.575 1.074c-.408 0-.816-.023-1.211-.07a.867.867 0 0 0-.917.567.87.87 0 0 0 .349 1.02 16.455 16.455 0 0 0 8.898 2.609c6.212 0 10.102-2.934 12.271-5.395 2.701-3.062 4.249-7.114 4.249-11.125l-.002-.288a11.92 11.92 0 0 0 2.586-2.79zm-3.973 1.668a.857.857 0 0 0-.355.745c.008.212.015.431.015.666 0 3.591-1.392 7.231-3.817 9.981-1.933 2.194-5.404 4.807-10.972 4.807-1.701 0-3.377-.292-4.962-.856a11.775 11.775 0 0 0 5.208-2.347.866.866 0 0 0-.518-1.546 4.629 4.629 0 0 1-3.733-2.005 6.48 6.48 0 0 0 1.288-.209.865.865 0 0 0-.053-1.682 4.657 4.657 0 0 1-3.538-3.273c.462.121.941.194 1.418.208a.863.863 0 0 0 .51-1.582 4.634 4.634 0 0 1-2.062-3.861c0-.395.051-.785.146-1.162A16.536 16.536 0 0 0 1.555 52.47a.867.867 0 0 0 .886-1.063 4.64 4.64 0 0 1 4.517-5.69c1.276 0 2.51.533 3.384 1.462a.868.868 0 0 0 .796.255c.33-.063.653-.139.971-.232a4.54 4.54 0 0 1-.508.352.87.87 0 0 0-.374 1.021.867.867 0 0 0 .921.579c.142-.016.281-.035.421-.057a9.754 9.754 0 0 1-.616.481zm0 0"/></g></svg>