<svg xmlns="http://www.w3.org/2000/svg" width="210.667" height="256.99" viewBox="0 0 210.667 256.99"><g fill="#4E867B"><path d="M2.981 236.072v-36.454l12.991 24.322 12.991-24.322v36.454h-1.508V205.61l-11.483 21.552L4.491 205.61v30.462h-1.51z"/><path d="M28.962 236.429h-1.508a.354.354 0 0 1-.358-.356v-29.045l-10.813 20.301c-.122.233-.504.233-.627 0l-10.81-20.301v29.045a.356.356 0 0 1-.356.356H2.98a.354.354 0 0 1-.354-.356v-36.454c0-.16.113-.303.269-.342a.352.352 0 0 1 .398.175l12.678 23.736 12.676-23.736a.355.355 0 0 1 .668.167v36.454a.351.351 0 0 1-.353.356zm-1.157-.708h.802v-34.686l-12.324 23.074c-.122.228-.504.228-.627 0L3.335 201.035v34.686h.803v-30.11c0-.162.109-.308.269-.347a.358.358 0 0 1 .396.182l11.168 20.964 11.167-20.964a.359.359 0 0 1 .401-.182.358.358 0 0 1 .265.347v30.11zm20.649-35.747l13.493 35.851-1.413.499-3.672-9.767h-16.82l-3.677 9.767-1.412-.499 13.501-35.851zm-7.857 25.075h15.658l-7.801-20.796-7.857 20.796z"/><path d="M60.534 236.681a.355.355 0 0 1-.333-.23l-3.586-9.537H40.289l-3.592 9.537a.351.351 0 0 1-.45.209l-1.408-.504a.356.356 0 0 1-.206-.186.336.336 0 0 1-.007-.271l13.497-35.851c.1-.277.557-.277.661 0l13.492 35.851a.358.358 0 0 1-.209.457l-1.413.504a.389.389 0 0 1-.12.021zm-25.121-1.072l.745.264 3.554-9.441a.35.35 0 0 1 .331-.226h16.82c.145 0 .277.09.33.226l3.551 9.441.744-.264-13.032-34.636-13.043 34.636zm20.842-10.208H40.597a.375.375 0 0 1-.296-.152.36.36 0 0 1-.035-.327l7.856-20.795a.345.345 0 0 1 .332-.229c.145 0 .278.095.329.229l7.805 20.795a.348.348 0 0 1-.044.327.341.341 0 0 1-.289.152zm-15.147-.706h14.636L48.45 205.26l-7.342 19.435zm26.829 11.377v-36.707l19.485 32.629V200.83h1.51v36.703l-19.485-32.631v31.17h-1.51z"/><path d="M88.932 237.892a.372.372 0 0 1-.307-.174l-18.82-31.527v29.882a.357.357 0 0 1-.358.356h-1.51a.354.354 0 0 1-.352-.356v-36.707c0-.155.102-.296.259-.342a.358.358 0 0 1 .396.159l18.828 31.531V200.83c0-.196.16-.355.354-.355h1.51c.199 0 .357.159.357.355v36.703a.352.352 0 0 1-.264.342.241.241 0 0 1-.093.017zm-19.485-33.344c.123 0 .239.069.306.175l18.826 31.529v-35.071h-.803v30.813c0 .159-.105.3-.258.343a.355.355 0 0 1-.398-.159L68.293 200.65v35.07h.806v-30.818c0-.155.102-.298.251-.337.037-.009.065-.017.097-.017zm47.985 13.904c0 8.91-5.688 17.771-17.067 17.771-1.108 0-3.068-.048-4.38-.151V200.83c1.312-.103 3.271-.206 4.38-.206 11.38 0 17.067 8.861 17.067 17.828zm-1.508 0c0-8.161-5.187-16.313-15.56-16.313-.704 0-2.066.049-2.874.096v32.43c.86.049 2.17.049 2.874.049 10.374-.001 15.56-8.109 15.56-16.262z"/><path d="M100.365 236.58c-1.183 0-3.134-.057-4.403-.151a.36.36 0 0 1-.33-.356V200.83c0-.19.142-.339.33-.355 1.279-.095 3.255-.202 4.403-.202 5.385 0 9.91 1.962 13.073 5.674 2.805 3.289 4.352 7.732 4.352 12.506 0 4.75-1.547 9.175-4.352 12.459-3.172 3.708-7.69 5.668-13.073 5.668zm-4.026-.833c1.247.077 2.956.124 4.025.124 11.484 0 16.716-9.029 16.716-17.419 0-8.416-5.231-17.472-16.716-17.472-1.036 0-2.766.087-4.025.175v34.592zm4.026-.68c-.707 0-2.027 0-2.891-.052a.349.349 0 0 1-.332-.352v-32.43c0-.186.142-.341.332-.354.763-.047 2.14-.1 2.891-.1 4.911 0 9.044 1.808 11.94 5.225 2.561 3.022 3.973 7.087 3.973 11.446 0 4.354-1.412 8.408-3.973 11.419-2.896 3.403-7.021 5.198-11.94 5.198zm-2.516-.74c.826.035 1.9.035 2.516.035 10.447 0 15.207-8.249 15.207-15.91 0-7.688-4.76-15.964-15.207-15.964-.638 0-1.742.041-2.516.085v31.754zm36.052-34.353l13.492 35.851-1.403.499-3.683-9.767h-16.816l-3.675 9.767-1.408-.499 13.493-35.851zm-7.858 25.075h15.662l-7.805-20.796-7.857 20.796z"/><path d="M145.99 236.681a.362.362 0 0 1-.338-.23l-3.586-9.537h-16.329l-3.588 9.537a.354.354 0 0 1-.453.209l-1.41-.504a.354.354 0 0 1-.2-.186.345.345 0 0 1-.013-.271l13.498-35.851c.103-.277.556-.277.662 0l13.494 35.851c.037.09.03.188-.01.271a.367.367 0 0 1-.202.186l-1.411.504a.39.39 0 0 1-.114.021zm-25.121-1.072l.739.264 3.553-9.441a.357.357 0 0 1 .33-.226h16.816c.153 0 .283.09.33.226l3.557 9.441.742-.264-13.035-34.636-13.032 34.636zm20.837-10.208h-15.662a.37.37 0 0 1-.291-.152.376.376 0 0 1-.038-.327l7.856-20.795a.354.354 0 0 1 .33-.229c.146 0 .279.095.332.229l7.804 20.795a.367.367 0 0 1-.039.327.354.354 0 0 1-.292.152zm-15.151-.706h14.641l-7.299-19.436-7.342 19.436zm28.346-23.865v33.734h17.018v1.508h-18.531V200.83h1.513z"/><path d="M171.918 236.429h-18.531a.352.352 0 0 1-.352-.356V200.83c0-.196.156-.355.352-.355h1.514c.194 0 .352.159.352.355v33.377h16.666c.198 0 .358.16.358.357v1.508c0 .199-.16.357-.359.357zm-18.177-.708h17.822v-.802h-16.662a.36.36 0 0 1-.358-.354v-33.384h-.802v34.54zm36.911-35.747l13.491 35.851-1.41.499-3.674-9.767h-16.818l-3.674 9.767-1.412-.499 13.497-35.851zm-7.859 25.075h15.665l-7.807-20.796-7.858 20.796z"/><path d="M202.733 236.681a.359.359 0 0 1-.334-.23l-3.584-9.537h-16.329l-3.588 9.537a.354.354 0 0 1-.452.209l-1.41-.504a.34.34 0 0 1-.202-.186.32.32 0 0 1-.007-.271l13.49-35.851c.105-.277.557-.277.662 0l13.497 35.851a.353.353 0 0 1-.214.457l-1.409.504a.394.394 0 0 1-.12.021zm-20.492-10.475h16.818c.146 0 .279.09.33.226l3.554 9.441.743-.264-13.034-34.636-13.04 34.636.746.264 3.555-9.441a.34.34 0 0 1 .328-.226zm16.217-.805h-15.665a.372.372 0 0 1-.291-.152.35.35 0 0 1-.039-.327l7.854-20.795a.353.353 0 0 1 .335-.229c.147 0 .277.095.327.229l7.805 20.795a.357.357 0 0 1-.036.327.352.352 0 0 1-.29.152zm-15.151-.706h14.635l-7.296-19.436-7.339 19.436z"/></g><path fill="#9E9C9E" d="M32.106 242.642h6.569v1.029h-5.424v4.249h4.43v1.024h-4.43v4.332h5.725v1.03h-6.87v-11.664zm12.339 3.117c2.027 0 2.726 1.577 2.726 1.577h.031s-.031-.282-.031-.632v-4.063h1.127v11.665h-1.096v-.877c0-.37.03-.602.03-.602h-.03s-.68 1.676-2.873 1.676c-2.24 0-3.633-1.79-3.633-4.378 0-2.637 1.56-4.366 3.749-4.366zm.049 7.734c1.398 0 2.708-.995 2.708-3.367 0-1.696-.86-3.353-2.652-3.353-1.481 0-2.691 1.245-2.691 3.353 0 2.057 1.08 3.367 2.635 3.367zm6.488-10.851h1.177v1.411h-1.177v-1.411zm.034 3.316h1.127v8.349h-1.127v-8.349zm9.159.947h-3.803v7.401h-1.127v-7.401H54.2v-.947h1.045v-.296c0-2.754 1.941-3.106 2.889-3.106.318 0 .515.037.515.037v1.012s-.167-.031-.399-.031c-.646 0-1.877.229-1.877 2.089v.296h4.93v8.349h-1.126v-7.403zm-.034-4.263h1.18v1.411h-1.18v-1.411zm7.68 3.117c2.043 0 3.054 1.197 3.054 1.197l-.576.848s-.93-1.014-2.443-1.014c-1.825 0-3.251 1.362-3.251 3.354 0 1.958 1.444 3.35 3.287 3.35 1.693 0 2.671-1.18 2.671-1.18l.512.881s-1.126 1.31-3.252 1.31c-2.47 0-4.378-1.771-4.378-4.36-.003-2.577 1.924-4.386 4.376-4.386zm5.276-3.117h1.179v1.411h-1.179v-1.411zm.035 3.316h1.127v8.349h-1.127v-8.349zm7.647-.199c2.44 0 4.409 1.856 4.409 4.335 0 2.521-1.968 4.41-4.409 4.41-2.44 0-4.414-1.89-4.414-4.41 0-2.479 1.974-4.335 4.414-4.335zm0 7.734c1.789 0 3.253-1.462 3.253-3.399 0-1.891-1.464-3.304-3.253-3.304-1.793 0-3.251 1.413-3.251 3.304-.001 1.937 1.457 3.399 3.251 3.399zm11.316-10.851h3.448c1.193 0 1.724.117 2.191.314 1.092.479 1.759 1.596 1.759 3.002 0 1.58-.897 2.79-2.21 3.155v.031s.117.15.303.467l2.536 4.695H98.81l-2.635-4.91h-2.939v4.91h-1.142v-11.664zm3.912 5.724c1.409 0 2.308-.914 2.308-2.372 0-.964-.384-1.678-1.061-2.037-.353-.187-.766-.286-1.661-.286h-2.356v4.695h2.77zm9.706-2.607c2.308 0 3.48 1.779 3.48 3.853 0 .198-.027.58-.027.58h-6.406c.048 2.14 1.507 3.302 3.235 3.302 1.527 0 2.535-1.011 2.535-1.011l.517.862s-1.213 1.159-3.087 1.159c-2.485 0-4.361-1.79-4.361-4.36 0-2.74 1.857-4.385 4.114-4.385zm2.34 3.506c-.068-1.747-1.131-2.561-2.373-2.561-1.394 0-2.606.881-2.872 2.561h5.245zm3.237 3.217s.925 1.011 2.489 1.011c.894 0 1.671-.45 1.671-1.33 0-1.822-4.494-1.377-4.494-4.098 0-1.492 1.346-2.307 2.855-2.307 1.761 0 2.57.915 2.57.915l-.514.864s-.71-.765-2.089-.765c-.848 0-1.661.365-1.661 1.292 0 1.844 4.495 1.345 4.495 4.098 0 1.365-1.176 2.341-2.854 2.341-2.023 0-3.084-1.206-3.084-1.206l.616-.815zm7.378-9.84h1.178v1.411h-1.178v-1.411zm.038 3.316h1.126v8.349h-1.126v-8.349zm7.046-.199c2.025 0 2.725 1.577 2.725 1.577h.03s-.03-.282-.03-.632v-4.063h1.127v11.665h-1.097v-.877c0-.37.032-.602.032-.602h-.032s-.68 1.676-2.869 1.676c-2.238 0-3.636-1.79-3.636-4.378 0-2.637 1.564-4.366 3.75-4.366zm.051 7.734c1.397 0 2.704-.995 2.704-3.367 0-1.696-.863-3.353-2.653-3.353-1.479 0-2.686 1.245-2.686 3.353 0 2.057 1.077 3.367 2.635 3.367zm10.055-7.734c2.303 0 3.485 1.779 3.485 3.853 0 .198-.034.58-.034.58h-6.406c.051 2.14 1.51 3.302 3.236 3.302 1.524 0 2.542-1.011 2.542-1.011l.516.862s-1.215 1.159-3.09 1.159c-2.489 0-4.366-1.79-4.366-4.36 0-2.74 1.859-4.385 4.117-4.385zm2.343 3.506c-.071-1.747-1.13-2.561-2.377-2.561-1.394 0-2.604.881-2.87 2.561h5.247zm3.297-3.307h1.113v1.245c0 .365-.035.665-.035.665h.035c.295-.763 1.358-2.109 3.333-2.109 2.059 0 2.789 1.177 2.789 3.238v5.31h-1.131v-5.012c0-1.309-.193-2.473-1.807-2.473-1.429 0-2.654.981-3.036 2.355a4.332 4.332 0 0 0-.135 1.134v3.995h-1.127v-8.348zm13.639-.199c2.037 0 3.051 1.197 3.051 1.197l-.584.848s-.926-1.014-2.435-1.014c-1.829 0-3.253 1.362-3.253 3.354 0 1.958 1.443 3.35 3.283 3.35 1.691 0 2.672-1.18 2.672-1.18l.516.881s-1.127 1.31-3.25 1.31c-2.473 0-4.384-1.771-4.384-4.36 0-2.577 1.923-4.386 4.384-4.386zm5.274-3.117h1.178v1.411h-1.178v-1.411zm.035 3.316h1.127v8.349h-1.127v-8.349zm8.277 3.187h.467v-.214c0-1.608-.883-2.157-2.076-2.157-1.378 0-2.359.795-2.359.795l-.525-.864s1.093-.945 2.97-.945c2.003 0 3.116 1.111 3.116 3.205v5.343h-1.078v-.911c0-.416.031-.699.031-.699h-.031s-.699 1.808-2.783 1.808c-1.4 0-2.844-.812-2.844-2.473-.001-2.818 3.671-2.888 5.112-2.888zm-2.094 4.397c1.594 0 2.561-1.66 2.561-3.1v-.367h-.484c-1.311 0-3.933.051-3.933 1.893 0 .779.616 1.574 1.856 1.574zm6.207-10.9h1.125v9.443c0 1.095.502 1.26.933 1.26.149 0 .278-.018.278-.018v1.011s-.197.036-.411.036c-.698 0-1.925-.215-1.925-2.043v-9.689z"/><path fill="#A7CCC5" d="M163.209 138.325l-.119-4.243c.182-.009 19.119-.618 31.183-5.29l1.534 3.967c-12.744 4.933-31.789 5.542-32.598 5.566z" opacity=".5"/><path fill="#A7CCC5" d="M191.27 133.286c-3.821-16.675-16.854-25.658-16.984-25.745l2.375-3.525c.593.401 14.547 9.957 18.754 28.315l-4.145.955z" opacity=".5"/><path fill="#82B8AB" d="M66.989 109.997c-4.16 0-7.847-.585-11.284-1.78-22.478-7.846-27.466-19.318-27.67-19.801l-.285-.691.228-.706c.113-.356 2.815-8.668 8.722-12.916 5.047-3.626 8.924-5.482 11.147-6.375a74.004 74.004 0 0 1-2.806-11.502c-1.077-6.806.49-12.506.561-12.742l.316-1.129 1.141-.295c.18-.046 4.487-1.119 10.976-1.119 6.587 0 12.94 1.082 18.882 3.215 9.954 3.568 21.105 16.381 24.41 23.632 2.609 5.733 4.66 23.607 4.746 24.365l.113.976-.697.696c-.459.46-11.387 11.295-22.335 13.939-6.205 1.502-11.493 2.233-16.165 2.233zM32.136 87.48c1.366 2.348 7.301 10.749 24.915 16.896 6.511 2.264 14.248 2.067 25.145-.573 8.366-2.021 17.205-9.84 19.713-12.191-.677-5.628-2.464-18.124-4.291-22.134-3.346-7.351-13.934-18.577-22.077-21.487-5.5-1.977-11.389-2.979-17.506-2.979-4.03 0-7.161.453-8.776.748-.351 1.839-.864 5.624-.199 9.832 1.098 6.953 3.258 12.588 3.278 12.645l.834 2.144-2.235.565c-.034.012-4.592 1.242-11.857 6.466-3.897 2.799-6.194 8.093-6.944 10.068z"/><path fill="#82B8AB" d="M149.895 143.922c-6.581 0-12.934-1.078-18.881-3.21-9.955-3.567-21.102-16.379-24.404-23.634-2.611-5.733-4.667-23.607-4.749-24.366l-.113-.974.692-.696c.461-.457 11.394-11.29 22.339-13.939 11.731-2.839 20.159-2.992 27.446-.45 22.484 7.845 27.471 19.313 27.673 19.798l.285.692-.226.71c-.113.355-2.816 8.664-8.723 12.912-5.052 3.625-8.931 5.485-11.146 6.376.779 2.354 2.029 6.579 2.807 11.499 1.074 6.808-.495 12.505-.563 12.746l-.318 1.13-1.139.294c-.181.047-4.492 1.112-10.98 1.112zm-43.873-50.67c.682 5.638 2.467 18.126 4.294 22.145 3.344 7.343 13.938 18.567 22.074 21.485 5.499 1.973 11.392 2.973 17.505 2.973 4.032 0 7.167-.451 8.779-.747.348-1.837.863-5.625.198-9.829-1.101-6.984-3.259-12.593-3.28-12.647l-.834-2.146 2.231-.563c.036-.012 4.599-1.237 11.866-6.466 3.891-2.8 6.191-8.092 6.946-10.071-1.369-2.344-7.31-10.751-24.919-16.887-6.514-2.276-14.252-2.072-25.146.562-8.362 2.019-17.205 9.846-19.714 12.191z"/><path fill="#82B8AB" d="M103.274 94.649l-.695-.688c-.463-.465-11.295-11.39-13.943-22.338-2.802-11.579-2.945-20.304-.453-27.446 7.846-22.488 19.318-27.472 19.803-27.675l.689-.283.711.226c.352.112 8.666 2.815 12.912 8.725 3.625 5.045 5.486 8.922 6.376 11.144 2.353-.779 6.58-2.031 11.499-2.806a31.326 31.326 0 0 1 4.893-.376c4.476 0 7.715.899 7.857.936l1.128.321.288 1.14c.146.575 3.5 14.247-2.09 29.855-3.574 9.958-16.385 21.106-23.637 24.408-5.732 2.608-23.604 4.663-24.365 4.753l-.973.104zm5.646-74.05c-2.349 1.369-10.746 7.31-16.893 24.92-2.224 6.37-2.043 14.361.568 25.146 2.023 8.363 9.842 17.202 12.191 19.711 5.633-.676 18.125-2.467 22.139-4.289 7.348-3.346 18.568-13.94 21.489-22.078 4.265-11.9 2.869-22.754 2.226-26.284a30.118 30.118 0 0 0-5.576-.521c-1.457 0-2.891.109-4.256.325-6.977 1.101-12.59 3.255-12.647 3.277l-2.146.835-.563-2.23c-.006-.039-1.238-4.597-6.459-11.868-2.804-3.892-8.097-6.191-10.073-6.944z"/><path fill="#82B8AB" d="M99.256 168.649l-.711-.226c-.352-.113-8.662-2.818-12.906-8.727-3.629-5.046-5.489-8.924-6.382-11.138-2.351.776-6.575 2.027-11.496 2.801a31.38 31.38 0 0 1-4.895.377c-4.477 0-7.718-.896-7.852-.935l-1.133-.319-.29-1.142c-.144-.575-3.497-14.25 2.091-29.854 3.574-9.959 16.387-21.112 23.643-24.413 5.73-2.608 23.603-4.662 24.363-4.747l.972-.111.693.697c.461.453 11.294 11.385 13.944 22.333 2.802 11.578 2.944 20.299.453 27.44-7.847 22.491-19.315 27.479-19.804 27.677l-.69.287zm-17.343-25.417l.565 2.226c.011.04 1.242 4.599 6.463 11.864 2.799 3.896 8.095 6.19 10.072 6.944 2.364-1.379 10.754-7.325 16.891-24.916 2.225-6.376 2.044-14.361-.565-25.151-2.02-8.357-9.844-17.195-12.189-19.713-5.637.683-18.126 2.471-22.14 4.298-7.35 3.342-18.57 13.934-21.491 22.075-4.264 11.899-2.868 22.752-2.228 26.283 1.19.225 3.187.522 5.576.522 1.458 0 2.89-.106 4.26-.328 6.952-1.096 12.587-3.258 12.64-3.276l2.146-.828z"/><path fill="#E5B315" d="M132.431 158.992h-.981c-.652 0-16.035.157-25.655-5.707-10.163-6.207-16.434-12.165-19.723-18.977-10.355-21.443-5.766-33.027-5.562-33.511l.278-.664.665-.327c.25-.133 6.228-3.168 12.505-3.168.969 0 1.91.072 2.795.221 6.131 1 10.192 2.431 12.389 3.367 1.115-2.213 3.219-6.086 6.146-10.112 4.054-5.572 9.19-8.491 9.408-8.615l1.027-.574 1.012.6c.506.304 12.549 7.604 19.633 22.592 4.516 9.567 3.338 26.514.543 33.975-2.209 5.899-13.396 19.763-13.869 20.358l-.611.542zm-48.372-55.901c-.69 2.627-2.429 12.772 5.678 29.563 2.936 6.081 8.713 11.603 18.186 17.381 7.355 4.488 19.128 5.207 22.557 5.32 3.504-4.465 11.073-14.564 12.621-18.692 2.831-7.56 3.274-22.987-.416-30.806-5.401-11.428-14.062-18.116-17.011-20.16-1.548 1.055-4.588 3.37-7.095 6.813-4.138 5.695-6.594 11.208-6.617 11.264l-.932 2.1-1.975-1.179c-.034-.016-4.13-2.371-12.964-3.813a13.289 13.289 0 0 0-2.134-.166c-4.109-.002-8.249 1.637-9.898 2.375z"/><path fill="#E5B315" d="M82.21 103.942l-1.012-.602c-.507-.304-12.553-7.603-19.631-22.592-4.516-9.567-3.34-26.508-.547-33.972 2.208-5.897 13.394-20.206 13.872-20.805l.61-.98h.979c.655 0 16.041.285 25.654 6.152 10.168 6.207 16.434 12.375 19.725 19.193 10.354 21.446 5.769 33.138 5.568 33.625l-.283.717-.664.36c-.254.126-6.227 3.174-12.51 3.174-.967 0-1.906-.064-2.786-.208-6.136-1.006-10.191-2.432-12.396-3.373a73.776 73.776 0 0 1-6.142 10.124c-4.059 5.566-9.194 8.487-9.407 8.611l-1.03.576zm-4.754-74.427c-3.505 4.464-11.074 14.557-12.618 18.69-2.834 7.563-3.279 22.983.409 30.808 5.401 11.43 14.063 18.117 17.013 20.16 1.548-1.057 4.589-3.373 7.093-6.816 4.145-5.694 6.597-11.204 6.622-11.259l.928-2.109 1.979 1.183c.029.016 4.126 2.373 12.963 3.82.662.104 1.383.16 2.127.16 4.134 0 8.26-1.637 9.9-2.373.694-2.629 2.434-12.768-5.674-29.564-2.938-6.077-8.712-11.6-18.184-17.38-7.361-4.494-19.128-5.207-22.558-5.32z"/><path fill="#E5B315" d="M75.191 137.862c-6.417 0-12.726-.927-16.879-2.48-5.902-2.211-20.635-13.397-21.233-13.873l-1.413-.612v-.98c0-.651.711-16.039 6.58-25.648 6.208-10.172 12.591-16.44 19.407-19.732 11.557-5.574 20.379-6.748 25.609-6.748 5.114 0 7.914 1.063 8.206 1.183l.727.287.363.666c.17.324 4.144 8.115 2.973 15.292-1.009 6.136-2.431 10.195-3.365 12.393 2.211 1.113 6.088 3.216 10.117 6.148 5.571 4.055 8.492 9.192 8.611 9.408l.582 1.027-.604 1.014c-.307.506-7.598 12.55-22.591 19.628-4.138 1.953-10.206 3.027-17.09 3.027zm-34.144-18.914c4.461 3.502 14.561 11.071 18.688 12.619 3.671 1.375 9.593 2.226 15.457 2.226 6.292 0 11.747-.94 15.353-2.639 11.386-5.38 18.104-14.059 20.157-17.018-1.05-1.548-3.369-4.583-6.81-7.087-5.718-4.156-11.208-6.602-11.261-6.624l-2.105-.932 1.178-1.976c.021-.031 2.375-4.124 3.818-12.958.776-4.738-1.346-10.107-2.211-12.034-.965-.26-2.949-.665-5.883-.665-4.809 0-12.82 1.101-23.681 6.343-6.079 2.936-11.602 8.715-17.38 18.182-4.494 7.359-5.206 19.13-5.32 22.563z"/><path fill="#E5B315" d="M120.503 117.078c-5.106 0-7.827-1.064-8.121-1.183l-.688-.285-.343-.665c-.166-.326-4.134-8.12-2.96-15.298 1.008-6.133 2.432-10.191 3.37-12.388-2.212-1.116-6.088-3.218-10.115-6.146-5.571-4.056-8.493-9.189-8.614-9.408l-.573-1.03.601-1.008c.305-.51 7.6-12.553 22.594-19.633 4.134-1.953 10.207-3.033 17.093-3.033 6.417 0 12.725.931 16.879 2.488 5.896 2.208 19.337 13.394 19.934 13.867l.108.614v.981c0 .646.587 16.035-5.282 25.652-6.204 10.166-11.942 16.437-18.756 19.725-11.56 5.58-19.893 6.75-25.127 6.75zm-5.879-4.737c.966.258 2.947.667 5.88.667 4.809 0 12.819-1.102 23.685-6.347 6.072-2.934 11.596-8.71 17.379-18.18 4.489-7.358 5.207-19.126 5.32-22.563-4.464-3.501-14.563-11.07-18.689-12.617-3.671-1.374-9.588-2.228-15.452-2.228-6.296 0-11.751.938-15.357 2.641-11.429 5.4-18.116 14.06-20.157 17.013 1.051 1.548 3.367 4.585 6.813 7.092 5.713 4.151 11.204 6.595 11.258 6.62l2.107.934-1.18 1.974c-.021.033-2.371 4.125-3.814 12.959-.781 4.739 1.341 10.109 2.207 12.035z"/><circle fill="#FFF" cx="103.927" cy="91.762" r="4.749"/><path fill="#B15596" d="M34.976 70.662s1.563-1.68 3.573-2.986c2.854-1.869 4.214-2.178 4.214-2.178-.856-2.434-.701-2.069-1.078-3.82-.331-1.524-.331-1.818-.408-4.228 0 0-5.041-.17-8.23.362-1.696.286-4.807 1.3-4.807 1.3s1.724 4.321 2.339 5.608c1.981 4.123 4.397 5.942 4.397 5.942z"/><path fill="#FFF" d="M28.38 58.786l14.525 6.387-.286.649-14.524-6.387z"/><path fill="#B15596" d="M173.778 114.428s-1.563 1.674-3.572 2.988c-2.857 1.862-4.217 2.175-4.217 2.175.856 2.428.7 2.069 1.08 3.819.33 1.519.33 1.819.408 4.228 0 0 5.041.171 8.236-.364 1.691-.279 4.802-1.3 4.802-1.3s-1.722-4.32-2.344-5.606c-1.975-4.125-4.393-5.94-4.393-5.94z"/><path fill="#FFF" d="M180.373 126.301l-14.524-6.388.28-.65 14.53 6.391z"/><path fill="#B15596" d="M125.245 23.479s1.672 1.569 2.986 3.576c1.867 2.858 2.171 4.214 2.171 4.214 2.435-.854 2.071-.698 3.825-1.079 1.523-.331 1.816-.333 4.225-.407 0 0 .168-5.04-.365-8.229-.277-1.696-1.294-4.812-1.294-4.812s-4.319 1.729-5.612 2.346c-4.12 1.981-5.936 4.391-5.936 4.391z"/><path fill="#FFF" d="M136.47 16.608l.654.288-6.402 14.518-.653-.288z"/><path fill="#B15596" d="M82.156 161.606s-1.68-1.563-2.993-3.573c-1.863-2.858-2.171-4.214-2.171-4.214-2.438.853-2.068.696-3.82 1.081-1.524.331-1.823.331-4.229.406 0 0-.169 5.037.363 8.229.283 1.697 1.298 4.806 1.298 4.806s4.324-1.721 5.61-2.34c4.122-1.981 5.942-4.395 5.942-4.395z"/><path fill="#FFF" d="M76.674 153.68l.647.284-6.387 14.53-.646-.284z"/><path fill="#4E867B" d="M61.871 94.021a2.714 2.714 0 1 1-5.431 0 2.712 2.712 0 0 1 2.713-2.719 2.72 2.72 0 0 1 2.718 2.719zm14.247 27.82a2.715 2.715 0 1 1-2.713-2.715 2.71 2.71 0 0 1 2.713 2.715zm33.253 14.248a2.715 2.715 0 1 1-5.431 0 2.716 2.716 0 0 1 5.431 0z"/><path fill="#A7CCC5" d="M135.833 125.235a2.716 2.716 0 0 1-5.431 0 2.719 2.719 0 0 1 2.72-2.719 2.714 2.714 0 0 1 2.711 2.719z" opacity=".5"/><path fill="#4E867B" d="M150.083 87.906a2.716 2.716 0 0 1-2.715 2.717 2.712 2.712 0 0 1-2.714-2.717 2.715 2.715 0 0 1 5.429 0zm-10.856-27.138a2.714 2.714 0 1 1-2.717-2.716 2.717 2.717 0 0 1 2.717 2.716zm-62.432-1.359a2.712 2.712 0 0 1-2.712 2.712 2.717 2.717 0 0 1-2.72-2.712 2.717 2.717 0 0 1 5.432 0zm27.825-12.214a2.713 2.713 0 0 1-2.713 2.712 2.713 2.713 0 1 1 0-5.427 2.714 2.714 0 0 1 2.713 2.715z"/><path fill="#82B8AB" d="M46.214 154.974c-3.277 0-7.334-.141-10.704-.684-4.889-.799-9.949-2.021-10.165-2.072l-1.38-.332-.222-1.402c-.035-.242-.915-5.938-.352-11.57.865-8.678 4.239-17.182 4.376-17.539l3.952 1.576c-.035.081-3.293 8.318-4.103 16.388-.349 3.52-.066 7.146.147 9.081 1.85.42 5.221 1.149 8.432 1.672 6.328 1.03 15.726.488 15.817.485l.25 4.241c-.2.011-2.727.156-6.048.156zm119.524 17.917l-1.414-.102c-.219-.018-5.415-.393-10.313-1.116-6.803-1.012-15.748-4.435-16.125-4.578l1.53-3.971c.088.037 8.883 3.403 15.219 4.342 3.216.479 6.649.805 8.536.97.791-1.781 2.168-5.162 2.896-8.61 1.683-7.934 1.075-16.77 1.07-16.862l4.238-.302c.026.387.662 9.511-1.15 18.044-1.173 5.54-3.741 10.698-3.852 10.917l-.635 1.268zm19.34-74.779l-2.993-3.014c.062-.064 6.326-6.332 10.27-13.414 1.718-3.08 2.9-6.533 3.477-8.393-1.529-1.119-4.332-3.129-7.071-4.883-5.401-3.461-14.237-6.697-14.326-6.731l1.456-3.99c.379.138 9.371 3.431 15.164 7.143 4.168 2.673 8.33 5.805 8.508 5.937l1.134.853-.356 1.375c-.064.235-1.515 5.81-4.268 10.757-4.25 7.621-10.721 14.089-10.995 14.36zM38.113 39.593c-.004-.403-.068-9.983 1.377-16.707 1.04-4.838 2.516-9.839 2.58-10.051l.401-1.358 1.412-.149c.243-.022 5.978-.617 11.569.229 8.63 1.305 16.954 5.104 17.301 5.265l-1.779 3.864c-.08-.04-8.138-3.713-16.158-4.926-3.495-.528-7.136-.429-9.077-.31-.511 1.825-1.413 5.152-2.095 8.331-1.344 6.26-1.284 15.681-1.284 15.776l-4.247.036z"/><circle fill="#82B8AB" cx="25.097" cy="106.215" r="2.716"/><path fill="#B15596" d="M88.838 74.733c-.828.152-1.664.277-2.492.401-.83.118-1.647.28-2.466.422-.409.062-.819.118-1.224.215l-1.209.263c-.405.086-.813.151-1.213.246l-1.184.324c-.396.104-.788.219-1.182.317l-.262.064-.298.099-.594.201-1.189.403c-.405.119-.765.3-1.136.45l-2.284.923c-.383.147-.758.309-1.116.47l-.505.242c-.08.04-.144.082-.192.105.006 0-.055.038-.008.003.025-.021.045-.046.065-.071l.063-.087a.689.689 0 0 0 .088-.165.794.794 0 0 0 .058-.355l-.114-.481 1.093 1.956.538.988c.191.322.327.676.546.979l1.234 1.884c.207.31.407.627.611.951l.295.478.345.453c.452.6.911 1.194 1.352 1.815l.667.919c.212.321.488.58.716.886.485.588.977 1.164 1.453 1.768l.711.898.776.865-.967-.627-.91-.728c-.607-.48-1.188-.989-1.791-1.486-.29-.255-.602-.497-.861-.778l-.812-.836c-.546-.552-1.073-1.132-1.601-1.699l-.403-.427-.36-.462a27.838 27.838 0 0 1-.71-.932l-1.402-1.874c-.247-.304-.424-.659-.633-.99l-.598-1.009-1.176-2.037-.127-.212.007-.269a1.355 1.355 0 0 1 .197-.624l.06-.092.026-.028c.057-.065.116-.121.183-.178.125-.106.155-.119.248-.181.128-.082.242-.15.351-.201.219-.12.424-.208.626-.301.41-.168.808-.325 1.208-.481l2.391-.903c.408-.15.822-.308 1.224-.404l1.215-.326.604-.161.304-.086c.172-.044.228-.044.348-.071.418-.082.849-.142 1.27-.213l1.269-.212c.422-.048.852-.082 1.274-.115l1.271-.095c.421-.036.849-.036 1.276-.04l1.273.007c.424.011.844-.008 1.265.03.842.062 1.679.123 2.518.212zm30.538 35.572c.83-.155 1.664-.278 2.496-.401.831-.118 1.646-.287 2.468-.42.408-.064.816-.121 1.22-.222l1.21-.262c.404-.083.812-.15 1.212-.246l1.182-.318c.397-.106.792-.225 1.186-.316l.26-.064.298-.103.596-.199 1.189-.404c.408-.119.764-.299 1.141-.449l2.28-.923c.38-.155.758-.312 1.116-.47l.507-.244c.075-.041.144-.081.19-.108 0 0 .056-.035.004 0a.322.322 0 0 0-.059.069l-.066.091a.875.875 0 0 0-.148.518l.116.482-1.094-1.958-.535-.987c-.191-.323-.334-.676-.551-.978l-1.232-1.885c-.211-.314-.412-.63-.609-.949l-.298-.48-.341-.451c-.455-.603-.916-1.195-1.359-1.814l-.666-.922c-.205-.319-.484-.582-.716-.884-.483-.588-.977-1.165-1.455-1.774l-.709-.893-.774-.87.967.631.912.731c.605.479 1.189.985 1.788 1.484.289.253.604.492.863.778l.813.836c.545.551 1.07 1.128 1.602 1.697l.396.43.36.462c.245.304.481.613.712.926l1.4 1.88c.252.302.426.657.637.987l.597 1.012 1.179 2.034.123.209-.009.266a1.272 1.272 0 0 1-.197.632l-.061.086-.021.034c-.06.062-.119.117-.184.174-.125.114-.158.121-.242.188a14.72 14.72 0 0 1-.357.203c-.219.114-.423.2-.631.295-.406.168-.805.323-1.209.478l-2.388.91c-.405.148-.823.305-1.224.397l-1.209.33-.604.163-.308.086c-.176.043-.227.047-.348.067-.421.085-.846.141-1.272.217l-1.269.208c-.419.053-.846.086-1.27.119l-1.273.089c-.422.042-.85.042-1.278.046l-1.267-.01c-.425-.007-.847.01-1.266-.033a63.259 63.259 0 0 1-2.521-.208zm2.516-33.051a65.846 65.846 0 0 1-.4-2.499c-.12-.832-.281-1.648-.419-2.464-.064-.411-.121-.817-.221-1.221l-.26-1.215c-.089-.403-.154-.809-.246-1.209l-.322-1.187c-.103-.392-.222-.784-.315-1.186l-.065-.259-.104-.298-.198-.598-.402-1.188c-.125-.409-.301-.76-.448-1.137l-.926-2.285c-.15-.374-.306-.756-.475-1.109l-.239-.507a3.08 3.08 0 0 0-.102-.188s-.04-.061 0-.01a.258.258 0 0 0 .065.062l.086.066a.972.972 0 0 0 .524.148l.478-.118-1.962 1.093-.981.536c-.322.189-.678.329-.979.551l-1.883 1.234c-.313.207-.63.409-.952.604l-.477.302-.449.339c-.604.454-1.201.917-1.818 1.356l-.924.665c-.318.214-.578.491-.881.722-.59.479-1.168.978-1.773 1.451l-.892.709-.869.773.628-.965.729-.911c.484-.604.99-1.19 1.488-1.789.254-.292.494-.601.779-.865l.832-.808c.556-.552 1.131-1.072 1.698-1.605l.432-.398.46-.36c.305-.24.616-.479.926-.709l1.881-1.404c.305-.251.656-.422.99-.633l1.006-.596 2.04-1.181.21-.122.265.009c.137.005.289.036.431.092.07.028.135.067.199.1.064.045.119.09.119.09.061.055.121.116.177.178.106.123.119.16.181.245.084.132.145.249.205.357.114.22.202.424.295.631.173.408.33.809.48 1.203l.907 2.39c.152.411.306.822.401 1.223l.328 1.213.162.607.084.301c.047.175.051.236.068.354.082.421.145.847.215 1.27l.211 1.267c.05.423.082.849.116 1.271l.095 1.275c.033.418.033.847.047 1.273l-.014 1.272c-.006.422.014.847-.033 1.267a63.62 63.62 0 0 1-.209 2.525zm-35.567 30.532c.155.831.279 1.664.4 2.494.119.834.283 1.649.418 2.47.064.408.121.813.217 1.219l.266 1.212c.088.4.15.812.244 1.208l.324 1.188c.102.397.219.786.315 1.183l.066.262.101.296.203.597.398 1.189c.125.407.301.762.45 1.133l.921 2.287c.152.381.31.758.476 1.116l.244.501c.038.085.075.147.103.195 0 0 .035.056 0 .009-.021-.022-.043-.048-.072-.064l-.082-.068a1.276 1.276 0 0 0-.166-.082.808.808 0 0 0-.356-.063l-.479.117 1.955-1.092.988-.538c.323-.191.674-.328.979-.553l1.882-1.229c.313-.21.629-.412.951-.606l.479-.308.446-.334c.604-.454 1.201-.918 1.822-1.354l.923-.67c.318-.211.579-.487.881-.72.59-.482 1.164-.973 1.77-1.453l.896-.71.87-.775-.631.966-.729.913c-.481.606-.989 1.188-1.487 1.79-.251.292-.493.604-.777.862l-.835.813c-.551.549-1.128 1.069-1.697 1.603l-.434.4-.455.358c-.307.242-.621.48-.931.713l-1.876 1.401c-.307.248-.662.425-.988.635l-1.012.596-2.033 1.176-.215.127-.268-.012a1.245 1.245 0 0 1-.627-.195l-.091-.06-.029-.027a1.488 1.488 0 0 1-.177-.178c-.105-.127-.117-.16-.181-.245a4.16 4.16 0 0 1-.202-.356c-.119-.221-.205-.427-.294-.628a26.62 26.62 0 0 1-.481-1.209l-.91-2.388c-.15-.407-.306-.824-.399-1.222l-.329-1.213-.164-.609-.082-.3c-.045-.177-.045-.235-.07-.354-.086-.419-.143-.846-.216-1.269l-.209-1.269c-.052-.419-.081-.846-.121-1.266l-.09-1.275c-.038-.423-.038-.85-.04-1.277l.003-1.271c.013-.427-.004-.847.037-1.269.054-.84.115-1.679.207-2.518z"/><path fill="#4E867B" d="M44.846 105.327a26.229 26.229 0 0 1-.083 1.642c-.034.546-.112 1.089-.144 1.628-.045.535-.122 1.068-.145 1.598l-.13 1.602-.119 1.617-.098 1.581-.124 1.597-.138 1.604-.392-.913a76.58 76.58 0 0 1 2.24 1.881c.369.317.733.64 1.094.968l.521.475.549.481c.367.327.733.651 1.091.986.354.34.722.666 1.073 1.011.693.692 1.393 1.388 2.044 2.151-.917-.406-1.781-.877-2.644-1.35-.431-.235-.854-.492-1.276-.736-.427-.241-.837-.506-1.257-.76l-.619-.393-.625-.436c-.4-.281-.795-.563-1.189-.854a85.434 85.434 0 0 1-2.327-1.774l-.431-.345.041-.569c.082-1.093.197-2.153.344-3.251l.249-1.642c.101-.538.211-1.062.333-1.589l.043-.2c.023-.118.032-.145.049-.221l.097-.383.221-.794c.146-.532.334-1.053.5-1.576.38-1.024.774-2.037 1.252-3.036zm118.155-26.235c.005-.554.043-1.101.081-1.647.035-.547.107-1.087.143-1.628.047-.532.119-1.063.146-1.594l.129-1.6.123-1.62.094-1.582.126-1.597.14-1.601.389.913a85.197 85.197 0 0 1-2.239-1.88c-.368-.317-.729-.649-1.093-.973l-.521-.478-.554-.479c-.364-.326-.731-.65-1.088-.984-.354-.342-.721-.666-1.069-1.012-.702-.695-1.397-1.388-2.048-2.147.914.406 1.776.872 2.645 1.344.434.234.853.49 1.274.737.425.241.84.504 1.257.76l.621.393.625.436c.398.282.799.564 1.188.858a72.258 72.258 0 0 1 2.325 1.77l.434.345-.039.567a59.5 59.5 0 0 1-.349 3.254l-.246 1.637c-.1.536-.215 1.063-.332 1.594l-.044.198c-.025.12-.035.141-.051.22l-.1.382c-.068.247-.137.532-.215.794-.15.533-.331 1.055-.498 1.58-.382 1.027-.776 2.041-1.254 3.04zM91.483 33.808c-.555-.004-1.102-.045-1.646-.082-.545-.036-1.082-.109-1.623-.141-.539-.048-1.07-.117-1.6-.148l-1.601-.128-1.615-.123-1.583-.095-1.599-.121-1.603-.143.912-.395a72.522 72.522 0 0 1-1.877 2.242c-.321.369-.645.732-.97 1.098l-.476.518-.482.551c-.327.363-.645.738-.984 1.087-.337.359-.667.722-1.012 1.076-.692.695-1.387 1.396-2.149 2.047.407-.919.875-1.781 1.346-2.644.237-.436.492-.85.734-1.279.244-.427.505-.838.761-1.255l.395-.62.434-.625c.282-.398.564-.797.856-1.188a81.64 81.64 0 0 1 1.774-2.329l.343-.437.569.045c1.09.082 2.154.201 3.254.344l1.641.25c.534.099 1.06.214 1.587.328l.199.047c.121.024.145.032.22.052l.382.099c.25.067.532.133.794.214.536.155 1.053.337 1.577.504 1.028.379 2.04.774 3.042 1.251zm24.882 117.476c.554.008 1.099.046 1.644.083s1.09.112 1.624.143c.538.047 1.067.119 1.601.148l1.596.128 1.62.12 1.583.1 1.595.117 1.604.142-.915.395a64.833 64.833 0 0 1 1.882-2.236c.319-.373.644-.738.972-1.102l.475-.518.48-.553c.33-.364.648-.731.986-1.086.338-.357.664-.719 1.012-1.074.691-.697 1.387-1.395 2.146-2.044-.403.915-.874 1.782-1.344 2.642-.233.434-.493.854-.735 1.278-.244.428-.504.837-.76 1.253l-.395.626-.437.623c-.28.397-.562.796-.856 1.183a70.256 70.256 0 0 1-1.77 2.329l-.345.436-.571-.044a58.05 58.05 0 0 1-3.252-.341l-1.641-.249a55.411 55.411 0 0 1-1.59-.331l-.196-.046c-.123-.022-.144-.034-.22-.05l-.383-.103-.793-.216c-.535-.149-1.054-.331-1.582-.5-1.026-.382-2.038-.776-3.035-1.253z"/><path fill="#A7CCC5" d="M162.382 146.324s-.126 6.103-.338 9.798c-.254 4.534-1.497 8.097-1.497 8.097s-5.371-.563-7.918-1.272c-3.05-.847-3.885-.876-8.268-2.716m37.552-71.351s3.943-4.656 6.236-7.561c2.815-3.565 4.249-7.061 4.249-7.061s-4.397-3.136-6.772-4.292c-2.848-1.394-3.488-1.919-7.994-3.448M64.858 22.401s-5.899-1.572-9.506-2.403c-4.43-1.018-8.194-.814-8.194-.814s-.953 5.315-.983 7.958c-.037 3.168-.245 3.974.305 8.697m-21.383 79.007c-4.754 0-8.628-3.871-8.628-8.631 0-4.754 3.874-8.626 8.628-8.626 4.757 0 8.628 3.872 8.628 8.626 0 4.76-3.871 8.631-8.628 8.631zm0-14.423a5.8 5.8 0 0 0-5.795 5.792 5.8 5.8 0 0 0 5.795 5.794 5.799 5.799 0 0 0 5.792-5.794 5.799 5.799 0 0 0-5.792-5.792z" opacity=".5"/><circle fill="#82B8AB" cx="117.892" cy="170.345" r="2.714"/><path fill="#A7CCC5" d="M117.893 178.971c-4.758 0-8.627-3.869-8.627-8.626 0-4.758 3.869-8.632 8.627-8.632 4.756 0 8.627 3.874 8.627 8.632 0 4.757-3.871 8.626-8.627 8.626zm0-14.421c-3.191 0-5.794 2.6-5.794 5.795s2.603 5.791 5.794 5.791c3.195 0 5.793-2.596 5.793-5.791s-2.598-5.795-5.793-5.795z" opacity=".5"/><circle fill="#82B8AB" cx="166.411" cy="46.841" r="2.714"/><path fill="#A7CCC5" d="M166.412 55.468c-4.755 0-8.627-3.868-8.627-8.627 0-4.758 3.872-8.625 8.627-8.625 4.758 0 8.628 3.867 8.628 8.625 0 4.759-3.871 8.627-8.628 8.627zm0-14.417a5.798 5.798 0 0 0-5.794 5.79 5.802 5.802 0 0 0 5.794 5.795 5.803 5.803 0 0 0 5.795-5.795 5.797 5.797 0 0 0-5.795-5.79z" opacity=".5"/><path fill="#82B8AB" d="M93.76 15.19a2.714 2.714 0 0 1-2.713 2.711 2.715 2.715 0 1 1 2.713-2.711z"/><path fill="#A7CCC5" d="M91.047 23.813c-4.758 0-8.627-3.867-8.627-8.623 0-4.76 3.869-8.63 8.627-8.63 4.756 0 8.625 3.87 8.625 8.63 0 4.756-3.869 8.623-8.625 8.623zm0-14.419a5.802 5.802 0 0 0-5.793 5.797c0 3.191 2.599 5.793 5.793 5.793s5.793-2.602 5.793-5.793a5.8 5.8 0 0 0-5.793-5.797zM34.896 128.24s-1.698 5.865-2.604 9.452c-1.11 4.407-.991 8.18-.991 8.18s5.293 1.07 7.935 1.152c3.165.101 3.967.326 8.705-.12M13.264 56.536L11.73 52.57c12.748-4.937 31.797-5.546 32.598-5.57l.126 4.245c-.188.01-19.13.616-31.19 5.291z" opacity=".5"/><path fill="#A7CCC5" d="M30.88 81.313c-.594-.397-14.548-9.955-18.758-28.319l4.141-.953c3.829 16.676 16.857 25.656 16.992 25.745l-2.375 3.527zm113.967-47.625c-.009-.188-.613-19.127-5.289-31.187l3.966-1.537c4.936 12.747 5.545 31.796 5.57 32.601l-4.247.123z" opacity=".5"/><path fill="#A7CCC5" d="M118.307 21.127l-3.526-2.374C115.18 18.165 124.735 4.209 143.1 0l.951 4.143c-16.677 3.824-25.652 16.855-25.744 16.984zM64.015 184.364c-4.937-12.75-5.547-31.8-5.572-32.604l4.251-.119c.003.188.612 19.124 5.282 31.185l-3.961 1.538z" opacity=".5"/><path fill="#A7CCC5" d="M64.437 183.968l-.951-4.141c16.743-3.839 25.656-16.854 25.744-16.984l3.527 2.376c-.395.587-9.954 14.54-28.32 18.749z" opacity=".5"/></svg>