<svg xmlns="http://www.w3.org/2000/svg" width="330.679" height="135.377" viewBox="0 0 330.679 135.377"><g opacity=".8" fill="#DFDC39"><path d="M1.502 80.79l48.52 43.515-1.508 1.682-48.52-43.515z"/><path d="M95.843 81.251l1.509 1.681-48.504 43.532-1.51-1.682z"/></g><g opacity=".8" fill="#DFDC39"><path d="M1.502 89.709l48.52 43.515-1.507 1.681L-.005 91.39z"/><path d="M95.85 90.176l1.508 1.682-48.517 43.518-1.509-1.682z"/></g><g opacity=".8" fill="#DFDC39"><path d="M1.509 60.93l48.515 43.517-1.508 1.681L0 62.612z"/><path d="M48.838 106.606l-1.509-1.685 48.522-43.516 1.503 1.686z"/></g><g opacity=".8" fill="#DFDC39"><path d="M1.507 70.211l48.52 43.516-1.509 1.684L-.003 71.895z"/><path d="M95.85 70.677l1.508 1.682-48.517 43.519-1.509-1.683z"/></g><g opacity=".8" fill="#DFDC39"><path d="M1.506 42.27l48.52 43.515-1.508 1.682-48.52-43.515z"/><path d="M95.87 42.762l1.509 1.685-48.556 43.478-1.509-1.685z"/></g><g opacity=".8" fill="#DFDC39"><path d="M1.507 51.188l48.52 43.515-1.51 1.683-48.52-43.515z"/><path d="M48.838 96.854l-1.509-1.679 48.522-43.516 1.503 1.685z"/></g><path fill="#44083F" d="M48.912 9.392l48.523 43.511-1.51 1.684-48.522-43.511z"/><path fill="#44083F" d="M48.614 8.943l1.506 1.682-48.56 43.47-1.506-1.683zm.298-8.469l48.523 43.51-1.51 1.684-48.522-43.51z"/><path fill="#44083F" d="M48.621.03l1.506 1.683L1.553 45.17.047 43.488zm.219 29.217l48.522 43.51-1.508 1.682-48.522-43.51z"/><path fill="#44083F" d="M48.559 28.816l1.504 1.684-48.6 43.425-1.504-1.683z"/><g fill="#44083F"><path d="M48.839 19.973l48.521 43.51-1.51 1.683-48.52-43.51z"/><path d="M1.505 64.697L0 63.012l48.521-43.513 1.507 1.683z"/></g><g fill="#44083F"><path d="M48.843 47.913l48.522 43.51-1.508 1.683-48.523-43.51z"/><path d="M48.549 47.47l1.505 1.682L1.478 92.61l-1.505-1.682z"/></g><g fill="#44083F"><path d="M95.851 84.194L47.329 40.683l1.509-1.687 48.52 43.516z"/><path d="M48.555 38.561l1.505 1.684L1.465 83.677-.04 81.994z"/></g><path d="M140.826 69.911c-1.488 4.116-3.625 4.116-4.334 4.116-1.045 0-1.898-.253-2.621-.777-2.502-1.858-3.783-5.55-3.783-10.962 0-2.726.326-5.153.963-7.177 1.014-3.055 2.719-4.466 5.348-4.466 1.883 0 3.152.838 4.004 2.641l.496 1.043 7.959-2.919-.537-1.234c-2.393-5.473-6.408-8.242-11.922-8.242-4.955 0-8.861 1.889-11.592 5.614-2.652 3.606-3.992 8.564-3.992 14.739 0 5.996 1.406 10.926 4.177 14.656 2.867 3.847 6.701 5.797 11.406 5.797 6.318 0 10.631-3.348 12.811-9.947l.389-1.18-8.354-2.883-.418 1.181zm43.765-27.891c-10.211 0-15.4 6.822-15.4 20.267 0 13.507 5.189 20.368 15.4 20.368 10.16 0 15.311-6.861 15.311-20.368 0-13.445-5.151-20.267-15.311-20.267zm0 32.385c-1.604 0-6.49 0-6.49-12.118 0-12.115 4.887-12.115 6.49-12.115 1.594 0 6.418 0 6.418 12.115 0 12.118-4.824 12.118-6.418 12.118zm44.606-8.885h11.136v-8.055h-11.136v-7.11h15.351v-8.058h-24.152v39.979h25.08v-8.058h-16.279zm62.123-3.715c1.32-2.049 1.953-4.54 1.885-7.374 0-3.632-1.072-6.593-3.209-8.799-2.137-2.203-5.105-3.334-8.818-3.334h-15.494v39.979h8.807V66.553h3.572l5.988 15.724h9.826l-6.473-16.907c1.547-.716 2.853-1.912 3.916-3.565zm-16.83-11.45h6.688c1.508 0 3.045.512 3.045 4.266 0 3.413-1.537 3.873-3.045 3.873h-6.688v-8.139zm40.519-8.058h9.273v40.065h-9.273zm-19.324 62.083a2.776 2.776 0 0 1-.777 1.032 3.559 3.559 0 0 1-1.162.604 4.904 4.904 0 0 1-1.42.196c-.934 0-1.902-.329-2.893-.994l.328-.797c.537.371.98.619 1.359.766a3.23 3.23 0 0 0 1.16.217c.324 0 .658-.047.986-.127.332-.082.631-.214.891-.398.266-.187.479-.441.639-.75.162-.305.238-.688.238-1.157 0-.382-.082-.705-.246-.956a2.318 2.318 0 0 0-.65-.648 4.2 4.2 0 0 0-.916-.44c-.346-.123-.691-.248-1.057-.375a18.183 18.183 0 0 1-1.061-.407 4.053 4.053 0 0 1-.92-.533 2.44 2.44 0 0 1-.648-.797c-.166-.331-.246-.716-.246-1.181 0-.417.08-.812.246-1.173.174-.363.406-.686.695-.952a3.133 3.133 0 0 1 1.025-.631 3.414 3.414 0 0 1 1.273-.233c.863 0 1.732.235 2.604.708l-.346.762a6.785 6.785 0 0 0-1.189-.521c-.318-.094-.656-.139-.994-.139s-.654.048-.938.167a2.233 2.233 0 0 0-.752.453 1.998 1.998 0 0 0-.688 1.525c0 .51.146.9.432 1.188.285.275.639.503 1.059.69.428.185.893.341 1.396.484.5.145.959.33 1.387.553.422.228.773.526 1.057.906.277.374.42.873.42 1.5.001.558-.095 1.056-.292 1.458zm3.898 2.147l-1.129-1.077 1.111-1.157 1.123 1.078-1.105 1.156zm12.723-.128l-1.949-4.232h-5.508l-1.959 4.246-.768-.352 5.207-11.22.432-.216 5.322 11.436-.777.338zm-4.711-10.3l-2.41 5.336h4.838l-2.428-5.336zm8.412 10.428l-1.129-1.077 1.107-1.157 1.125 1.078-1.103 1.156zm9.67-2.147a2.749 2.749 0 0 1-.779 1.032 3.48 3.48 0 0 1-1.154.604 4.985 4.985 0 0 1-1.424.196c-.938 0-1.902-.329-2.889-.994l.326-.797c.531.371.98.619 1.357.766.373.142.762.217 1.156.217.326 0 .654-.047.988-.127.332-.082.629-.214.895-.398.262-.187.475-.441.635-.75.16-.305.24-.688.24-1.157 0-.382-.088-.705-.25-.956a2.337 2.337 0 0 0-.648-.648 4.073 4.073 0 0 0-.924-.44c-.338-.123-.691-.248-1.049-.375a16.669 16.669 0 0 1-1.061-.407 4.217 4.217 0 0 1-.924-.533 2.532 2.532 0 0 1-.648-.797c-.164-.331-.248-.716-.248-1.181 0-.417.084-.812.258-1.173.17-.363.4-.686.691-.952a3.163 3.163 0 0 1 1.027-.631 3.364 3.364 0 0 1 1.262-.233c.873 0 1.742.235 2.611.708l-.348.762c-.471-.25-.867-.424-1.188-.521a3.48 3.48 0 0 0-.994-.139c-.34 0-.652.048-.939.167a2.262 2.262 0 0 0-.754.453 2.09 2.09 0 0 0-.504.675 2.061 2.061 0 0 0-.184.85c0 .51.15.9.438 1.188.283.275.639.503 1.059.69.426.185.889.341 1.393.484.496.145.963.33 1.383.553.426.228.779.526 1.059.906.283.374.43.873.43 1.5 0 .558-.103 1.056-.299 1.458zm3.899 2.147l-1.127-1.077 1.104-1.157 1.127 1.078-1.104 1.156z" fill="#44083F"/></svg>