<svg xmlns="http://www.w3.org/2000/svg" width="68.333" height="114.46" viewBox="0 0 68.333 114.46"><g opacity=".8" fill="#FFF"><path d="M2.25 52.998l31.828 28.55-.99 1.104-31.83-28.549z"/><path d="M64.143 53.312l.99 1.104-31.827 28.56-.99-1.104z"/></g><g opacity=".8" fill="#FFF"><path d="M2.25 58.851l31.828 28.55-.989 1.102-31.828-28.55z"/><path d="M64.142 59.163l.991 1.104-31.828 28.56-.99-1.104z"/></g><g opacity=".8" fill="#FFF"><path d="M2.252 39.975l31.828 28.55-.99 1.103L1.26 41.08z"/><path d="M64.153 40.298l.99 1.105L33.29 69.934l-.99-1.105z"/></g><g opacity=".8" fill="#FFF"><path d="M2.251 46.06l31.83 28.55-.99 1.103-31.83-28.55z"/><path d="M64.145 46.374l.99 1.105L33.296 76.02l-.99-1.104z"/></g><g opacity=".8" fill="#FFF"><path d="M2.252 27.729L34.08 56.278l-.99 1.104-31.83-28.55z"/><path d="M64.154 28.052l.99 1.106-31.852 28.529-.99-1.105z"/></g><g opacity=".8" fill="#FFF"><path d="M2.252 33.58L34.08 62.128l-.99 1.104L1.26 34.684z"/><path d="M64.143 33.89l.99 1.103-31.826 28.56-.99-1.104z"/></g><path fill="#44083F" d="M33.35 6.161L65.186 34.71l-.99 1.104L32.36 7.265z"/><path fill="#44083F" d="M33.146 5.855l.989 1.103L2.297 35.5l-.989-1.103zM33.35.311L65.186 28.86l-.99 1.104L32.36 1.415z"/><path fill="#44083F" d="M33.159.018l.988 1.104L2.283 29.634l-.988-1.104zm.143 19.17l31.835 28.547-.99 1.103-31.834-28.546z"/><path fill="#44083F" d="M33.11 18.895l.988 1.104L2.234 48.51l-.988-1.105z"/><g fill="#44083F"><path d="M33.303 13.104L65.138 41.65l-.99 1.104-31.835-28.546z"/><path d="M33.117 12.817l.988 1.106L2.228 42.422l-.988-1.106z"/></g><g fill="#44083F"><path d="M33.303 31.434L65.138 59.98l-.99 1.104-31.835-28.546z"/><path d="M33.111 31.14l.988 1.104L2.235 60.756l-.988-1.104z"/></g><g fill="#44083F"><path d="M33.304 25.584L65.139 54.13l-.993 1.107L32.312 26.69z"/><path d="M33.11 25.29l.989 1.105L2.235 54.907l-.988-1.105z"/></g><path d="M7.988 103.097c-.461 1.277-1.125 1.277-1.346 1.277-.323 0-.588-.078-.813-.241-.777-.576-1.174-1.723-1.174-3.401 0-.847.102-1.601.299-2.229.315-.947.844-1.386 1.66-1.386.584 0 .979.26 1.242.82l.154.323 2.47-.906-.167-.383c-.742-1.698-1.988-2.558-3.699-2.558-1.539 0-2.75.587-3.598 1.743-.822 1.118-1.24 2.657-1.24 4.574 0 1.859.438 3.39 1.297 4.547.89 1.194 2.08 1.8 3.541 1.8 1.961 0 3.299-1.039 3.975-3.087l.121-.366-2.592-.895-.13.368zm13.582-8.656c-3.167 0-4.778 2.116-4.778 6.29 0 4.19 1.611 6.32 4.778 6.32 3.154 0 4.752-2.13 4.752-6.32 0-4.173-1.598-6.29-4.752-6.29zm0 10.05c-.496 0-2.014 0-2.014-3.76 0-3.761 1.518-3.761 2.014-3.761s1.992 0 1.992 3.761c0 3.76-1.496 3.76-1.992 3.76zm13.845-2.757h3.456v-2.501h-3.456v-2.206h4.763v-2.5h-7.495v12.407h7.783v-2.5h-5.051zm19.28-1.153c.408-.636.604-1.409.583-2.289 0-1.127-.332-2.046-.995-2.73-.662-.684-1.585-1.034-2.737-1.034h-4.807v12.406h2.731v-4.88h1.109l1.857 4.88h3.051l-2.01-5.246c.481-.223.888-.594 1.218-1.107zm-5.225-3.554h2.075c.469 0 .945.159.945 1.324 0 1.059-.477 1.202-.945 1.202H49.47v-2.526zm12.576-2.5h2.878v12.434h-2.878zm-5.998 19.267a.856.856 0 0 1-.242.319 1.061 1.061 0 0 1-.359.188 1.488 1.488 0 0 1-.441.062c-.289 0-.59-.102-.897-.308l.101-.248c.168.115.307.192.422.237a.992.992 0 0 0 .361.067c.102 0 .204-.014.307-.039a.82.82 0 0 0 .277-.124.658.658 0 0 0 .197-.232.765.765 0 0 0 .074-.359.54.54 0 0 0-.076-.297.713.713 0 0 0-.202-.2 1.24 1.24 0 0 0-.286-.137 37.318 37.318 0 0 0-.326-.116 5.528 5.528 0 0 1-.33-.126 1.381 1.381 0 0 1-.286-.166.77.77 0 0 1-.2-.248.805.805 0 0 1-.076-.366.876.876 0 0 1 .291-.659c.092-.084.199-.149.318-.196a1.07 1.07 0 0 1 .395-.072c.27 0 .539.073.809.22l-.105.236a2.325 2.325 0 0 0-.369-.161 1.124 1.124 0 0 0-.309-.043.74.74 0 0 0-.291.052.675.675 0 0 0-.234.141.618.618 0 0 0-.213.474c0 .157.046.279.135.367.087.086.197.157.328.215.132.058.275.106.432.15s.299.103.43.172c.133.071.242.163.329.28s.132.272.132.467a1.09 1.09 0 0 1-.096.45zm1.209.666l-.35-.334.344-.359.35.335-.344.358zm3.95-.039l-.604-1.314h-1.71l-.608 1.318-.238-.108 1.616-3.482.134-.067 1.65 3.55-.24.103zm-1.463-3.197l-.748 1.657H60.5l-.756-1.657zm2.61 3.236l-.349-.334.344-.359.349.335-.344.358zm3.003-.666a.858.858 0 0 1-.243.319 1.047 1.047 0 0 1-.358.188 1.493 1.493 0 0 1-.441.062c-.291 0-.59-.102-.896-.308l.102-.248c.164.115.303.192.421.237a.987.987 0 0 0 .36.067c.102 0 .202-.014.306-.039s.196-.067.278-.124a.679.679 0 0 0 .197-.232.778.778 0 0 0 .072-.359.548.548 0 0 0-.075-.297.713.713 0 0 0-.202-.2 1.21 1.21 0 0 0-.287-.137 22.934 22.934 0 0 0-.326-.116 4.986 4.986 0 0 1-.328-.126 1.39 1.39 0 0 1-.287-.166.76.76 0 0 1-.201-.248.805.805 0 0 1-.076-.366c0-.129.025-.251.079-.364a.97.97 0 0 1 .215-.295 1.045 1.045 0 0 1 .712-.268c.27 0 .539.073.809.22l-.106.236a2.365 2.365 0 0 0-.369-.161 1.091 1.091 0 0 0-.308-.043.753.753 0 0 0-.293.052.68.68 0 0 0-.233.141.669.669 0 0 0-.157.209.65.65 0 0 0-.058.265c0 .157.048.279.137.367.089.086.196.157.328.215.133.058.276.106.433.15.154.044.298.103.43.172a.987.987 0 0 1 .328.28.757.757 0 0 1 .133.467 1.105 1.105 0 0 1-.096.45zm1.21.666l-.351-.334.344-.359.348.335-.341.358z" fill="#44083F"/></svg>