<svg xmlns="http://www.w3.org/2000/svg" width="57.667" height="57.111" viewBox="-28.476 25.977 57.667 57.111"><g fill="#211915"><path d="M20.129 52.54c0 .586-.475 1.058-1.059 1.058a1.052 1.052 0 0 1-1.051-1.058c0-.582.469-1.055 1.051-1.055.584 0 1.059.473 1.059 1.055zm-38.024 0a1.053 1.053 0 1 1-2.108 0 1.053 1.053 0 1 1 2.108 0zm3.174 3.167c0 .584-.477 1.059-1.059 1.059a1.059 1.059 0 1 1 1.059-1.059zm6.337 0a1.058 1.058 0 1 1-1.058-1.056c.583 0 1.058.473 1.058 1.056zm-3.172 3.174a1.056 1.056 0 1 1-2.111-.01 1.056 1.056 0 0 1 2.111.01zm6.338 0c0 .58-.475 1.051-1.058 1.051a1.056 1.056 0 1 1 0-2.11c.583.001 1.058.47 1.058 1.059zm3.167 3.164a1.054 1.054 0 1 1-2.109 0 1.055 1.055 0 1 1 2.109 0zm6.338 0a1.055 1.055 0 1 1-2.11 0 1.054 1.054 0 1 1 2.11 0zm3.171-3.164c0 .58-.474 1.051-1.057 1.051a1.056 1.056 0 1 1 0-2.11c.583.001 1.057.47 1.057 1.059zm-6.337 6.332c0 .582-.476 1.059-1.058 1.059a1.056 1.056 0 1 1 0-2.112c.582.001 1.058.47 1.058 1.053zm9.503-9.506c0 .584-.474 1.059-1.056 1.059a1.06 1.06 0 0 1-1.059-1.059 1.058 1.058 0 0 1 2.115 0zm6.337 0c0 .584-.474 1.059-1.057 1.059a1.058 1.058 0 0 1 0-2.115c.583 0 1.057.473 1.057 1.056zm-3.17 3.174a1.05 1.05 0 0 1-1.053 1.051 1.051 1.051 0 0 1-1.056-1.051c0-.589.469-1.059 1.056-1.059.584.001 1.053.47 1.053 1.059zm0 0"/><path d="M19.638 59.74l9.922-5.667-10.195-5.792 10.195-5.827L.542 25.977l-29.018 16.478 10.2 5.827-10.2 5.792 10.2 5.827-10.2 5.792L.542 82.273l29.023-16.581-10.2-5.792.077-.04a.818.818 0 0 0 .196-.12zM.542 28.406l24.753 14.058-8.065 4.608L.542 56.605l-24.75-14.142L.542 28.406zm-17.267 21.423a1.045 1.045 0 0 0 1.678.299l2.387 1.367a1.052 1.052 0 0 0 .045 2.103c.583 0 1.058-.472 1.058-1.058 0-.182-.057-.342-.139-.496l10.912 6.233c-.125.175-.212.37-.212.604 0 .58.475 1.051 1.059 1.051.582 0 1.058-.471 1.058-1.051 0-.058-.026-.105-.033-.156l10.613-6.065a1.049 1.049 0 0 0 2.09-.12c0-.342-.17-.637-.429-.829l2.328-1.325c.071.013.139.041.216.041.47 0 .851-.309.99-.731l.339-.196 8.061 4.577-2.093 1.201a1.053 1.053 0 0 0-2.015.43c0 .229.087.429.211.601L17.23 58.69l-6.746 3.851c.083-.148.139-.313.139-.495a1.055 1.055 0 0 0-2.11 0c0 .569.45 1.023 1.006 1.046l-2.387 1.365a1.062 1.062 0 0 0-.732-.301 1.06 1.06 0 0 0-1.058 1.058c0 .08.032.158.052.238L.542 68.22l-5.822-3.327a1.052 1.052 0 0 0-.996-.737c-.078 0-.145.032-.216.046l-2.327-1.329c.258-.192.435-.48.435-.827 0-.583-.475-1.057-1.058-1.057-.543 0-.97.412-1.033.938l-10.617-6.063c.004-.051.031-.098.031-.157 0-.583-.474-1.056-1.057-1.056-.251 0-.475.103-.655.245l-1.439-.813 7.487-4.254zM25.295 65.7L.542 79.84l-24.75-14.14 8.062-4.584L.542 70.654l16.692-9.538 8.061 4.584zm0 0"/></g></svg>