<?xml version="1.0" encoding="utf-8"?>
<!-- Generator: Adobe Illustrator 16.0.0, SVG Export Plug-In . SVG Version: 6.00 Build 0)  -->
<!DOCTYPE svg PUBLIC "-//W3C//DTD SVG 1.1//EN" "http://www.w3.org/Graphics/SVG/1.1/DTD/svg11.dtd">
<svg version="1.1" id="Capa_1" xmlns="http://www.w3.org/2000/svg" xmlns:xlink="http://www.w3.org/1999/xlink" x="0px" y="0px"
	 width="57.667px" height="57.111px" viewBox="-28.476 25.977 57.667 57.111" enable-background="new -28.476 25.977 57.667 57.111"
	 xml:space="preserve">
<g>
	<path fill="#211915" d="M25.566,81.793c-0.499,0-0.97-0.299-1.167-0.791l-3.133-7.842c-1.61-3.965-3.46-5.966-6.036-6.438
		l-0.654,3.125l0.906,8.148c0.046,0.425-0.129,0.848-0.462,1.117L13,80.736c-0.225,0.179-0.502,0.279-0.787,0.279h-0.718
		c-0.284,0-0.563-0.101-0.787-0.279l-2.021-1.622c-0.337-0.27-0.51-0.692-0.461-1.117l0.904-8.148l-0.652-3.125
		c-2.577,0.472-4.428,2.473-6.04,6.444l-3.183,7.843c-0.26,0.64-0.992,0.953-1.635,0.69c-0.644-0.261-0.953-0.994-0.692-1.637
		l3.184-7.84c1.379-3.4,3.827-7.894,9.218-8.113c0.045-0.006,0.096-0.007,0.143-0.007h4.759c0.048,0,0.097,0.001,0.145,0.007
		c5.391,0.22,7.839,4.713,9.218,8.113l3.136,7.848c0.258,0.645-0.056,1.375-0.7,1.631C25.877,81.765,25.72,81.793,25.566,81.793
		L25.566,81.793z M10.796,77.588l1.057,0.848l1.057-0.848l-0.729-6.544h-0.654L10.796,77.588z M11.422,68.532h0.862l0.402-1.917
		H11.02L11.422,68.532z M-25.99,81.793c-0.158,0-0.317-0.031-0.472-0.093c-0.644-0.261-0.953-0.994-0.691-1.637l3.133-7.723
		c1.397-3.441,3.9-8.013,9.506-8.013h4.159c3.022,0,5.511,1.343,7.394,3.993c0.032,0.045,0.174,0.239,0.349,0.476
		c0.6,0.816,0.759,1.036,0.811,1.117c0.384,0.576,0.224,1.356-0.354,1.738c-0.576,0.383-1.351,0.225-1.734-0.349
		c-0.068-0.095-0.511-0.697-0.748-1.021c-0.188-0.256-0.342-0.466-0.37-0.507c-0.869-1.223-1.841-2.047-2.971-2.503l-3.441,4.715
		c-0.234,0.322-0.614,0.514-1.012,0.514c-0.403,0-0.779-0.191-1.015-0.514l-3.44-4.715c-1.96,0.796-3.467,2.714-4.805,6.009
		l-3.134,7.729C-25.024,81.498-25.495,81.793-25.99,81.793L-25.99,81.793z M-14.095,66.839l1.663,2.277l1.66-2.277H-14.095z
		 M-7.368,81.793h-13.355c-0.694,0-1.256-0.562-1.256-1.254c0-0.695,0.562-1.259,1.256-1.259h13.355
		c0.692,0,1.257,0.563,1.257,1.259C-6.111,81.232-6.676,81.793-7.368,81.793L-7.368,81.793z M17.563,72.654
		c-0.692,0-1.254-0.563-1.254-1.256V71.24c0-0.692,0.562-1.256,1.254-1.256c0.693,0,1.257,0.563,1.257,1.256v0.158
		C18.82,72.09,18.256,72.654,17.563,72.654L17.563,72.654z M-12.432,62.486c-3.514,0-6.373-2.859-6.373-6.371
		c0-2.896,1.94-5.345,4.585-6.119c0.014-0.004,0.027-0.008,0.041-0.012c0.418-0.12,0.85-0.194,1.287-0.225c0,0,0.003,0,0.007,0
		c0.003,0,0.004,0,0.006,0c0.002-0.003,0.006-0.003,0.008-0.003s0.003,0,0.006,0s0.005,0,0.009,0c0.001,0,0.003,0,0.005,0
		c0.006,0,0.009-0.002,0.014-0.002c0.021,0,0.042-0.002,0.063-0.002h0l0.021-0.002c0.002,0,0.009,0,0.014,0c0,0,0.003,0,0.007,0
		c0.003,0,0.006,0,0.007,0c0.003,0,0.003,0,0.007-0.001c0.001,0,0.003,0,0.005,0c0.001,0,0.006,0,0.008,0
		c0,0,0.003-0.002,0.006-0.002c0.002,0,0.003,0,0.005,0c0.006,0,0.011,0.002,0.016,0c0.078-0.004,0.156-0.004,0.234-0.004
		c0.003,0,0.005,0,0.005,0h0.025c0.003,0,0.007,0,0.01,0c0.003,0,0.008,0,0.011,0s0.008,0,0.011,0h0.005
		c3.123,0.025,5.726,2.272,6.23,5.313c0.057,0.345,0.086,0.696,0.086,1.061C-6.06,59.626-8.919,62.486-12.432,62.486L-12.432,62.486
		z M-14.692,52.984c-0.969,0.703-1.601,1.844-1.601,3.131c0,2.128,1.731,3.859,3.861,3.859c1.802,0,3.322-1.245,3.743-2.92
		C-11.417,57.071-13.762,55.409-14.692,52.984L-14.692,52.984z M-12.275,52.257c0.581,1.312,1.865,2.222,3.367,2.282
		C-9.492,53.239-10.775,52.319-12.275,52.257L-12.275,52.257z M11.853,62.195c-3.556,0-6.448-2.892-6.448-6.449
		c0-3.556,2.892-6.447,6.448-6.447c0.425,0,0.84,0.041,1.246,0.119c0.026,0.004,0.051,0.01,0.079,0.018
		c2.922,0.611,5.125,3.209,5.125,6.311C18.302,59.303,15.41,62.195,11.853,62.195L11.853,62.195z M9.624,52.504
		c-1.029,0.709-1.708,1.898-1.708,3.242c0,2.172,1.767,3.937,3.937,3.937c2.172,0,3.938-1.765,3.938-3.937
		c0-1.616-0.979-3.005-2.374-3.611c-0.525,0.677-1.186,1.245-1.939,1.67c-0.606,0.341-1.372,0.125-1.711-0.48
		C9.621,53.065,9.577,52.775,9.624,52.504L9.624,52.504z M-17.893,49.065c-0.218,0-0.437-0.058-0.634-0.173
		c-0.385-0.223-0.622-0.637-0.622-1.081V36.496c0-2.199,1.791-3.989,3.989-3.989h4.455c0.692,0,1.256,0.564,1.256,1.257
		s-0.563,1.254-1.256,1.254h-4.455c-0.815,0-1.478,0.662-1.478,1.478v9.172l1.729-0.97c0.187-0.106,0.398-0.16,0.614-0.16h10.897
		c0.693,0,1.255,0.562,1.255,1.257c0,0.69-0.562,1.254-1.255,1.254h-10.57l-3.312,1.856C-17.47,49.012-17.682,49.065-17.893,49.065
		L-17.893,49.065z M11.86,46.464c-0.347,0-0.687-0.143-0.929-0.41l-3.865-4.238H-3.087c-2.2,0-3.988-1.79-3.988-3.988v-6.565
		c0-2.199,1.788-3.988,3.988-3.988H9.128c2.198,0,3.987,1.789,3.987,3.988v13.947c0,0.518-0.319,0.983-0.803,1.17
		C12.167,46.437,12.013,46.464,11.86,46.464L11.86,46.464z M-3.087,29.787c-0.813,0-1.475,0.662-1.475,1.476v6.565
		c0,0.815,0.662,1.478,1.475,1.478H7.623c0.352,0,0.689,0.149,0.926,0.409l2.055,2.255V31.262c0-0.814-0.662-1.476-1.476-1.476
		H-3.087z M-10.956,39.765h-2.278c-0.693,0-1.255-0.562-1.255-1.254c0-0.695,0.562-1.257,1.255-1.257h2.278
		c0.694,0,1.256,0.562,1.256,1.257C-9.7,39.203-10.262,39.765-10.956,39.765L-10.956,39.765z M6.936,34.606H1.751
		c-0.694,0-1.256-0.562-1.256-1.254c0-0.695,0.562-1.256,1.256-1.256h5.184c0.693,0,1.256,0.562,1.256,1.256
		C8.192,34.044,7.628,34.606,6.936,34.606L6.936,34.606z M6.936,34.606"/>
</g>
</svg>
