<?xml version="1.0" encoding="utf-8"?>
<!-- Generator: Adobe Illustrator 16.0.0, SVG Export Plug-In . SVG Version: 6.00 Build 0)  -->
<!DOCTYPE svg PUBLIC "-//W3C//DTD SVG 1.1//EN" "http://www.w3.org/Graphics/SVG/1.1/DTD/svg11.dtd">
<svg version="1.1" id="Capa_1" xmlns="http://www.w3.org/2000/svg" xmlns:xlink="http://www.w3.org/1999/xlink" x="0px" y="0px"
	 width="57.667px" height="57.111px" viewBox="-28.476 25.977 57.667 57.111" enable-background="new -28.476 25.977 57.667 57.111"
	 xml:space="preserve">
<path fill="#211915" d="M23.611,54.588c-0.771,0-1.396,0.624-1.396,1.399v24.885H7.225V65.25c0-0.771-0.625-1.397-1.396-1.397
	H-5.114c-0.77,0-1.397,0.626-1.397,1.397v12.389c0,0.771,0.628,1.398,1.397,1.398c0.771,0,1.397-0.627,1.397-1.398V66.647h8.148
	v14.226H-21.5V46.683L0.357,29.166L22.738,47.1c0.602,0.481,1.482,0.387,1.965-0.214c0.482-0.604,0.385-1.484-0.219-1.963
	L1.23,26.287c-0.51-0.412-1.237-0.412-1.747,0L-23.77,44.923c-0.331,0.261-0.524,0.661-0.524,1.09v36.256
	c0,0.771,0.626,1.396,1.397,1.396h46.508c0.771,0,1.398-0.625,1.398-1.396V55.988C25.01,55.212,24.383,54.588,23.611,54.588
	L23.611,54.588z"/>
</svg>
