<?xml version="1.0" encoding="utf-8"?>
<!-- Generator: Adobe Illustrator 16.0.0, SVG Export Plug-In . SVG Version: 6.00 Build 0)  -->
<!DOCTYPE svg PUBLIC "-//W3C//DTD SVG 1.1//EN" "http://www.w3.org/Graphics/SVG/1.1/DTD/svg11.dtd">
<svg version="1.1" id="Capa_1" xmlns="http://www.w3.org/2000/svg" xmlns:xlink="http://www.w3.org/1999/xlink" x="0px" y="0px"
	 width="57.667px" height="57.111px" viewBox="-28.476 25.977 57.667 57.111" enable-background="new -28.476 25.977 57.667 57.111"
	 xml:space="preserve">
<g>
	<path fill="#211915" d="M20.073,34.959c-5.229-5.227-12.18-8.106-19.572-8.106c-7.393,0-14.345,2.879-19.571,8.106
		c-5.228,5.229-8.108,12.18-8.108,19.574c0,7.393,2.88,14.343,8.108,19.572c5.226,5.229,12.178,8.107,19.571,8.107
		c7.393,0,14.343-2.878,19.572-8.107c5.227-5.229,8.107-12.179,8.107-19.572C28.181,47.14,25.3,40.188,20.073,34.959L20.073,34.959z
		 M18.849,72.882c-4.9,4.9-11.417,7.6-18.348,7.6c-6.931,0-13.447-2.699-18.347-7.6c-4.902-4.902-7.602-11.417-7.602-18.349
		c0-6.931,2.699-13.448,7.602-18.349c4.9-4.903,11.417-7.601,18.347-7.601c6.932,0,13.448,2.698,18.348,7.601
		c4.902,4.901,7.599,11.417,7.599,18.349C26.448,61.465,23.751,67.98,18.849,72.882L18.849,72.882z M18.849,72.882"/>
	<path fill="#211915" d="M19.32,39.285c-0.303-0.373-0.849-0.427-1.219-0.128c-0.371,0.301-0.427,0.846-0.127,1.216
		c3.235,3.985,5.014,9.016,5.014,14.16c0,6.006-2.337,11.655-6.584,15.903C12.156,74.68,6.51,77.02,0.501,77.02
		c-5.541,0-10.866-2.031-14.991-5.722c-0.357-0.32-0.903-0.291-1.223,0.066c-0.319,0.354-0.289,0.901,0.065,1.22
		c4.446,3.976,10.181,6.165,16.148,6.165c6.468,0,12.552-2.517,17.125-7.09c4.574-4.573,7.092-10.656,7.092-17.126
		C24.718,48.993,22.801,43.578,19.32,39.285L19.32,39.285z M19.32,39.285"/>
	<path fill="#211915" d="M-21.989,54.533c0-12.402,10.089-22.49,22.49-22.49c5.542,0,10.866,2.035,14.991,5.726
		c0.357,0.32,0.903,0.288,1.221-0.068c0.32-0.354,0.289-0.903-0.066-1.22c-4.442-3.977-10.177-6.166-16.146-6.166
		c-6.469,0-12.55,2.52-17.125,7.093c-4.574,4.575-7.094,10.656-7.094,17.125c0,5.539,1.917,10.956,5.4,15.25
		c0.171,0.21,0.42,0.318,0.673,0.318c0.191,0,0.385-0.063,0.546-0.192c0.37-0.3,0.427-0.846,0.126-1.219
		C-20.208,64.705-21.989,59.677-21.989,54.533L-21.989,54.533z M-21.989,54.533"/>
	<path fill="#211915" d="M15.926,47.91c0.213-0.319,0.187-0.74-0.061-1.036c-0.248-0.294-0.657-0.389-1.01-0.233
		c-0.022,0.009-0.044,0.02-0.066,0.029c0.202-0.366,0.372-0.752,0.501-1.157c0.111-0.341-0.007-0.717-0.287-0.941
		c-0.278-0.223-0.669-0.25-0.979-0.065c-0.872,0.517-1.807,0.898-2.781,1.134c-1.168-1.057-2.704-1.654-4.287-1.654
		c-3.511,0-6.367,2.854-6.367,6.363c0,0.1,0.001,0.2,0.006,0.3c-3.769-0.461-7.249-2.369-9.669-5.338
		c-0.177-0.222-0.453-0.34-0.737-0.318c-0.282,0.024-0.539,0.183-0.679,0.427c-0.563,0.968-0.861,2.076-0.861,3.202
		c0,1.074,0.267,2.112,0.762,3.028c-0.132,0.008-0.263,0.048-0.381,0.117c-0.264,0.158-0.427,0.438-0.427,0.746v0.069
		c0,1.909,0.855,3.655,2.23,4.837c-0.032,0.024-0.06,0.052-0.085,0.082c-0.201,0.229-0.268,0.546-0.174,0.835
		c0.59,1.849,1.975,3.282,3.704,3.971c-1.405,0.705-2.956,1.074-4.575,1.074c-0.408,0-0.816-0.023-1.211-0.07
		c-0.4-0.048-0.78,0.188-0.917,0.567c-0.133,0.379,0.01,0.803,0.349,1.02c2.66,1.706,5.738,2.609,8.898,2.609
		c6.212,0,10.102-2.934,12.271-5.395c2.701-3.062,4.249-7.114,4.249-11.125c0-0.099-0.002-0.196-0.002-0.288
		C14.346,49.914,15.213,48.979,15.926,47.91L15.926,47.91z M11.953,49.578c-0.236,0.17-0.372,0.45-0.355,0.745
		c0.008,0.212,0.015,0.431,0.015,0.666c0,3.591-1.392,7.231-3.817,9.981c-1.933,2.194-5.404,4.807-10.972,4.807
		c-1.701,0-3.377-0.292-4.962-0.856c1.895-0.341,3.667-1.137,5.208-2.347c0.286-0.226,0.404-0.608,0.286-0.954
		c-0.116-0.35-0.437-0.582-0.804-0.592c-1.523-0.028-2.902-0.795-3.733-2.005c0.434-0.026,0.866-0.096,1.288-0.209
		c0.388-0.104,0.651-0.462,0.639-0.863c-0.011-0.401-0.299-0.741-0.692-0.819c-1.723-0.35-3.07-1.643-3.538-3.273
		c0.462,0.121,0.941,0.194,1.418,0.208c0.386,0.015,0.733-0.23,0.853-0.599c0.118-0.369-0.022-0.771-0.343-0.983
		c-1.292-0.864-2.062-2.306-2.062-3.861c0-0.395,0.051-0.785,0.146-1.162c2.898,2.991,6.845,4.798,11.027,5.008
		c0.275,0.012,0.534-0.103,0.708-0.312c0.174-0.208,0.24-0.486,0.178-0.751c-0.079-0.34-0.119-0.695-0.119-1.055
		c0-2.556,2.08-4.635,4.636-4.635c1.276,0,2.51,0.533,3.384,1.462c0.206,0.216,0.505,0.312,0.796,0.255
		c0.33-0.063,0.653-0.139,0.971-0.232c-0.16,0.128-0.329,0.245-0.508,0.352c-0.347,0.209-0.504,0.634-0.374,1.021
		c0.133,0.385,0.514,0.626,0.921,0.579c0.142-0.016,0.281-0.035,0.421-0.057C12.372,49.264,12.166,49.425,11.953,49.578
		L11.953,49.578z M11.953,49.578"/>
</g>
</svg>
