<?xml version="1.0" encoding="utf-8"?>
<!-- Generator: Adobe Illustrator 16.0.0, SVG Export Plug-In . SVG Version: 6.00 Build 0)  -->
<!DOCTYPE svg PUBLIC "-//W3C//DTD SVG 1.1//EN" "http://www.w3.org/Graphics/SVG/1.1/DTD/svg11.dtd">
<svg version="1.1" id="Capa_1" xmlns="http://www.w3.org/2000/svg" xmlns:xlink="http://www.w3.org/1999/xlink" x="0px" y="0px"
	 width="57.667px" height="57.111px" viewBox="-28.476 25.977 57.667 57.111" enable-background="new -28.476 25.977 57.667 57.111"
	 xml:space="preserve">
<g>
	<path fill="#211915" d="M-3.247,68.907h5.605c0.483,0,0.874-0.389,0.874-0.873v-12.62h2.912c0.447,0,0.821-0.339,0.865-0.782
		l0.492-4.767c0.026-0.245-0.055-0.488-0.222-0.673c-0.163-0.182-0.397-0.286-0.645-0.286H3.232v-1.931
		c0-0.399,0.123-0.429,0.318-0.429h3.015c0.479,0,0.87-0.39,0.87-0.873v-4.626c0-0.478-0.387-0.869-0.866-0.871l-4.16-0.017
		c-2.91,0-4.466,1.283-5.256,2.356c-1.106,1.503-1.271,3.262-1.271,4.175v2.216h-1.796c-0.482,0-0.871,0.388-0.871,0.871v4.767
		c0,0.481,0.388,0.871,0.871,0.871h1.796v12.62C-4.119,68.518-3.729,68.907-3.247,68.907L-3.247,68.907z M-5.042,53.671v-3.024
		h1.794c0.48,0,0.869-0.391,0.869-0.871v-3.084c0-0.564,0.093-2.003,0.935-3.143c0.802-1.095,2.098-1.647,3.851-1.647l3.284,0.013
		v2.89H3.55c-1.026,0-2.061,0.671-2.061,2.171v2.802c0,0.48,0.389,0.871,0.869,0.871H5.67l-0.313,3.025H2.358
		c-0.48,0-0.869,0.387-0.869,0.87v12.622h-3.868V54.542c0-0.483-0.389-0.871-0.869-0.871H-5.042z M-5.042,53.671"/>
	<path fill="#211915" d="M20.069,34.819c-5.263-5.265-12.265-8.164-19.71-8.164c-7.448,0-14.449,2.899-19.712,8.164
		c-5.266,5.266-8.166,12.268-8.166,19.714c0,7.446,2.9,14.445,8.166,19.711c5.264,5.267,12.265,8.166,19.712,8.166
		c7.446,0,14.448-2.899,19.71-8.166c5.266-5.267,8.166-12.266,8.166-19.711C28.235,47.086,25.335,40.085,20.069,34.819
		L20.069,34.819z M18.838,73.014c-4.937,4.934-11.5,7.652-18.479,7.652c-6.981,0-13.547-2.719-18.479-7.652
		c-4.938-4.938-7.656-11.5-7.656-18.481c0-6.982,2.718-13.544,7.656-18.48c4.937-4.938,11.499-7.656,18.479-7.656
		c6.98,0,13.542,2.717,18.479,7.656c4.937,4.936,7.654,11.498,7.654,18.48C26.493,61.514,23.775,68.076,18.838,73.014L18.838,73.014
		z M18.838,73.014"/>
	<path fill="#211915" d="M19.309,39.175c-0.302-0.375-0.851-0.43-1.226-0.128c-0.374,0.303-0.43,0.852-0.126,1.225
		c3.257,4.014,5.051,9.081,5.051,14.261c0,6.048-2.356,11.738-6.634,16.015c-4.277,4.275-9.965,6.632-16.015,6.632
		c-5.583,0-10.945-2.047-15.101-5.763c-0.36-0.322-0.909-0.293-1.23,0.066c-0.32,0.357-0.292,0.909,0.068,1.231
		c4.475,4.002,10.25,6.209,16.262,6.209c6.515,0,12.639-2.537,17.247-7.143c4.609-4.606,7.145-10.733,7.145-17.249
		C24.75,48.953,22.819,43.499,19.309,39.175L19.309,39.175z M19.309,39.175"/>
	<path fill="#211915" d="M-22.292,54.533c0-12.491,10.161-22.652,22.651-22.652c5.581,0,10.943,2.049,15.1,5.767
		c0.358,0.322,0.907,0.29,1.227-0.069c0.325-0.357,0.293-0.91-0.065-1.229c-4.477-4.006-10.25-6.21-16.261-6.21
		c-6.515,0-12.641,2.538-17.248,7.145c-4.609,4.608-7.146,10.732-7.146,17.249c0,5.579,1.933,11.035,5.442,15.359
		c0.173,0.21,0.423,0.321,0.676,0.321c0.193,0,0.388-0.064,0.549-0.196c0.372-0.302,0.431-0.852,0.127-1.227
		C-20.499,64.777-22.292,59.713-22.292,54.533L-22.292,54.533z M-22.292,54.533"/>
</g>
</svg>
