<?xml version="1.0" encoding="utf-8"?>
<!-- Generator: Adobe Illustrator 16.0.0, SVG Export Plug-In . SVG Version: 6.00 Build 0)  -->
<!DOCTYPE svg PUBLIC "-//W3C//DTD SVG 1.1//EN" "http://www.w3.org/Graphics/SVG/1.1/DTD/svg11.dtd">
<svg version="1.1" id="Capa_1" xmlns="http://www.w3.org/2000/svg" xmlns:xlink="http://www.w3.org/1999/xlink" x="0px" y="0px"
	 width="57.667px" height="57.111px" viewBox="-28.476 25.977 57.667 57.111" enable-background="new -28.476 25.977 57.667 57.111"
	 xml:space="preserve">
<g>
	<rect x="-4.037" y="32.703" fill="#211915" width="2.393" height="3.92"/>
	<rect x="0.667" y="32.703" fill="#211915" width="2.394" height="3.92"/>
	<rect x="5.372" y="32.703" fill="#211915" width="2.394" height="3.92"/>
	<rect x="-4.037" y="39.131" fill="#211915" width="2.393" height="3.92"/>
	<rect x="0.667" y="39.131" fill="#211915" width="2.394" height="3.92"/>
	<rect x="5.372" y="39.131" fill="#211915" width="2.394" height="3.92"/>
	<rect x="-23.411" y="61.795" fill="#211915" width="2.393" height="3.92"/>
	<rect x="-18.706" y="61.795" fill="#211915" width="2.392" height="3.92"/>
	<rect x="-14.003" y="61.795" fill="#211915" width="2.394" height="3.92"/>
	<rect x="-23.411" y="68.225" fill="#211915" width="2.393" height="3.919"/>
	<rect x="-18.706" y="68.225" fill="#211915" width="2.392" height="3.919"/>
	<rect x="-14.003" y="68.225" fill="#211915" width="2.394" height="3.919"/>
	<path fill="#211915" d="M28.37,57.169h-3.137c0.015-0.361,0.024-0.721,0.024-1.08c0-9.079-4.945-17.442-12.907-21.825
		c-0.111-0.063-0.227-0.124-0.342-0.185v-6.004H-8.28v4.656c-4.706,1.74-8.736,4.827-11.66,8.932
		c-3.011,4.229-4.603,9.218-4.603,14.426c0,0.358,0.01,0.718,0.026,1.079h-3.138v21.246h16.981
		c3.445,1.707,7.156,2.574,11.032,2.574c3.854,0,7.548-0.857,10.983-2.548l-0.014-0.026H28.37V57.169z M-5.887,30.469H9.615v16.46
		H-5.887V30.469z M-25.261,59.562h15.502v16.461h-15.502V59.562z M-7.365,77.237V57.169h-14.758
		c-0.017-0.361-0.026-0.721-0.026-1.08c0-9.089,5.534-17.318,13.867-20.787v14.02h20.29V36.832
		c6.719,4.072,10.855,11.365,10.855,19.258c0,0.359-0.008,0.719-0.024,1.08H8.082v20.066c-2.462,0.901-5.049,1.36-7.724,1.36
		C-2.317,78.596-4.906,78.138-7.365,77.237L-7.365,77.237z M25.978,76.023H10.475V59.562h15.503V76.023z M25.978,76.023"/>
	<rect x="12.324" y="61.795" fill="#211915" width="2.394" height="3.92"/>
	<rect x="17.029" y="61.795" fill="#211915" width="2.393" height="3.92"/>
	<rect x="21.733" y="61.795" fill="#211915" width="2.394" height="3.92"/>
	<rect x="12.324" y="68.225" fill="#211915" width="2.394" height="3.919"/>
	<rect x="17.029" y="68.225" fill="#211915" width="2.393" height="3.919"/>
	<rect x="21.733" y="68.225" fill="#211915" width="2.394" height="3.919"/>
</g>
</svg>
