<?xml version="1.0" encoding="utf-8"?>
<!-- Generator: Adobe Illustrator 16.0.0, SVG Export Plug-In . SVG Version: 6.00 Build 0)  -->
<!DOCTYPE svg PUBLIC "-//W3C//DTD SVG 1.1//EN" "http://www.w3.org/Graphics/SVG/1.1/DTD/svg11.dtd">
<svg version="1.1" id="Capa_1" xmlns="http://www.w3.org/2000/svg" xmlns:xlink="http://www.w3.org/1999/xlink" x="0px" y="0px"
	 width="330.679px" height="135.377px" viewBox="0 0 330.679 135.377" enable-background="new 0 0 330.679 135.377"
	 xml:space="preserve">
<g>
	<g>
		<g opacity="0.8">
			<g>
				
					<rect x="-7.575" y="102.255" transform="matrix(0.7445 0.6677 -0.6677 0.7445 75.4172 9.719)" fill="#DFDC39" width="65.172" height="2.259"/>
			</g>
			<g>
				
					<rect x="71.215" y="71.274" transform="matrix(0.6679 0.7442 -0.7442 0.6679 101.3204 -19.3508)" fill="#DFDC39" width="2.259" height="65.176"/>
			</g>
		</g>
		<g opacity="0.8">
			<g>
				
					<rect x="-7.574" y="111.173" transform="matrix(0.7445 0.6677 -0.6677 0.7445 81.3708 11.9975)" fill="#DFDC39" width="65.172" height="2.258"/>
			</g>
			<g>
				
					<rect x="71.214" y="80.191" transform="matrix(0.6677 0.7444 -0.7444 0.6677 107.994 -16.3794)" fill="#DFDC39" width="2.26" height="65.176"/>
			</g>
		</g>
		<g opacity="0.8">
			<g>
				<g>
					
						<rect x="-7.573" y="82.403" transform="matrix(0.7444 0.6677 -0.6677 0.7444 62.1665 4.6459)" fill="#DFDC39" width="65.174" height="2.259"/>
				</g>
			</g>
			<g>
				<g>
					<polygon fill="#DFDC39" points="48.838,106.606 47.329,104.921 95.851,61.405 97.354,63.091 					"/>
				</g>
			</g>
		</g>
		<g opacity="0.8">
			<g>
				<g>
					
						<rect x="-7.573" y="91.676" transform="matrix(0.7445 0.6677 -0.6677 0.7445 68.3568 7.0151)" fill="#DFDC39" width="65.173" height="2.261"/>
				</g>
			</g>
			<g>
				<g>
					
						<rect x="71.214" y="60.692" transform="matrix(0.6677 0.7444 -0.7444 0.6677 93.4789 -22.8586)" fill="#DFDC39" width="2.26" height="65.176"/>
				</g>
			</g>
		</g>
		<g opacity="0.8">
			<g>
				<g>
					
						<rect x="-7.572" y="63.736" transform="matrix(0.7445 0.6677 -0.6677 0.7445 49.7001 -0.1256)" fill="#DFDC39" width="65.172" height="2.259"/>
				</g>
			</g>
			<g>
				<g>
					
						<rect x="71.213" y="32.754" transform="matrix(0.6671 0.745 -0.745 0.6671 72.7654 -32.1419)" fill="#DFDC39" width="2.262" height="65.175"/>
				</g>
			</g>
		</g>
		<g opacity="0.8">
			<g>
				<g>
					
						<rect x="-7.572" y="72.653" transform="matrix(0.7445 0.6677 -0.6677 0.7445 55.6543 2.1532)" fill="#DFDC39" width="65.172" height="2.261"/>
				</g>
			</g>
			<g>
				<g>
					<polygon fill="#DFDC39" points="48.838,96.854 47.329,95.175 95.851,51.659 97.354,53.344 					"/>
				</g>
			</g>
		</g>
		<g>
			<g>
				<g>
					
						<rect x="39.829" y="30.861" transform="matrix(0.7445 0.6676 -0.6676 0.7445 39.8625 -40.1734)" fill="#44083F" width="65.175" height="2.261"/>
				</g>
			</g>
			<g>
				<g>
					
						<rect x="23.959" y="-1.069" transform="matrix(0.667 0.7451 -0.7451 0.667 31.8366 -8.1963)" fill="#44083F" width="2.258" height="65.172"/>
				</g>
			</g>
		</g>
		<g>
			<g>
				<g>
					
						<rect x="39.829" y="21.943" transform="matrix(0.7445 0.6676 -0.6676 0.7445 33.9087 -42.4523)" fill="#44083F" width="65.175" height="2.261"/>
				</g>
			</g>
			<g>
				<g>
					
						<rect x="23.958" y="-9.988" transform="matrix(0.6668 0.7453 -0.7453 0.6668 25.2021 -11.1659)" fill="#44083F" width="2.258" height="65.174"/>
				</g>
			</g>
		</g>
		<g>
			<g>
				<g>
					
						<rect x="39.757" y="50.716" transform="matrix(0.7445 0.6676 -0.6676 0.7445 53.0987 -35.0525)" fill="#44083F" width="65.174" height="2.259"/>
				</g>
			</g>
			<g>
				<g>
					
						<rect x="23.884" y="18.784" transform="matrix(0.6663 0.7457 -0.7457 0.6663 46.6522 -1.5099)" fill="#44083F" width="2.258" height="65.174"/>
				</g>
			</g>
		</g>
		<g>
			<g>
				<g>
					
						<rect x="39.758" y="41.44" transform="matrix(0.7445 0.6676 -0.6676 0.7445 46.9045 -37.4215)" fill="#44083F" width="65.173" height="2.261"/>
				</g>
			</g>
			<g>
				<g>
					<polygon fill="#44083F" points="1.505,64.697 0,63.012 48.521,19.499 50.028,21.182 					"/>
				</g>
			</g>
		</g>
		<g>
			<g>
				<g>
					
						<rect x="39.757" y="69.381" transform="matrix(0.7445 0.6676 -0.6676 0.7445 65.5623 -30.2832)" fill="#44083F" width="65.175" height="2.26"/>
				</g>
			</g>
			<g>
				<g>
					
						<rect x="23.885" y="37.448" transform="matrix(0.6668 0.7453 -0.7453 0.6668 60.5324 4.6977)" fill="#44083F" width="2.257" height="65.176"/>
				</g>
			</g>
		</g>
		<g>
			<g>
				<g>
					<polygon fill="#44083F" points="95.851,84.194 47.329,40.683 48.838,38.996 97.358,82.512 					"/>
				</g>
			</g>
			<g>
				<g>
					
						<rect x="23.884" y="28.533" transform="matrix(0.6664 0.7456 -0.7456 0.6664 53.9128 1.7388)" fill="#44083F" width="2.258" height="65.175"/>
				</g>
			</g>
		</g>
	</g>
	<g>
		<path fill="#44083F" d="M140.826,69.911c-1.488,4.116-3.625,4.116-4.334,4.116c-1.045,0-1.898-0.253-2.621-0.777
			c-2.502-1.858-3.783-5.55-3.783-10.962c0-2.726,0.326-5.153,0.963-7.177c1.014-3.055,2.719-4.466,5.348-4.466
			c1.883,0,3.152,0.838,4.004,2.641l0.496,1.043l7.959-2.919l-0.537-1.234c-2.393-5.473-6.408-8.242-11.922-8.242
			c-4.955,0-8.861,1.889-11.592,5.614c-2.652,3.606-3.992,8.564-3.992,14.739c0,5.996,1.406,10.926,4.177,14.656
			c2.867,3.847,6.701,5.797,11.406,5.797c6.318,0,10.631-3.348,12.811-9.947l0.389-1.18l-8.354-2.883L140.826,69.911z"/>
		<path fill="#44083F" d="M184.591,42.02c-10.211,0-15.4,6.822-15.4,20.267c0,13.507,5.189,20.368,15.4,20.368
			c10.16,0,15.311-6.861,15.311-20.368C199.902,48.842,194.751,42.02,184.591,42.02z M184.591,74.405c-1.604,0-6.49,0-6.49-12.118
			c0-12.115,4.887-12.115,6.49-12.115c1.594,0,6.418,0,6.418,12.115C191.009,74.405,186.185,74.405,184.591,74.405z"/>
		<polygon fill="#44083F" points="229.197,65.52 240.333,65.52 240.333,57.465 229.197,57.465 229.197,50.355 244.548,50.355 
			244.548,42.297 220.396,42.297 220.396,82.276 245.476,82.276 245.476,74.218 229.197,74.218 		"/>
		<path fill="#44083F" d="M291.32,61.805c1.32-2.049,1.953-4.54,1.885-7.374c0-3.632-1.072-6.593-3.209-8.799
			c-2.137-2.203-5.105-3.334-8.818-3.334h-15.494v39.979h8.807V66.553h3.572l5.988,15.724h9.826l-6.473-16.907
			C288.951,64.654,290.257,63.458,291.32,61.805z M274.49,50.355h6.688c1.508,0,3.045,0.512,3.045,4.266
			c0,3.413-1.537,3.873-3.045,3.873h-6.688V50.355z"/>
		<rect x="315.009" y="42.297" fill="#44083F" width="9.273" height="40.065"/>
	</g>
	<g>
		<path fill="#44083F" d="M295.685,104.38c-0.189,0.419-0.449,0.766-0.777,1.032c-0.338,0.262-0.721,0.471-1.162,0.604
			c-0.438,0.132-0.912,0.196-1.42,0.196c-0.934,0-1.902-0.329-2.893-0.994l0.328-0.797c0.537,0.371,0.98,0.619,1.359,0.766
			c0.373,0.142,0.758,0.217,1.16,0.217c0.324,0,0.658-0.047,0.986-0.127c0.332-0.082,0.631-0.214,0.891-0.398
			c0.266-0.187,0.479-0.441,0.639-0.75c0.162-0.305,0.238-0.688,0.238-1.157c0-0.382-0.082-0.705-0.246-0.956
			c-0.162-0.252-0.383-0.464-0.65-0.648c-0.271-0.174-0.58-0.326-0.916-0.44c-0.346-0.123-0.691-0.248-1.057-0.375
			c-0.371-0.131-0.717-0.261-1.061-0.407c-0.344-0.147-0.65-0.321-0.92-0.533c-0.271-0.217-0.486-0.483-0.648-0.797
			c-0.166-0.331-0.246-0.716-0.246-1.181c0-0.417,0.08-0.812,0.246-1.173c0.174-0.363,0.406-0.686,0.695-0.952
			c0.291-0.271,0.637-0.483,1.025-0.631c0.393-0.156,0.816-0.233,1.273-0.233c0.863,0,1.732,0.235,2.604,0.708l-0.346,0.762
			c-0.465-0.25-0.869-0.424-1.189-0.521c-0.318-0.094-0.656-0.139-0.994-0.139s-0.654,0.048-0.938,0.167
			c-0.289,0.106-0.537,0.256-0.752,0.453c-0.217,0.19-0.383,0.417-0.506,0.675c-0.121,0.261-0.182,0.545-0.182,0.85
			c0,0.51,0.146,0.9,0.432,1.188c0.285,0.275,0.639,0.503,1.059,0.69c0.428,0.185,0.893,0.341,1.396,0.484
			c0.5,0.145,0.959,0.33,1.387,0.553c0.422,0.228,0.773,0.526,1.057,0.906c0.277,0.374,0.42,0.873,0.42,1.5
			C295.978,103.48,295.882,103.978,295.685,104.38z"/>
		<path fill="#44083F" d="M299.583,106.527l-1.129-1.077l1.111-1.157l1.123,1.078L299.583,106.527z"/>
		<path fill="#44083F" d="M312.306,106.399l-1.949-4.232h-5.508l-1.959,4.246l-0.768-0.352l5.207-11.22l0.432-0.216l5.322,11.436
			L312.306,106.399z M307.595,96.099l-2.41,5.336h4.838L307.595,96.099z"/>
		<path fill="#44083F" d="M316.007,106.527l-1.129-1.077l1.107-1.157l1.125,1.078L316.007,106.527z"/>
		<path fill="#44083F" d="M325.677,104.38c-0.186,0.419-0.451,0.766-0.779,1.032c-0.33,0.262-0.717,0.471-1.154,0.604
			c-0.447,0.132-0.918,0.196-1.424,0.196c-0.938,0-1.902-0.329-2.889-0.994l0.326-0.797c0.531,0.371,0.98,0.619,1.357,0.766
			c0.373,0.142,0.762,0.217,1.156,0.217c0.326,0,0.654-0.047,0.988-0.127c0.332-0.082,0.629-0.214,0.895-0.398
			c0.262-0.187,0.475-0.441,0.635-0.75c0.16-0.305,0.24-0.688,0.24-1.157c0-0.382-0.088-0.705-0.25-0.956
			c-0.162-0.252-0.383-0.464-0.648-0.648c-0.27-0.174-0.58-0.326-0.924-0.44c-0.338-0.123-0.691-0.248-1.049-0.375
			c-0.369-0.131-0.725-0.261-1.061-0.407c-0.344-0.147-0.648-0.321-0.924-0.533c-0.266-0.217-0.484-0.483-0.648-0.797
			c-0.164-0.331-0.248-0.716-0.248-1.181c0-0.417,0.084-0.812,0.258-1.173c0.17-0.363,0.4-0.686,0.691-0.952
			c0.295-0.271,0.637-0.483,1.027-0.631c0.389-0.156,0.811-0.233,1.262-0.233c0.873,0,1.742,0.235,2.611,0.708l-0.348,0.762
			c-0.471-0.25-0.867-0.424-1.188-0.521c-0.318-0.094-0.648-0.139-0.994-0.139c-0.34,0-0.652,0.048-0.939,0.167
			c-0.289,0.106-0.537,0.256-0.754,0.453c-0.213,0.19-0.383,0.417-0.504,0.675c-0.117,0.261-0.184,0.545-0.184,0.85
			c0,0.51,0.15,0.9,0.438,1.188c0.283,0.275,0.639,0.503,1.059,0.69c0.426,0.185,0.889,0.341,1.393,0.484
			c0.496,0.145,0.963,0.33,1.383,0.553c0.426,0.228,0.779,0.526,1.059,0.906c0.283,0.374,0.43,0.873,0.43,1.5
			C325.976,103.48,325.873,103.978,325.677,104.38z"/>
		<path fill="#44083F" d="M329.576,106.527l-1.127-1.077l1.104-1.157l1.127,1.078L329.576,106.527z"/>
	</g>
</g>
</svg>
