<?xml version="1.0" encoding="utf-8"?>
<!-- Generator: Adobe Illustrator 16.0.0, SVG Export Plug-In . SVG Version: 6.00 Build 0)  -->
<!DOCTYPE svg PUBLIC "-//W3C//DTD SVG 1.1//EN" "http://www.w3.org/Graphics/SVG/1.1/DTD/svg11.dtd">
<svg version="1.1" id="Capa_1" xmlns="http://www.w3.org/2000/svg" xmlns:xlink="http://www.w3.org/1999/xlink" x="0px" y="0px"
	 width="210.667px" height="256.99px" viewBox="0 0 210.667 256.99" enable-background="new 0 0 210.667 256.99"
	 xml:space="preserve">
<g>
	<g>
		<g>
			<path fill="#4E867B" d="M2.981,236.072v-36.454l12.991,24.322l12.991-24.322v36.454h-1.508V205.61l-11.483,21.552L4.491,205.61
				v30.462H2.981z"/>
			<path fill="#4E867B" d="M28.962,236.429h-1.508c-0.2,0-0.358-0.157-0.358-0.356v-29.045l-10.813,20.301
				c-0.122,0.233-0.504,0.233-0.627,0l-10.81-20.301v29.045c0,0.199-0.162,0.356-0.356,0.356h-1.51
				c-0.195,0-0.354-0.157-0.354-0.356v-36.454c0-0.16,0.113-0.303,0.269-0.342c0.158-0.041,0.319,0.032,0.398,0.175l12.678,23.736
				l12.676-23.736c0.08-0.143,0.242-0.216,0.4-0.175c0.159,0.039,0.268,0.182,0.268,0.342v36.454
				C29.315,236.271,29.161,236.429,28.962,236.429z M27.805,235.721h0.802v-34.686l-12.324,23.074c-0.122,0.228-0.504,0.228-0.627,0
				L3.335,201.035v34.686h0.803v-30.11c0-0.162,0.109-0.308,0.269-0.347c0.152-0.036,0.321,0.036,0.396,0.182l11.168,20.964
				l11.167-20.964c0.074-0.146,0.241-0.218,0.401-0.182c0.155,0.039,0.265,0.185,0.265,0.347V235.721z"/>
		</g>
		<g>
			<path fill="#4E867B" d="M48.454,199.974l13.493,35.851l-1.413,0.499l-3.672-9.767h-16.82l-3.677,9.767l-1.412-0.499
				L48.454,199.974z M40.597,225.049h15.658l-7.801-20.796L40.597,225.049z"/>
			<path fill="#4E867B" d="M60.534,236.681c-0.146,0-0.279-0.088-0.333-0.23l-3.586-9.537H40.289l-3.592,9.537
				c-0.067,0.183-0.269,0.275-0.45,0.209l-1.408-0.504c-0.092-0.03-0.163-0.099-0.206-0.186c-0.039-0.083-0.044-0.182-0.007-0.271
				l13.497-35.851c0.1-0.277,0.557-0.277,0.661,0l13.492,35.851c0.034,0.09,0.026,0.188-0.011,0.271
				c-0.042,0.087-0.111,0.155-0.198,0.186l-1.413,0.504C60.613,236.673,60.575,236.681,60.534,236.681z M35.413,235.609l0.745,0.264
				l3.554-9.441c0.049-0.136,0.183-0.226,0.331-0.226h16.82c0.145,0,0.277,0.09,0.33,0.226l3.551,9.441l0.744-0.264l-13.032-34.636
				L35.413,235.609z M56.255,225.401H40.597c-0.116,0-0.228-0.06-0.296-0.152c-0.064-0.096-0.076-0.216-0.035-0.327l7.856-20.795
				c0.046-0.138,0.18-0.229,0.332-0.229l0,0c0.145,0,0.278,0.095,0.329,0.229l7.805,20.795c0.041,0.111,0.025,0.231-0.044,0.327
				C56.479,225.347,56.372,225.401,56.255,225.401z M41.108,224.695h14.636L48.45,205.26L41.108,224.695z"/>
		</g>
		<g>
			<path fill="#4E867B" d="M67.937,236.072v-36.707l19.485,32.629V200.83h1.51v36.703l-19.485-32.631v31.17H67.937z"/>
			<path fill="#4E867B" d="M88.932,237.892c-0.121,0-0.24-0.068-0.307-0.174l-18.82-31.527v29.882c0,0.199-0.162,0.356-0.358,0.356
				h-1.51c-0.192,0-0.352-0.157-0.352-0.356v-36.707c0-0.155,0.102-0.296,0.259-0.342c0.151-0.04,0.317,0.025,0.396,0.159
				l18.828,31.531V200.83c0-0.196,0.16-0.355,0.354-0.355h1.51c0.199,0,0.357,0.159,0.357,0.355v36.703
				c0,0.161-0.107,0.301-0.264,0.342C88.997,237.886,88.969,237.892,88.932,237.892z M69.447,204.548
				c0.123,0,0.239,0.069,0.306,0.175l18.826,31.529v-35.071h-0.803v30.813c0,0.159-0.105,0.3-0.258,0.343
				c-0.152,0.045-0.318-0.026-0.398-0.159L68.293,200.65v35.07h0.806v-30.818c0-0.155,0.102-0.298,0.251-0.337
				C69.387,204.556,69.415,204.548,69.447,204.548z"/>
		</g>
		<g>
			<path fill="#4E867B" d="M117.432,218.452c0,8.91-5.688,17.771-17.067,17.771c-1.108,0-3.068-0.048-4.38-0.151V200.83
				c1.312-0.103,3.271-0.206,4.38-0.206C111.745,200.624,117.432,209.485,117.432,218.452z M115.924,218.452
				c0-8.161-5.187-16.313-15.56-16.313c-0.704,0-2.066,0.049-2.874,0.096v32.43c0.86,0.049,2.17,0.049,2.874,0.049
				C110.738,234.713,115.924,226.605,115.924,218.452z"/>
			<path fill="#4E867B" d="M100.365,236.58c-1.183,0-3.134-0.057-4.403-0.151c-0.188-0.018-0.33-0.171-0.33-0.356V200.83
				c0-0.19,0.142-0.339,0.33-0.355c1.279-0.095,3.255-0.202,4.403-0.202c5.385,0,9.91,1.962,13.073,5.674
				c2.805,3.289,4.352,7.732,4.352,12.506c0,4.75-1.547,9.175-4.352,12.459C110.266,234.62,105.748,236.58,100.365,236.58z
				 M96.339,235.747c1.247,0.077,2.956,0.124,4.025,0.124c11.484,0,16.716-9.029,16.716-17.419c0-8.416-5.231-17.472-16.716-17.472
				c-1.036,0-2.766,0.087-4.025,0.175V235.747z M100.365,235.067c-0.707,0-2.027,0-2.891-0.052c-0.19-0.011-0.332-0.163-0.332-0.352
				v-32.43c0-0.186,0.142-0.341,0.332-0.354c0.763-0.047,2.14-0.1,2.891-0.1c4.911,0,9.044,1.808,11.94,5.225
				c2.561,3.022,3.973,7.087,3.973,11.446c0,4.354-1.412,8.408-3.973,11.419C109.409,233.272,105.284,235.067,100.365,235.067z
				 M97.849,234.327c0.826,0.035,1.9,0.035,2.516,0.035c10.447,0,15.207-8.249,15.207-15.91c0-7.688-4.76-15.964-15.207-15.964
				c-0.638,0-1.742,0.041-2.516,0.085V234.327z"/>
		</g>
		<g>
			<path fill="#4E867B" d="M133.901,199.974l13.492,35.851l-1.403,0.499l-3.683-9.767h-16.816l-3.675,9.767l-1.408-0.499
				L133.901,199.974z M126.043,225.049h15.662l-7.805-20.796L126.043,225.049z"/>
			<path fill="#4E867B" d="M145.99,236.681c-0.147,0-0.282-0.088-0.338-0.23l-3.586-9.537h-16.329l-3.588,9.537
				c-0.069,0.183-0.27,0.275-0.453,0.209l-1.41-0.504c-0.087-0.03-0.159-0.099-0.2-0.186c-0.041-0.083-0.046-0.182-0.013-0.271
				l13.498-35.851c0.103-0.277,0.556-0.277,0.662,0l13.494,35.851c0.037,0.09,0.03,0.188-0.01,0.271
				c-0.043,0.087-0.115,0.155-0.202,0.186l-1.411,0.504C146.063,236.673,146.024,236.681,145.99,236.681z M120.869,235.609
				l0.739,0.264l3.553-9.441c0.055-0.136,0.184-0.226,0.33-0.226h16.816c0.153,0,0.283,0.09,0.33,0.226l3.557,9.441l0.742-0.264
				l-13.035-34.636L120.869,235.609z M141.706,225.401h-15.662c-0.115,0-0.221-0.06-0.291-0.152
				c-0.059-0.096-0.079-0.216-0.038-0.327l7.856-20.795c0.052-0.138,0.185-0.229,0.33-0.229l0,0c0.146,0,0.279,0.095,0.332,0.229
				l7.804,20.795c0.04,0.111,0.024,0.231-0.039,0.327C141.929,225.347,141.821,225.401,141.706,225.401z M126.555,224.695h14.641
				l-7.299-19.436L126.555,224.695z"/>
		</g>
		<g>
			<path fill="#4E867B" d="M154.901,200.83v33.734h17.018v1.508h-18.531V200.83H154.901z"/>
			<path fill="#4E867B" d="M171.918,236.429h-18.531c-0.195,0-0.352-0.157-0.352-0.356V200.83c0-0.196,0.156-0.355,0.352-0.355
				h1.514c0.194,0,0.352,0.159,0.352,0.355v33.377h16.666c0.198,0,0.358,0.16,0.358,0.357v1.508
				C172.277,236.271,172.117,236.429,171.918,236.429z M153.741,235.721h17.822v-0.802h-16.662c-0.194,0-0.358-0.161-0.358-0.354
				v-33.384h-0.802V235.721z"/>
		</g>
		<g>
			<path fill="#4E867B" d="M190.652,199.974l13.491,35.851l-1.41,0.499l-3.674-9.767h-16.818l-3.674,9.767l-1.412-0.499
				L190.652,199.974z M182.793,225.049h15.665l-7.807-20.796L182.793,225.049z"/>
			<path fill="#4E867B" d="M202.733,236.681c-0.143,0-0.28-0.088-0.334-0.23l-3.584-9.537h-16.329l-3.588,9.537
				c-0.07,0.183-0.269,0.275-0.452,0.209l-1.41-0.504c-0.09-0.03-0.164-0.099-0.202-0.186c-0.04-0.083-0.047-0.182-0.007-0.271
				l13.49-35.851c0.105-0.277,0.557-0.277,0.662,0l13.497,35.851c0.034,0.09,0.028,0.188-0.01,0.271
				c-0.039,0.087-0.115,0.155-0.204,0.186l-1.409,0.504C202.814,236.673,202.771,236.681,202.733,236.681z M182.241,226.206h16.818
				c0.146,0,0.279,0.09,0.33,0.226l3.554,9.441l0.743-0.264l-13.034-34.636l-13.04,34.636l0.746,0.264l3.555-9.441
				C181.959,226.296,182.09,226.206,182.241,226.206z M198.458,225.401h-15.665c-0.112,0-0.223-0.06-0.291-0.152
				c-0.066-0.096-0.082-0.216-0.039-0.327l7.854-20.795c0.051-0.138,0.183-0.229,0.335-0.229l0,0c0.147,0,0.277,0.095,0.327,0.229
				l7.805,20.795c0.043,0.111,0.027,0.231-0.036,0.327C198.68,225.347,198.571,225.401,198.458,225.401z M183.307,224.695h14.635
				l-7.296-19.436L183.307,224.695z"/>
		</g>
	</g>
	<g>
		<g>
			<path fill="#9E9C9E" d="M32.106,242.642h6.569v1.029h-5.424v4.249h4.43v1.024h-4.43v4.332h5.725v1.03h-6.87V242.642z"/>
		</g>
		<g>
			<path fill="#9E9C9E" d="M44.445,245.759c2.027,0,2.726,1.577,2.726,1.577h0.031c0,0-0.031-0.282-0.031-0.632v-4.063h1.127v11.665
				h-1.096v-0.877c0-0.37,0.03-0.602,0.03-0.602h-0.03c0,0-0.68,1.676-2.873,1.676c-2.24,0-3.633-1.79-3.633-4.378
				C40.696,247.488,42.256,245.759,44.445,245.759z M44.494,253.493c1.398,0,2.708-0.995,2.708-3.367
				c0-1.696-0.86-3.353-2.652-3.353c-1.481,0-2.691,1.245-2.691,3.353C41.859,252.183,42.939,253.493,44.494,253.493z"/>
		</g>
		<g>
			<path fill="#9E9C9E" d="M50.982,242.642h1.177v1.411h-1.177V242.642z M51.016,245.958h1.127v8.349h-1.127V245.958z"/>
		</g>
		<g>
			<path fill="#9E9C9E" d="M60.175,246.905h-3.803v7.401h-1.127v-7.401h-1.045v-0.947h1.045v-0.296c0-2.754,1.941-3.106,2.889-3.106
				c0.318,0,0.515,0.037,0.515,0.037v1.012c0,0-0.167-0.031-0.399-0.031c-0.646,0-1.877,0.229-1.877,2.089v0.296h4.93v8.349h-1.126
				V246.905z M60.141,242.642h1.18v1.411h-1.18V242.642z"/>
		</g>
		<g>
			<path fill="#9E9C9E" d="M67.821,245.759c2.043,0,3.054,1.197,3.054,1.197l-0.576,0.848c0,0-0.93-1.014-2.443-1.014
				c-1.825,0-3.251,1.362-3.251,3.354c0,1.958,1.444,3.35,3.287,3.35c1.693,0,2.671-1.18,2.671-1.18l0.512,0.881
				c0,0-1.126,1.31-3.252,1.31c-2.47,0-4.378-1.771-4.378-4.36C63.442,247.568,65.369,245.759,67.821,245.759z"/>
		</g>
		<g>
			<path fill="#9E9C9E" d="M73.097,242.642h1.179v1.411h-1.179V242.642z M73.132,245.958h1.127v8.349h-1.127V245.958z"/>
		</g>
		<g>
			<path fill="#9E9C9E" d="M80.779,245.759c2.44,0,4.409,1.856,4.409,4.335c0,2.521-1.968,4.41-4.409,4.41
				c-2.44,0-4.414-1.89-4.414-4.41C76.365,247.615,78.339,245.759,80.779,245.759z M80.779,253.493c1.789,0,3.253-1.462,3.253-3.399
				c0-1.891-1.464-3.304-3.253-3.304c-1.793,0-3.251,1.413-3.251,3.304C77.527,252.031,78.985,253.493,80.779,253.493z"/>
		</g>
		<g>
			<path fill="#9E9C9E" d="M92.095,242.642h3.448c1.193,0,1.724,0.117,2.191,0.314c1.092,0.479,1.759,1.596,1.759,3.002
				c0,1.58-0.897,2.79-2.21,3.155v0.031c0,0,0.117,0.15,0.303,0.467l2.536,4.695h-1.312l-2.635-4.91h-2.939v4.91h-1.142V242.642z
				 M96.007,248.366c1.409,0,2.308-0.914,2.308-2.372c0-0.964-0.384-1.678-1.061-2.037c-0.353-0.187-0.766-0.286-1.661-0.286h-2.356
				v4.695H96.007z"/>
		</g>
		<g>
			<path fill="#9E9C9E" d="M105.713,245.759c2.308,0,3.48,1.779,3.48,3.853c0,0.198-0.027,0.58-0.027,0.58h-6.406
				c0.048,2.14,1.507,3.302,3.235,3.302c1.527,0,2.535-1.011,2.535-1.011l0.517,0.862c0,0-1.213,1.159-3.087,1.159
				c-2.485,0-4.361-1.79-4.361-4.36C101.599,247.404,103.456,245.759,105.713,245.759z M108.053,249.265
				c-0.068-1.747-1.131-2.561-2.373-2.561c-1.394,0-2.606,0.881-2.872,2.561H108.053z"/>
		</g>
		<g>
			<path fill="#9E9C9E" d="M111.29,252.482c0,0,0.925,1.011,2.489,1.011c0.894,0,1.671-0.45,1.671-1.33
				c0-1.822-4.494-1.377-4.494-4.098c0-1.492,1.346-2.307,2.855-2.307c1.761,0,2.57,0.915,2.57,0.915l-0.514,0.864
				c0,0-0.71-0.765-2.089-0.765c-0.848,0-1.661,0.365-1.661,1.292c0,1.844,4.495,1.345,4.495,4.098c0,1.365-1.176,2.341-2.854,2.341
				c-2.023,0-3.084-1.206-3.084-1.206L111.29,252.482z"/>
		</g>
		<g>
			<path fill="#9E9C9E" d="M118.668,242.642h1.178v1.411h-1.178V242.642z M118.706,245.958h1.126v8.349h-1.126V245.958z"/>
		</g>
		<g>
			<path fill="#9E9C9E" d="M125.752,245.759c2.025,0,2.725,1.577,2.725,1.577h0.03c0,0-0.03-0.282-0.03-0.632v-4.063h1.127v11.665
				h-1.097v-0.877c0-0.37,0.032-0.602,0.032-0.602h-0.032c0,0-0.68,1.676-2.869,1.676c-2.238,0-3.636-1.79-3.636-4.378
				C122.002,247.488,123.566,245.759,125.752,245.759z M125.803,253.493c1.397,0,2.704-0.995,2.704-3.367
				c0-1.696-0.863-3.353-2.653-3.353c-1.479,0-2.686,1.245-2.686,3.353C123.168,252.183,124.245,253.493,125.803,253.493z"/>
		</g>
		<g>
			<path fill="#9E9C9E" d="M135.858,245.759c2.303,0,3.485,1.779,3.485,3.853c0,0.198-0.034,0.58-0.034,0.58h-6.406
				c0.051,2.14,1.51,3.302,3.236,3.302c1.524,0,2.542-1.011,2.542-1.011l0.516,0.862c0,0-1.215,1.159-3.09,1.159
				c-2.489,0-4.366-1.79-4.366-4.36C131.741,247.404,133.6,245.759,135.858,245.759z M138.201,249.265
				c-0.071-1.747-1.13-2.561-2.377-2.561c-1.394,0-2.604,0.881-2.87,2.561H138.201z"/>
		</g>
		<g>
			<path fill="#9E9C9E" d="M141.498,245.958h1.113v1.245c0,0.365-0.035,0.665-0.035,0.665h0.035
				c0.295-0.763,1.358-2.109,3.333-2.109c2.059,0,2.789,1.177,2.789,3.238v5.31h-1.131v-5.012c0-1.309-0.193-2.473-1.807-2.473
				c-1.429,0-2.654,0.981-3.036,2.355c-0.095,0.349-0.135,0.731-0.135,1.134v3.995h-1.127V245.958z"/>
		</g>
		<g>
			<path fill="#9E9C9E" d="M155.137,245.759c2.037,0,3.051,1.197,3.051,1.197l-0.584,0.848c0,0-0.926-1.014-2.435-1.014
				c-1.829,0-3.253,1.362-3.253,3.354c0,1.958,1.443,3.35,3.283,3.35c1.691,0,2.672-1.18,2.672-1.18l0.516,0.881
				c0,0-1.127,1.31-3.25,1.31c-2.473,0-4.384-1.771-4.384-4.36C150.753,247.568,152.676,245.759,155.137,245.759z"/>
		</g>
		<g>
			<path fill="#9E9C9E" d="M160.411,242.642h1.178v1.411h-1.178V242.642z M160.446,245.958h1.127v8.349h-1.127V245.958z"/>
		</g>
		<g>
			<path fill="#9E9C9E" d="M168.723,249.145h0.467v-0.214c0-1.608-0.883-2.157-2.076-2.157c-1.378,0-2.359,0.795-2.359,0.795
				l-0.525-0.864c0,0,1.093-0.945,2.97-0.945c2.003,0,3.116,1.111,3.116,3.205v5.343h-1.078v-0.911c0-0.416,0.031-0.699,0.031-0.699
				h-0.031c0,0-0.699,1.808-2.783,1.808c-1.4,0-2.844-0.812-2.844-2.473C163.61,249.215,167.282,249.145,168.723,249.145z
				 M166.629,253.542c1.594,0,2.561-1.66,2.561-3.1v-0.367h-0.484c-1.311,0-3.933,0.051-3.933,1.893
				C164.773,252.747,165.389,253.542,166.629,253.542z"/>
		</g>
		<g>
			<path fill="#9E9C9E" d="M172.836,242.642h1.125v9.443c0,1.095,0.502,1.26,0.933,1.26c0.149,0,0.278-0.018,0.278-0.018v1.011
				c0,0-0.197,0.036-0.411,0.036c-0.698,0-1.925-0.215-1.925-2.043V242.642z"/>
		</g>
	</g>
	<g opacity="0.5">
		<g>
			<path fill="#A7CCC5" d="M163.209,138.325l-0.119-4.243c0.182-0.009,19.119-0.618,31.183-5.29l1.534,3.967
				C183.063,137.692,164.018,138.301,163.209,138.325z"/>
		</g>
	</g>
	<g opacity="0.5">
		<g>
			<path fill="#A7CCC5" d="M191.27,133.286c-3.821-16.675-16.854-25.658-16.984-25.745l2.375-3.525
				c0.593,0.401,14.547,9.957,18.754,28.315L191.27,133.286z"/>
		</g>
	</g>
	<g>
		<g>
			<g>
				<g>
					<path fill="#82B8AB" d="M66.989,109.997c-4.16,0-7.847-0.585-11.284-1.78c-22.478-7.846-27.466-19.318-27.67-19.801
						l-0.285-0.691l0.228-0.706c0.113-0.356,2.815-8.668,8.722-12.916c5.047-3.626,8.924-5.482,11.147-6.375
						c-0.784-2.355-2.031-6.582-2.806-11.502c-1.077-6.806,0.49-12.506,0.561-12.742l0.316-1.129l1.141-0.295
						c0.18-0.046,4.487-1.119,10.976-1.119c6.587,0,12.94,1.082,18.882,3.215c9.954,3.568,21.105,16.381,24.41,23.632
						c2.609,5.733,4.66,23.607,4.746,24.365l0.113,0.976l-0.697,0.696c-0.459,0.46-11.387,11.295-22.335,13.939
						C76.949,109.266,71.661,109.997,66.989,109.997z M32.136,87.48c1.366,2.348,7.301,10.749,24.915,16.896
						c6.511,2.264,14.248,2.067,25.145-0.573c8.366-2.021,17.205-9.84,19.713-12.191c-0.677-5.628-2.464-18.124-4.291-22.134
						c-3.346-7.351-13.934-18.577-22.077-21.487c-5.5-1.977-11.389-2.979-17.506-2.979c-4.03,0-7.161,0.453-8.776,0.748
						c-0.351,1.839-0.864,5.624-0.199,9.832c1.098,6.953,3.258,12.588,3.278,12.645l0.834,2.144l-2.235,0.565
						c-0.034,0.012-4.592,1.242-11.857,6.466C35.183,80.211,32.886,85.505,32.136,87.48z"/>
				</g>
			</g>
		</g>
		<g>
			<g>
				<g>
					<path fill="#82B8AB" d="M149.895,143.922c-6.581,0-12.934-1.078-18.881-3.21c-9.955-3.567-21.102-16.379-24.404-23.634
						c-2.611-5.733-4.667-23.607-4.749-24.366l-0.113-0.974l0.692-0.696c0.461-0.457,11.394-11.29,22.339-13.939
						c11.731-2.839,20.159-2.992,27.446-0.45c22.484,7.845,27.471,19.313,27.673,19.798l0.285,0.692l-0.226,0.71
						c-0.113,0.355-2.816,8.664-8.723,12.912c-5.052,3.625-8.931,5.485-11.146,6.376c0.779,2.354,2.029,6.579,2.807,11.499
						c1.074,6.808-0.495,12.505-0.563,12.746l-0.318,1.13l-1.139,0.294C160.694,142.857,156.383,143.922,149.895,143.922z
						 M106.022,93.252c0.682,5.638,2.467,18.126,4.294,22.145c3.344,7.343,13.938,18.567,22.074,21.485
						c5.499,1.973,11.392,2.973,17.505,2.973c4.032,0,7.167-0.451,8.779-0.747c0.348-1.837,0.863-5.625,0.198-9.829
						c-1.101-6.984-3.259-12.593-3.28-12.647l-0.834-2.146l2.231-0.563c0.036-0.012,4.599-1.237,11.866-6.466
						c3.891-2.8,6.191-8.092,6.946-10.071c-1.369-2.344-7.31-10.751-24.919-16.887c-6.514-2.276-14.252-2.072-25.146,0.562
						C117.374,83.08,108.531,90.907,106.022,93.252z"/>
				</g>
			</g>
		</g>
	</g>
	<g>
		<g>
			<g>
				<g>
					<path fill="#82B8AB" d="M103.274,94.649l-0.695-0.688c-0.463-0.465-11.295-11.39-13.943-22.338
						c-2.802-11.579-2.945-20.304-0.453-27.446c7.846-22.488,19.318-27.472,19.803-27.675l0.689-0.283l0.711,0.226
						c0.352,0.112,8.666,2.815,12.912,8.725c3.625,5.045,5.486,8.922,6.376,11.144c2.353-0.779,6.58-2.031,11.499-2.806
						c1.576-0.25,3.221-0.376,4.893-0.376c4.476,0,7.715,0.899,7.857,0.936l1.128,0.321l0.288,1.14
						c0.146,0.575,3.5,14.247-2.09,29.855c-3.574,9.958-16.385,21.106-23.637,24.408c-5.732,2.608-23.604,4.663-24.365,4.753
						L103.274,94.649z M108.92,20.599c-2.349,1.369-10.746,7.31-16.893,24.92c-2.224,6.37-2.043,14.361,0.568,25.146
						c2.023,8.363,9.842,17.202,12.191,19.711c5.633-0.676,18.125-2.467,22.139-4.289c7.348-3.346,18.568-13.94,21.489-22.078
						c4.265-11.9,2.869-22.754,2.226-26.284c-1.185-0.228-3.185-0.521-5.576-0.521c-1.457,0-2.891,0.109-4.256,0.325
						c-6.977,1.101-12.59,3.255-12.647,3.277l-2.146,0.835l-0.563-2.23c-0.006-0.039-1.238-4.597-6.459-11.868
						C116.189,23.651,110.896,21.352,108.92,20.599z"/>
				</g>
			</g>
		</g>
		<g>
			<g>
				<g>
					<path fill="#82B8AB" d="M99.256,168.649l-0.711-0.226c-0.352-0.113-8.662-2.818-12.906-8.727
						c-3.629-5.046-5.489-8.924-6.382-11.138c-2.351,0.776-6.575,2.027-11.496,2.801c-1.577,0.25-3.225,0.377-4.895,0.377
						c-4.477,0-7.718-0.896-7.852-0.935l-1.133-0.319l-0.29-1.142c-0.144-0.575-3.497-14.25,2.091-29.854
						c3.574-9.959,16.387-21.112,23.643-24.413c5.73-2.608,23.603-4.662,24.363-4.747l0.972-0.111l0.693,0.697
						c0.461,0.453,11.294,11.385,13.944,22.333c2.802,11.578,2.944,20.299,0.453,27.44c-7.847,22.491-19.315,27.479-19.804,27.677
						L99.256,168.649z M81.913,143.232l0.565,2.226c0.011,0.04,1.242,4.599,6.463,11.864c2.799,3.896,8.095,6.19,10.072,6.944
						c2.364-1.379,10.754-7.325,16.891-24.916c2.225-6.376,2.044-14.361-0.565-25.151c-2.02-8.357-9.844-17.195-12.189-19.713
						c-5.637,0.683-18.126,2.471-22.14,4.298c-7.35,3.342-18.57,13.934-21.491,22.075c-4.264,11.899-2.868,22.752-2.228,26.283
						c1.19,0.225,3.187,0.522,5.576,0.522c1.458,0,2.89-0.106,4.26-0.328c6.952-1.096,12.587-3.258,12.64-3.276L81.913,143.232z"/>
				</g>
			</g>
		</g>
	</g>
	<g>
		<g>
			<g>
				<g>
					<path fill="#E5B315" d="M132.431,158.992h-0.981c-0.652,0-16.035,0.157-25.655-5.707
						c-10.163-6.207-16.434-12.165-19.723-18.977c-10.355-21.443-5.766-33.027-5.562-33.511l0.278-0.664l0.665-0.327
						c0.25-0.133,6.228-3.168,12.505-3.168c0.969,0,1.91,0.072,2.795,0.221c6.131,1,10.192,2.431,12.389,3.367
						c1.115-2.213,3.219-6.086,6.146-10.112c4.054-5.572,9.19-8.491,9.408-8.615l1.027-0.574l1.012,0.6
						c0.506,0.304,12.549,7.604,19.633,22.592c4.516,9.567,3.338,26.514,0.543,33.975c-2.209,5.899-13.396,19.763-13.869,20.358
						L132.431,158.992z M84.059,103.091c-0.69,2.627-2.429,12.772,5.678,29.563c2.936,6.081,8.713,11.603,18.186,17.381
						c7.355,4.488,19.128,5.207,22.557,5.32c3.504-4.465,11.073-14.564,12.621-18.692c2.831-7.56,3.274-22.987-0.416-30.806
						c-5.401-11.428-14.062-18.116-17.011-20.16c-1.548,1.055-4.588,3.37-7.095,6.813c-4.138,5.695-6.594,11.208-6.617,11.264
						l-0.932,2.1l-1.975-1.179c-0.034-0.016-4.13-2.371-12.964-3.813c-0.667-0.109-1.385-0.166-2.134-0.166
						C89.848,100.714,85.708,102.353,84.059,103.091z"/>
				</g>
			</g>
		</g>
		<g>
			<g>
				<g>
					<path fill="#E5B315" d="M82.21,103.942l-1.012-0.602c-0.507-0.304-12.553-7.603-19.631-22.592
						c-4.516-9.567-3.34-26.508-0.547-33.972c2.208-5.897,13.394-20.206,13.872-20.805l0.61-0.98h0.979
						c0.655,0,16.041,0.285,25.654,6.152c10.168,6.207,16.434,12.375,19.725,19.193c10.354,21.446,5.769,33.138,5.568,33.625
						l-0.283,0.717l-0.664,0.36c-0.254,0.126-6.227,3.174-12.51,3.174c-0.967,0-1.906-0.064-2.786-0.208
						c-6.136-1.006-10.191-2.432-12.396-3.373c-1.107,2.218-3.212,6.094-6.142,10.124c-4.059,5.566-9.194,8.487-9.407,8.611
						L82.21,103.942z M77.456,29.515c-3.505,4.464-11.074,14.557-12.618,18.69c-2.834,7.563-3.279,22.983,0.409,30.808
						c5.401,11.43,14.063,18.117,17.013,20.16c1.548-1.057,4.589-3.373,7.093-6.816c4.145-5.694,6.597-11.204,6.622-11.259
						l0.928-2.109l1.979,1.183c0.029,0.016,4.126,2.373,12.963,3.82c0.662,0.104,1.383,0.16,2.127,0.16
						c4.134,0,8.26-1.637,9.9-2.373c0.694-2.629,2.434-12.768-5.674-29.564c-2.938-6.077-8.712-11.6-18.184-17.38
						C92.653,30.341,80.886,29.628,77.456,29.515z"/>
				</g>
			</g>
		</g>
	</g>
	<g>
		<g>
			<g>
				<g>
					<path fill="#E5B315" d="M75.191,137.862c-6.417,0-12.726-0.927-16.879-2.48c-5.902-2.211-20.635-13.397-21.233-13.873
						l-1.413-0.612v-0.98c0-0.651,0.711-16.039,6.58-25.648c6.208-10.172,12.591-16.44,19.407-19.732
						c11.557-5.574,20.379-6.748,25.609-6.748c5.114,0,7.914,1.063,8.206,1.183l0.727,0.287l0.363,0.666
						c0.17,0.324,4.144,8.115,2.973,15.292c-1.009,6.136-2.431,10.195-3.365,12.393c2.211,1.113,6.088,3.216,10.117,6.148
						c5.571,4.055,8.492,9.192,8.611,9.408l0.582,1.027l-0.604,1.014c-0.307,0.506-7.598,12.55-22.591,19.628
						C88.143,136.788,82.075,137.862,75.191,137.862z M41.047,118.948c4.461,3.502,14.561,11.071,18.688,12.619
						c3.671,1.375,9.593,2.226,15.457,2.226c6.292,0,11.747-0.94,15.353-2.639c11.386-5.38,18.104-14.059,20.157-17.018
						c-1.05-1.548-3.369-4.583-6.81-7.087c-5.718-4.156-11.208-6.602-11.261-6.624l-2.105-0.932l1.178-1.976
						c0.021-0.031,2.375-4.124,3.818-12.958c0.776-4.738-1.346-10.107-2.211-12.034c-0.965-0.26-2.949-0.665-5.883-0.665
						c-4.809,0-12.82,1.101-23.681,6.343c-6.079,2.936-11.602,8.715-17.38,18.182C41.873,103.744,41.161,115.515,41.047,118.948z"/>
				</g>
			</g>
		</g>
		<g>
			<g>
				<g>
					<path fill="#E5B315" d="M120.503,117.078c-5.106,0-7.827-1.064-8.121-1.183l-0.688-0.285l-0.343-0.665
						c-0.166-0.326-4.134-8.12-2.96-15.298c1.008-6.133,2.432-10.191,3.37-12.388c-2.212-1.116-6.088-3.218-10.115-6.146
						c-5.571-4.056-8.493-9.189-8.614-9.408l-0.573-1.03l0.601-1.008c0.305-0.51,7.6-12.553,22.594-19.633
						c4.134-1.953,10.207-3.033,17.093-3.033c6.417,0,12.725,0.931,16.879,2.488c5.896,2.208,19.337,13.394,19.934,13.867
						l0.108,0.614v0.981c0,0.646,0.587,16.035-5.282,25.652c-6.204,10.166-11.942,16.437-18.756,19.725
						C134.07,115.908,125.737,117.078,120.503,117.078z M114.624,112.341c0.966,0.258,2.947,0.667,5.88,0.667
						c4.809,0,12.819-1.102,23.685-6.347c6.072-2.934,11.596-8.71,17.379-18.18c4.489-7.358,5.207-19.126,5.32-22.563
						c-4.464-3.501-14.563-11.07-18.689-12.617c-3.671-1.374-9.588-2.228-15.452-2.228c-6.296,0-11.751,0.938-15.357,2.641
						c-11.429,5.4-18.116,14.06-20.157,17.013c1.051,1.548,3.367,4.585,6.813,7.092c5.713,4.151,11.204,6.595,11.258,6.62
						l2.107,0.934l-1.18,1.974c-0.021,0.033-2.371,4.125-3.814,12.959C111.636,105.045,113.758,110.415,114.624,112.341z"/>
				</g>
			</g>
		</g>
	</g>
	<g>
		<g>
			<g>
				<circle fill="#FFFFFF" cx="103.927" cy="91.762" r="4.749"/>
			</g>
		</g>
	</g>
	<g>
		<g>
			<g>
				<path fill="#B15596" d="M34.976,70.662c0,0,1.563-1.68,3.573-2.986c2.854-1.869,4.214-2.178,4.214-2.178
					c-0.856-2.434-0.701-2.069-1.078-3.82c-0.331-1.524-0.331-1.818-0.408-4.228c0,0-5.041-0.17-8.23,0.362
					c-1.696,0.286-4.807,1.3-4.807,1.3s1.724,4.321,2.339,5.608C32.56,68.843,34.976,70.662,34.976,70.662z"/>
			</g>
		</g>
		<g>
			<g>
				
					<rect x="27.566" y="61.951" transform="matrix(0.9154 0.4025 -0.4025 0.9154 28.0815 -9.0188)" fill="#FFFFFF" width="15.867" height="0.709"/>
			</g>
		</g>
	</g>
	<g>
		<g>
			<g>
				<path fill="#B15596" d="M173.778,114.428c0,0-1.563,1.674-3.572,2.988c-2.857,1.862-4.217,2.175-4.217,2.175
					c0.856,2.428,0.7,2.069,1.08,3.819c0.33,1.519,0.33,1.819,0.408,4.228c0,0,5.041,0.171,8.236-0.364
					c1.691-0.279,4.802-1.3,4.802-1.3s-1.722-4.32-2.344-5.606C176.196,116.243,173.778,114.428,173.778,114.428z"/>
			</g>
		</g>
		<g>
			<g>
				<polygon fill="#FFFFFF" points="180.373,126.301 165.849,119.913 166.129,119.263 180.659,125.654 				"/>
			</g>
		</g>
	</g>
	<g>
		<g>
			<g>
				<path fill="#B15596" d="M125.245,23.479c0,0,1.672,1.569,2.986,3.576c1.867,2.858,2.171,4.214,2.171,4.214
					c2.435-0.854,2.071-0.698,3.825-1.079c1.523-0.331,1.816-0.333,4.225-0.407c0,0,0.168-5.04-0.365-8.229
					c-0.277-1.696-1.294-4.812-1.294-4.812s-4.319,1.729-5.612,2.346C127.061,21.069,125.245,23.479,125.245,23.479z"/>
			</g>
		</g>
		<g>
			<g>
				
					<rect x="133.239" y="16.074" transform="matrix(0.915 0.4035 -0.4035 0.915 21.0428 -51.8613)" fill="#FFFFFF" width="0.714" height="15.866"/>
			</g>
		</g>
	</g>
	<g>
		<g>
			<g>
				<path fill="#B15596" d="M82.156,161.606c0,0-1.68-1.563-2.993-3.573c-1.863-2.858-2.171-4.214-2.171-4.214
					c-2.438,0.853-2.068,0.696-3.82,1.081c-1.524,0.331-1.823,0.331-4.229,0.406c0,0-0.169,5.037,0.363,8.229
					c0.283,1.697,1.298,4.806,1.298,4.806s4.324-1.721,5.61-2.34C80.336,164.02,82.156,161.606,82.156,161.606z"/>
			</g>
		</g>
		<g>
			<g>
				
					<rect x="73.446" y="153.146" transform="matrix(0.9155 0.4024 -0.4024 0.9155 71.0604 -16.0796)" fill="#FFFFFF" width="0.706" height="15.871"/>
			</g>
		</g>
	</g>
	<g>
		<g>
			<path fill="#4E867B" d="M61.871,94.021c0,1.491-1.22,2.711-2.718,2.711c-1.501,0-2.713-1.22-2.713-2.711
				c0-1.505,1.212-2.719,2.713-2.719C60.651,91.303,61.871,92.517,61.871,94.021z"/>
		</g>
	</g>
	<g>
		<g>
			<path fill="#4E867B" d="M76.118,121.841c0,1.498-1.213,2.713-2.713,2.713c-1.502,0-2.718-1.215-2.718-2.713
				c0-1.504,1.216-2.715,2.718-2.715C74.905,119.126,76.118,120.337,76.118,121.841z"/>
		</g>
	</g>
	<g>
		<g>
			<path fill="#4E867B" d="M109.371,136.089c0,1.497-1.218,2.713-2.718,2.713c-1.496,0-2.713-1.216-2.713-2.713
				c0-1.499,1.217-2.713,2.713-2.713C108.153,133.376,109.371,134.59,109.371,136.089z"/>
		</g>
	</g>
	<g opacity="0.5">
		<g>
			<path fill="#A7CCC5" d="M135.833,125.235c0,1.496-1.212,2.711-2.711,2.711c-1.502,0-2.72-1.215-2.72-2.711
				c0-1.503,1.218-2.719,2.72-2.719C134.621,122.517,135.833,123.732,135.833,125.235z"/>
		</g>
	</g>
	<g>
		<g>
			<path fill="#4E867B" d="M150.083,87.906c0,1.502-1.217,2.717-2.715,2.717c-1.503,0-2.714-1.215-2.714-2.717
				c0-1.494,1.211-2.71,2.714-2.71C148.867,85.196,150.083,86.412,150.083,87.906z"/>
		</g>
	</g>
	<g>
		<g>
			<path fill="#4E867B" d="M139.227,60.768c0,1.496-1.219,2.711-2.717,2.711c-1.496,0-2.713-1.215-2.713-2.711
				c0-1.502,1.217-2.716,2.713-2.716C138.008,58.052,139.227,59.266,139.227,60.768z"/>
		</g>
	</g>
	<g>
		<g>
			<path fill="#4E867B" d="M76.795,59.409c0,1.497-1.214,2.712-2.712,2.712c-1.501,0-2.72-1.215-2.72-2.712
				c0-1.499,1.219-2.713,2.72-2.713C75.581,56.696,76.795,57.91,76.795,59.409z"/>
		</g>
	</g>
	<g>
		<g>
			<path fill="#4E867B" d="M104.62,47.195c0,1.498-1.216,2.712-2.713,2.712c-1.502,0-2.717-1.214-2.717-2.712
				c0-1.501,1.215-2.715,2.717-2.715C103.404,44.48,104.62,45.694,104.62,47.195z"/>
		</g>
	</g>
	<g>
		<g>
			<path fill="#82B8AB" d="M46.214,154.974c-3.277,0-7.334-0.141-10.704-0.684c-4.889-0.799-9.949-2.021-10.165-2.072l-1.38-0.332
				l-0.222-1.402c-0.035-0.242-0.915-5.938-0.352-11.57c0.865-8.678,4.239-17.182,4.376-17.539l3.952,1.576
				c-0.035,0.081-3.293,8.318-4.103,16.388c-0.349,3.52-0.066,7.146,0.147,9.081c1.85,0.42,5.221,1.149,8.432,1.672
				c6.328,1.03,15.726,0.488,15.817,0.485l0.25,4.241C52.062,154.829,49.535,154.974,46.214,154.974z"/>
		</g>
	</g>
	<g>
		<g>
			<path fill="#82B8AB" d="M165.738,172.891l-1.414-0.102c-0.219-0.018-5.415-0.393-10.313-1.116
				c-6.803-1.012-15.748-4.435-16.125-4.578l1.53-3.971c0.088,0.037,8.883,3.403,15.219,4.342c3.216,0.479,6.649,0.805,8.536,0.97
				c0.791-1.781,2.168-5.162,2.896-8.61c1.683-7.934,1.075-16.77,1.07-16.862l4.238-0.302c0.026,0.387,0.662,9.511-1.15,18.044
				c-1.173,5.54-3.741,10.698-3.852,10.917L165.738,172.891z"/>
		</g>
	</g>
	<g>
		<g>
			<path fill="#82B8AB" d="M185.078,98.112l-2.993-3.014c0.062-0.064,6.326-6.332,10.27-13.414c1.718-3.08,2.9-6.533,3.477-8.393
				c-1.529-1.119-4.332-3.129-7.071-4.883c-5.401-3.461-14.237-6.697-14.326-6.731l1.456-3.99c0.379,0.138,9.371,3.431,15.164,7.143
				c4.168,2.673,8.33,5.805,8.508,5.937l1.134,0.853l-0.356,1.375c-0.064,0.235-1.515,5.81-4.268,10.757
				C191.823,91.373,185.352,97.841,185.078,98.112z"/>
		</g>
	</g>
	<g>
		<g>
			<path fill="#82B8AB" d="M38.113,39.593c-0.004-0.403-0.068-9.983,1.377-16.707c1.04-4.838,2.516-9.839,2.58-10.051l0.401-1.358
				l1.412-0.149c0.243-0.022,5.978-0.617,11.569,0.229c8.63,1.305,16.954,5.104,17.301,5.265l-1.779,3.864
				c-0.08-0.04-8.138-3.713-16.158-4.926c-3.495-0.528-7.136-0.429-9.077-0.31c-0.511,1.825-1.413,5.152-2.095,8.331
				C42.3,30.041,42.36,39.462,42.36,39.557L38.113,39.593z"/>
		</g>
	</g>
	<g>
		<g>
			<circle fill="#82B8AB" cx="25.097" cy="106.215" r="2.716"/>
		</g>
	</g>
	<g>
		<g>
			<path fill="#B15596" d="M88.838,74.733c-0.828,0.152-1.664,0.277-2.492,0.401c-0.83,0.118-1.647,0.28-2.466,0.422
				c-0.409,0.062-0.819,0.118-1.224,0.215l-1.209,0.263c-0.405,0.086-0.813,0.151-1.213,0.246l-1.184,0.324
				c-0.396,0.104-0.788,0.219-1.182,0.317l-0.262,0.064l-0.298,0.099l-0.594,0.201l-1.189,0.403c-0.405,0.119-0.765,0.3-1.136,0.45
				l-2.284,0.923c-0.383,0.147-0.758,0.309-1.116,0.47l-0.505,0.242c-0.08,0.04-0.144,0.082-0.192,0.105
				c0.006,0-0.055,0.038-0.008,0.003c0.025-0.021,0.045-0.046,0.065-0.071l0.063-0.087c0.039-0.052,0.064-0.105,0.088-0.165
				c0.048-0.117,0.067-0.246,0.058-0.355l-0.114-0.481l1.093,1.956l0.538,0.988c0.191,0.322,0.327,0.676,0.546,0.979l1.234,1.884
				c0.207,0.31,0.407,0.627,0.611,0.951l0.295,0.478l0.345,0.453c0.452,0.6,0.911,1.194,1.352,1.815l0.667,0.919
				c0.212,0.321,0.488,0.58,0.716,0.886c0.485,0.588,0.977,1.164,1.453,1.768l0.711,0.898l0.776,0.865l-0.967-0.627l-0.91-0.728
				c-0.607-0.48-1.188-0.989-1.791-1.486c-0.29-0.255-0.602-0.497-0.861-0.778l-0.812-0.836c-0.546-0.552-1.073-1.132-1.601-1.699
				l-0.403-0.427l-0.36-0.462c-0.241-0.302-0.479-0.616-0.71-0.932l-1.402-1.874c-0.247-0.304-0.424-0.659-0.633-0.99l-0.598-1.009
				l-1.176-2.037l-0.127-0.212l0.007-0.269c0.007-0.13,0.038-0.288,0.096-0.428c0.027-0.066,0.061-0.136,0.101-0.196l0.06-0.092
				l0.026-0.028c0.057-0.065,0.116-0.121,0.183-0.178c0.125-0.106,0.155-0.119,0.248-0.181c0.128-0.082,0.242-0.15,0.351-0.201
				c0.219-0.12,0.424-0.208,0.626-0.301c0.41-0.168,0.808-0.325,1.208-0.481l2.391-0.903c0.408-0.15,0.822-0.308,1.224-0.404
				l1.215-0.326l0.604-0.161l0.304-0.086c0.172-0.044,0.228-0.044,0.348-0.071c0.418-0.082,0.849-0.142,1.27-0.213l1.269-0.212
				c0.422-0.048,0.852-0.082,1.274-0.115l1.271-0.095c0.421-0.036,0.849-0.036,1.276-0.04l1.273,0.007
				c0.424,0.011,0.844-0.008,1.265,0.03C87.162,74.583,87.999,74.644,88.838,74.733z"/>
		</g>
	</g>
	<g>
		<g>
			<path fill="#B15596" d="M119.376,110.305c0.83-0.155,1.664-0.278,2.496-0.401c0.831-0.118,1.646-0.287,2.468-0.42
				c0.408-0.064,0.816-0.121,1.22-0.222l1.21-0.262c0.404-0.083,0.812-0.15,1.212-0.246l1.182-0.318
				c0.397-0.106,0.792-0.225,1.186-0.316l0.26-0.064l0.298-0.103l0.596-0.199l1.189-0.404c0.408-0.119,0.764-0.299,1.141-0.449
				l2.28-0.923c0.38-0.155,0.758-0.312,1.116-0.47l0.507-0.244c0.075-0.041,0.144-0.081,0.19-0.108c0,0,0.056-0.035,0.004,0
				c-0.021,0.02-0.045,0.044-0.059,0.069l-0.066,0.091c-0.033,0.046-0.063,0.103-0.088,0.164c-0.045,0.115-0.066,0.243-0.06,0.354
				l0.116,0.482l-1.094-1.958l-0.535-0.987c-0.191-0.323-0.334-0.676-0.551-0.978l-1.232-1.885c-0.211-0.314-0.412-0.63-0.609-0.949
				l-0.298-0.48l-0.341-0.451c-0.455-0.603-0.916-1.195-1.359-1.814l-0.666-0.922c-0.205-0.319-0.484-0.582-0.716-0.884
				c-0.483-0.588-0.977-1.165-1.455-1.774l-0.709-0.893l-0.774-0.87l0.967,0.631l0.912,0.731c0.605,0.479,1.189,0.985,1.788,1.484
				c0.289,0.253,0.604,0.492,0.863,0.778l0.813,0.836c0.545,0.551,1.07,1.128,1.602,1.697l0.396,0.43l0.36,0.462
				c0.245,0.304,0.481,0.613,0.712,0.926l1.4,1.88c0.252,0.302,0.426,0.657,0.637,0.987l0.597,1.012l1.179,2.034l0.123,0.209
				l-0.009,0.266c-0.005,0.142-0.034,0.29-0.094,0.437c-0.026,0.066-0.065,0.134-0.103,0.195l-0.061,0.086l-0.021,0.034
				c-0.06,0.062-0.119,0.117-0.184,0.174c-0.125,0.114-0.158,0.121-0.242,0.188c-0.134,0.079-0.254,0.146-0.357,0.203
				c-0.219,0.114-0.423,0.2-0.631,0.295c-0.406,0.168-0.805,0.323-1.209,0.478l-2.388,0.91c-0.405,0.148-0.823,0.305-1.224,0.397
				l-1.209,0.33l-0.604,0.163l-0.308,0.086c-0.176,0.043-0.227,0.047-0.348,0.067c-0.421,0.085-0.846,0.141-1.272,0.217
				l-1.269,0.208c-0.419,0.053-0.846,0.086-1.27,0.119l-1.273,0.089c-0.422,0.042-0.85,0.042-1.278,0.046l-1.267-0.01
				c-0.425-0.007-0.847,0.01-1.266-0.033C121.059,110.456,120.216,110.396,119.376,110.305z"/>
		</g>
	</g>
	<g>
		<g>
			<path fill="#B15596" d="M121.892,77.254c-0.155-0.834-0.278-1.666-0.4-2.499c-0.12-0.832-0.281-1.648-0.419-2.464
				c-0.064-0.411-0.121-0.817-0.221-1.221l-0.26-1.215c-0.089-0.403-0.154-0.809-0.246-1.209l-0.322-1.187
				c-0.103-0.392-0.222-0.784-0.315-1.186l-0.065-0.259l-0.104-0.298l-0.198-0.598l-0.402-1.188
				c-0.125-0.409-0.301-0.76-0.448-1.137l-0.926-2.285c-0.15-0.374-0.306-0.756-0.475-1.109l-0.239-0.507
				c-0.04-0.08-0.076-0.144-0.102-0.188c0,0-0.04-0.061,0-0.01c0.015,0.021,0.038,0.044,0.065,0.062l0.086,0.066
				c0.053,0.037,0.107,0.063,0.167,0.085c0.114,0.047,0.248,0.063,0.357,0.063l0.478-0.118l-1.962,1.093l-0.981,0.536
				c-0.322,0.189-0.678,0.329-0.979,0.551l-1.883,1.234c-0.313,0.207-0.63,0.409-0.952,0.604l-0.477,0.302l-0.449,0.339
				c-0.604,0.454-1.201,0.917-1.818,1.356l-0.924,0.665c-0.318,0.214-0.578,0.491-0.881,0.722c-0.59,0.479-1.168,0.978-1.773,1.451
				l-0.892,0.709l-0.869,0.773l0.628-0.965l0.729-0.911c0.484-0.604,0.99-1.19,1.488-1.789c0.254-0.292,0.494-0.601,0.779-0.865
				l0.832-0.808c0.556-0.552,1.131-1.072,1.698-1.605l0.432-0.398l0.46-0.36c0.305-0.24,0.616-0.479,0.926-0.709l1.881-1.404
				c0.305-0.251,0.656-0.422,0.99-0.633l1.006-0.596l2.04-1.181l0.21-0.122l0.265,0.009c0.137,0.005,0.289,0.036,0.431,0.092
				c0.07,0.028,0.135,0.067,0.199,0.1c0.064,0.045,0.119,0.09,0.119,0.09c0.061,0.055,0.121,0.116,0.177,0.178
				c0.106,0.123,0.119,0.16,0.181,0.245c0.084,0.132,0.145,0.249,0.205,0.357c0.114,0.22,0.202,0.424,0.295,0.631
				c0.173,0.408,0.33,0.809,0.48,1.203l0.907,2.39c0.152,0.411,0.306,0.822,0.401,1.223l0.328,1.213l0.162,0.607l0.084,0.301
				c0.047,0.175,0.051,0.236,0.068,0.354c0.082,0.421,0.145,0.847,0.215,1.27l0.211,1.267c0.05,0.423,0.082,0.849,0.116,1.271
				l0.095,1.275c0.033,0.418,0.033,0.847,0.047,1.273l-0.014,1.272c-0.006,0.422,0.014,0.847-0.033,1.267
				C122.045,75.57,121.982,76.41,121.892,77.254z"/>
		</g>
	</g>
	<g>
		<g>
			<path fill="#B15596" d="M86.325,107.786c0.155,0.831,0.279,1.664,0.4,2.494c0.119,0.834,0.283,1.649,0.418,2.47
				c0.064,0.408,0.121,0.813,0.217,1.219l0.266,1.212c0.088,0.4,0.15,0.812,0.244,1.208l0.324,1.188
				c0.102,0.397,0.219,0.786,0.315,1.183l0.066,0.262l0.101,0.296l0.203,0.597l0.398,1.189c0.125,0.407,0.301,0.762,0.45,1.133
				l0.921,2.287c0.152,0.381,0.31,0.758,0.476,1.116l0.244,0.501c0.038,0.085,0.075,0.147,0.103,0.195c0,0,0.035,0.056,0,0.009
				c-0.021-0.022-0.043-0.048-0.072-0.064l-0.082-0.068c-0.055-0.032-0.111-0.06-0.166-0.082c-0.117-0.05-0.248-0.07-0.356-0.063
				l-0.479,0.117l1.955-1.092l0.988-0.538c0.323-0.191,0.674-0.328,0.979-0.553l1.882-1.229c0.313-0.21,0.629-0.412,0.951-0.606
				l0.479-0.308l0.446-0.334c0.604-0.454,1.201-0.918,1.822-1.354l0.923-0.67c0.318-0.211,0.579-0.487,0.881-0.72
				c0.59-0.482,1.164-0.973,1.77-1.453l0.896-0.71l0.87-0.775l-0.631,0.966l-0.729,0.913c-0.481,0.606-0.989,1.188-1.487,1.79
				c-0.251,0.292-0.493,0.604-0.777,0.862l-0.835,0.813c-0.551,0.549-1.128,1.069-1.697,1.603l-0.434,0.4l-0.455,0.358
				c-0.307,0.242-0.621,0.48-0.931,0.713l-1.876,1.401c-0.307,0.248-0.662,0.425-0.988,0.635l-1.012,0.596l-2.033,1.176
				l-0.215,0.127l-0.268-0.012c-0.138-0.001-0.284-0.036-0.43-0.092c-0.072-0.027-0.138-0.063-0.197-0.103l-0.091-0.06l-0.029-0.027
				c-0.064-0.053-0.122-0.114-0.177-0.178c-0.105-0.127-0.117-0.16-0.181-0.245c-0.082-0.13-0.149-0.25-0.202-0.356
				c-0.119-0.221-0.205-0.427-0.294-0.628c-0.175-0.408-0.332-0.809-0.481-1.209l-0.91-2.388c-0.15-0.407-0.306-0.824-0.399-1.222
				l-0.329-1.213l-0.164-0.609l-0.082-0.3c-0.045-0.177-0.045-0.235-0.07-0.354c-0.086-0.419-0.143-0.846-0.216-1.269l-0.209-1.269
				c-0.052-0.419-0.081-0.846-0.121-1.266l-0.09-1.275c-0.038-0.423-0.038-0.85-0.04-1.277l0.003-1.271
				c0.013-0.427-0.004-0.847,0.037-1.269C86.172,109.464,86.233,108.625,86.325,107.786z"/>
		</g>
	</g>
	<g>
		<g>
			<path fill="#4E867B" d="M44.846,105.327c-0.005,0.551-0.044,1.099-0.083,1.642c-0.034,0.546-0.112,1.089-0.144,1.628
				c-0.045,0.535-0.122,1.068-0.145,1.598l-0.13,1.602l-0.119,1.617l-0.098,1.581l-0.124,1.597l-0.138,1.604l-0.392-0.913
				c0.756,0.611,1.505,1.239,2.24,1.881c0.369,0.317,0.733,0.64,1.094,0.968l0.521,0.475l0.549,0.481
				c0.367,0.327,0.733,0.651,1.091,0.986c0.354,0.34,0.722,0.666,1.073,1.011c0.693,0.692,1.393,1.388,2.044,2.151
				c-0.917-0.406-1.781-0.877-2.644-1.35c-0.431-0.235-0.854-0.492-1.276-0.736c-0.427-0.241-0.837-0.506-1.257-0.76l-0.619-0.393
				l-0.625-0.436c-0.4-0.281-0.795-0.563-1.189-0.854c-0.785-0.577-1.563-1.171-2.327-1.774l-0.431-0.345l0.041-0.569
				c0.082-1.093,0.197-2.153,0.344-3.251l0.249-1.642c0.101-0.538,0.211-1.062,0.333-1.589l0.043-0.2
				c0.023-0.118,0.032-0.145,0.049-0.221l0.097-0.383l0.221-0.794c0.146-0.532,0.334-1.053,0.5-1.576
				C43.974,107.339,44.368,106.326,44.846,105.327z"/>
		</g>
	</g>
	<g>
		<g>
			<path fill="#4E867B" d="M163.001,79.092c0.005-0.554,0.043-1.101,0.081-1.647c0.035-0.547,0.107-1.087,0.143-1.628
				c0.047-0.532,0.119-1.063,0.146-1.594l0.129-1.6l0.123-1.62l0.094-1.582l0.126-1.597l0.14-1.601l0.389,0.913
				c-0.758-0.618-1.508-1.241-2.239-1.88c-0.368-0.317-0.729-0.649-1.093-0.973l-0.521-0.478l-0.554-0.479
				c-0.364-0.326-0.731-0.65-1.088-0.984c-0.354-0.342-0.721-0.666-1.069-1.012c-0.702-0.695-1.397-1.388-2.048-2.147
				c0.914,0.406,1.776,0.872,2.645,1.344c0.434,0.234,0.853,0.49,1.274,0.737c0.425,0.241,0.84,0.504,1.257,0.76l0.621,0.393
				l0.625,0.436c0.398,0.282,0.799,0.564,1.188,0.858c0.786,0.574,1.562,1.164,2.325,1.77l0.434,0.345l-0.039,0.567
				c-0.084,1.093-0.204,2.155-0.349,3.254l-0.246,1.637c-0.1,0.536-0.215,1.063-0.332,1.594l-0.044,0.198
				c-0.025,0.12-0.035,0.141-0.051,0.22l-0.1,0.382c-0.068,0.247-0.137,0.532-0.215,0.794c-0.15,0.533-0.331,1.055-0.498,1.58
				C163.873,77.079,163.479,78.093,163.001,79.092z"/>
		</g>
	</g>
	<g>
		<g>
			<path fill="#4E867B" d="M91.483,33.808c-0.555-0.004-1.102-0.045-1.646-0.082c-0.545-0.036-1.082-0.109-1.623-0.141
				c-0.539-0.048-1.07-0.117-1.6-0.148l-1.601-0.128l-1.615-0.123l-1.583-0.095l-1.599-0.121l-1.603-0.143l0.912-0.395
				c-0.611,0.759-1.234,1.506-1.877,2.242c-0.321,0.369-0.645,0.732-0.97,1.098l-0.476,0.518l-0.482,0.551
				c-0.327,0.363-0.645,0.738-0.984,1.087c-0.337,0.359-0.667,0.722-1.012,1.076c-0.692,0.695-1.387,1.396-2.149,2.047
				c0.407-0.919,0.875-1.781,1.346-2.644c0.237-0.436,0.492-0.85,0.734-1.279c0.244-0.427,0.505-0.838,0.761-1.255l0.395-0.62
				l0.434-0.625c0.282-0.398,0.564-0.797,0.856-1.188c0.576-0.786,1.17-1.564,1.774-2.329l0.343-0.437l0.569,0.045
				c1.09,0.082,2.154,0.201,3.254,0.344l1.641,0.25c0.534,0.099,1.06,0.214,1.587,0.328l0.199,0.047
				c0.121,0.024,0.145,0.032,0.22,0.052l0.382,0.099c0.25,0.067,0.532,0.133,0.794,0.214c0.536,0.155,1.053,0.337,1.577,0.504
				C89.469,32.936,90.481,33.331,91.483,33.808z"/>
		</g>
	</g>
	<g>
		<g>
			<path fill="#4E867B" d="M116.365,151.284c0.554,0.008,1.099,0.046,1.644,0.083s1.09,0.112,1.624,0.143
				c0.538,0.047,1.067,0.119,1.601,0.148l1.596,0.128l1.62,0.12l1.583,0.1l1.595,0.117l1.604,0.142l-0.915,0.395
				c0.611-0.757,1.238-1.508,1.882-2.236c0.319-0.373,0.644-0.738,0.972-1.102l0.475-0.518l0.48-0.553
				c0.33-0.364,0.648-0.731,0.986-1.086c0.338-0.357,0.664-0.719,1.012-1.074c0.691-0.697,1.387-1.395,2.146-2.044
				c-0.403,0.915-0.874,1.782-1.344,2.642c-0.233,0.434-0.493,0.854-0.735,1.278c-0.244,0.428-0.504,0.837-0.76,1.253l-0.395,0.626
				l-0.437,0.623c-0.28,0.397-0.562,0.796-0.856,1.183c-0.572,0.79-1.166,1.564-1.77,2.329l-0.345,0.436l-0.571-0.044
				c-1.088-0.08-2.152-0.198-3.252-0.341l-1.641-0.249c-0.533-0.102-1.058-0.213-1.59-0.331l-0.196-0.046
				c-0.123-0.022-0.144-0.034-0.22-0.05l-0.383-0.103l-0.793-0.216c-0.535-0.149-1.054-0.331-1.582-0.5
				C118.374,152.155,117.362,151.761,116.365,151.284z"/>
		</g>
	</g>
	<g opacity="0.5">
		<g>
			<path fill="#A7CCC5" d="M162.382,146.324c0,0-0.126,6.103-0.338,9.798c-0.254,4.534-1.497,8.097-1.497,8.097
				s-5.371-0.563-7.918-1.272c-3.05-0.847-3.885-0.876-8.268-2.716"/>
		</g>
	</g>
	<g opacity="0.5">
		<g>
			<path fill="#A7CCC5" d="M181.913,88.88c0,0,3.943-4.656,6.236-7.561c2.815-3.565,4.249-7.061,4.249-7.061
				s-4.397-3.136-6.772-4.292c-2.848-1.394-3.488-1.919-7.994-3.448"/>
		</g>
	</g>
	<g opacity="0.5">
		<g>
			<path fill="#A7CCC5" d="M64.858,22.401c0,0-5.899-1.572-9.506-2.403c-4.43-1.018-8.194-0.814-8.194-0.814
				s-0.953,5.315-0.983,7.958c-0.037,3.168-0.245,3.974,0.305,8.697"/>
		</g>
	</g>
	<g opacity="0.5">
		<g>
			<path fill="#A7CCC5" d="M25.097,114.846c-4.754,0-8.628-3.871-8.628-8.631c0-4.754,3.874-8.626,8.628-8.626
				c4.757,0,8.628,3.872,8.628,8.626C33.725,110.975,29.854,114.846,25.097,114.846z M25.097,100.423
				c-3.196,0-5.795,2.599-5.795,5.792c0,3.197,2.599,5.794,5.795,5.794c3.193,0,5.792-2.597,5.792-5.794
				C30.889,103.021,28.29,100.423,25.097,100.423z"/>
		</g>
	</g>
	<g>
		<g>
			<circle fill="#82B8AB" cx="117.892" cy="170.345" r="2.714"/>
		</g>
	</g>
	<g opacity="0.5">
		<g>
			<path fill="#A7CCC5" d="M117.893,178.971c-4.758,0-8.627-3.869-8.627-8.626c0-4.758,3.869-8.632,8.627-8.632
				c4.756,0,8.627,3.874,8.627,8.632C126.52,175.102,122.649,178.971,117.893,178.971z M117.893,164.55
				c-3.191,0-5.794,2.6-5.794,5.795s2.603,5.791,5.794,5.791c3.195,0,5.793-2.596,5.793-5.791S121.088,164.55,117.893,164.55z"/>
		</g>
	</g>
	<g>
		<g>
			<circle fill="#82B8AB" cx="166.411" cy="46.841" r="2.714"/>
		</g>
	</g>
	<g opacity="0.5">
		<g>
			<path fill="#A7CCC5" d="M166.412,55.468c-4.755,0-8.627-3.868-8.627-8.627c0-4.758,3.872-8.625,8.627-8.625
				c4.758,0,8.628,3.867,8.628,8.625C175.04,51.6,171.169,55.468,166.412,55.468z M166.412,41.051c-3.195,0-5.794,2.596-5.794,5.79
				c0,3.193,2.599,5.795,5.794,5.795c3.196,0,5.795-2.602,5.795-5.795C172.207,43.646,169.608,41.051,166.412,41.051z"/>
		</g>
	</g>
	<g>
		<g>
			<path fill="#82B8AB" d="M93.76,15.19c0,1.499-1.219,2.711-2.713,2.711c-1.502,0-2.717-1.212-2.717-2.711
				c0-1.503,1.215-2.718,2.717-2.718C92.542,12.473,93.76,13.688,93.76,15.19z"/>
		</g>
	</g>
	<g opacity="0.5">
		<g>
			<path fill="#A7CCC5" d="M91.047,23.813c-4.758,0-8.627-3.867-8.627-8.623c0-4.76,3.869-8.63,8.627-8.63
				c4.756,0,8.625,3.87,8.625,8.63C99.672,19.946,95.803,23.813,91.047,23.813z M91.047,9.394c-3.194,0-5.793,2.601-5.793,5.797
				c0,3.191,2.599,5.793,5.793,5.793s5.793-2.602,5.793-5.793C96.84,11.994,94.242,9.394,91.047,9.394z"/>
		</g>
	</g>
	<g opacity="0.5">
		<g>
			<path fill="#A7CCC5" d="M34.896,128.24c0,0-1.698,5.865-2.604,9.452c-1.11,4.407-0.991,8.18-0.991,8.18s5.293,1.07,7.935,1.152
				c3.165,0.101,3.967,0.326,8.705-0.12"/>
		</g>
	</g>
	<g opacity="0.5">
		<g>
			<path fill="#A7CCC5" d="M13.264,56.536L11.73,52.57c12.748-4.937,31.797-5.546,32.598-5.57l0.126,4.245
				C44.266,51.255,25.324,51.861,13.264,56.536z"/>
		</g>
	</g>
	<g opacity="0.5">
		<g>
			<path fill="#A7CCC5" d="M30.88,81.313c-0.594-0.397-14.548-9.955-18.758-28.319l4.141-0.953
				c3.829,16.676,16.857,25.656,16.992,25.745L30.88,81.313z"/>
		</g>
	</g>
	<g opacity="0.5">
		<g>
			<path fill="#A7CCC5" d="M144.847,33.688c-0.009-0.188-0.613-19.127-5.289-31.187l3.966-1.537
				c4.936,12.747,5.545,31.796,5.57,32.601L144.847,33.688z"/>
		</g>
	</g>
	<g opacity="0.5">
		<g>
			<path fill="#A7CCC5" d="M118.307,21.127l-3.526-2.374C115.18,18.165,124.735,4.209,143.1,0l0.951,4.143
				C127.374,7.967,118.399,20.998,118.307,21.127z"/>
		</g>
	</g>
	<g opacity="0.5">
		<g>
			<path fill="#A7CCC5" d="M64.015,184.364c-4.937-12.75-5.547-31.8-5.572-32.604l4.251-0.119
				c0.003,0.188,0.612,19.124,5.282,31.185L64.015,184.364z"/>
		</g>
	</g>
	<g opacity="0.5">
		<g>
			<path fill="#A7CCC5" d="M64.437,183.968l-0.951-4.141c16.743-3.839,25.656-16.854,25.744-16.984l3.527,2.376
				C92.362,165.806,82.803,179.759,64.437,183.968z"/>
		</g>
	</g>
</g>
</svg>
