<?xml version="1.0" encoding="utf-8"?>
<!-- Generator: Adobe Illustrator 16.0.0, SVG Export Plug-In . SVG Version: 6.00 Build 0)  -->
<!DOCTYPE svg PUBLIC "-//W3C//DTD SVG 1.1//EN" "http://www.w3.org/Graphics/SVG/1.1/DTD/svg11.dtd">
<svg version="1.1" id="Capa_1" xmlns="http://www.w3.org/2000/svg" xmlns:xlink="http://www.w3.org/1999/xlink" x="0px" y="0px"
	 width="68.333px" height="114.46px" viewBox="0 0 68.333 114.46" enable-background="new 0 0 68.333 114.46" xml:space="preserve">
<g>
	<g>
		<g opacity="0.8">
			<g>
				
					<rect x="-3.708" y="67.086" transform="matrix(0.7444 0.6677 -0.6677 0.7444 49.8033 5.5355)" fill="#FFFFFF" width="42.757" height="1.484"/>
			</g>
			<g>
				
					<rect x="47.983" y="46.76" transform="matrix(0.6679 0.7443 -0.7443 0.6679 66.8986 -13.633)" fill="#FFFFFF" width="1.483" height="42.762"/>
			</g>
		</g>
		<g opacity="0.8">
			<g>
				
					<rect x="-3.708" y="72.939" transform="matrix(0.7444 0.6677 -0.6677 0.7444 53.7114 7.0315)" fill="#FFFFFF" width="42.757" height="1.481"/>
			</g>
			<g>
				
					<rect x="47.983" y="52.611" transform="matrix(0.6679 0.7443 -0.7443 0.6679 71.253 -11.6899)" fill="#FFFFFF" width="1.483" height="42.762"/>
			</g>
		</g>
		<g opacity="0.8">
			<g>
				<g>
					
						<rect x="-3.707" y="54.062" transform="matrix(0.7444 0.6677 -0.6677 0.7444 41.1083 2.2068)" fill="#FFFFFF" width="42.757" height="1.483"/>
				</g>
			</g>
			<g>
				<g>
					
						<rect x="47.983" y="33.734" transform="matrix(0.6672 0.7449 -0.7449 0.6672 57.2676 -17.9519)" fill="#FFFFFF" width="1.484" height="42.762"/>
				</g>
			</g>
		</g>
		<g opacity="0.8">
			<g>
				<g>
					
						<rect x="-3.708" y="60.147" transform="matrix(0.7444 0.6677 -0.6677 0.7444 45.1718 3.7622)" fill="#FFFFFF" width="42.758" height="1.483"/>
				</g>
			</g>
			<g>
				<g>
					
						<rect x="47.983" y="39.819" transform="matrix(0.6675 0.7446 -0.7446 0.6675 61.7658 -15.9329)" fill="#FFFFFF" width="1.483" height="42.76"/>
				</g>
			</g>
		</g>
		<g opacity="0.8">
			<g>
				<g>
					
						<rect x="-3.707" y="41.815" transform="matrix(0.7444 0.6677 -0.6677 0.7444 32.931 -0.9231)" fill="#FFFFFF" width="42.757" height="1.483"/>
				</g>
			</g>
			<g>
				<g>
					
						<rect x="47.983" y="21.488" transform="matrix(0.6672 0.7449 -0.7449 0.6672 48.1459 -22.0272)" fill="#FFFFFF" width="1.484" height="42.76"/>
				</g>
			</g>
		</g>
		<g opacity="0.8">
			<g>
				<g>
					
						<rect x="-3.707" y="47.666" transform="matrix(0.7444 0.6677 -0.6677 0.7444 36.8377 0.5722)" fill="#FFFFFF" width="42.757" height="1.483"/>
				</g>
			</g>
			<g>
				<g>
					
						<rect x="47.983" y="27.338" transform="matrix(0.6679 0.7443 -0.7443 0.6679 52.443 -20.0837)" fill="#FFFFFF" width="1.483" height="42.761"/>
				</g>
			</g>
		</g>
		<g>
			<g>
				<g>
					
						<rect x="27.391" y="20.247" transform="matrix(0.7445 0.6676 -0.6676 0.7445 26.4747 -27.1988)" fill="#44083F" width="42.761" height="1.483"/>
				</g>
			</g>
			<g>
				<g>
					
						<rect x="16.98" y="-0.702" transform="matrix(0.6675 0.7446 -0.7446 0.6675 21.2896 -6.3193)" fill="#44083F" width="1.481" height="42.759"/>
				</g>
			</g>
		</g>
		<g>
			<g>
				<g>
					
						<rect x="27.391" y="14.397" transform="matrix(0.7445 0.6676 -0.6676 0.7445 22.5689 -28.6935)" fill="#44083F" width="42.761" height="1.483"/>
				</g>
			</g>
			<g>
				<g>
					
						<rect x="16.979" y="-6.553" transform="matrix(0.6668 0.7452 -0.7452 0.6668 16.9537 -8.2653)" fill="#44083F" width="1.482" height="42.759"/>
				</g>
			</g>
		</g>
		<g>
			<g>
				<g>
					
						<rect x="27.344" y="33.274" transform="matrix(0.7445 0.6676 -0.6676 0.7445 35.1583 -23.8389)" fill="#44083F" width="42.76" height="1.482"/>
				</g>
			</g>
			<g>
				<g>
					
						<rect x="16.931" y="12.324" transform="matrix(0.6668 0.7452 -0.7452 0.6668 31.0044 -1.9401)" fill="#44083F" width="1.482" height="42.759"/>
				</g>
			</g>
		</g>
		<g>
			<g>
				<g>
					
						<rect x="27.345" y="27.188" transform="matrix(0.7445 0.6676 -0.6676 0.7445 31.0952 -25.3932)" fill="#44083F" width="42.76" height="1.483"/>
				</g>
			</g>
			<g>
				<g>
					
						<rect x="16.93" y="6.24" transform="matrix(0.6665 0.7455 -0.7455 0.6665 26.4847 -3.9632)" fill="#44083F" width="1.483" height="42.759"/>
				</g>
			</g>
		</g>
		<g>
			<g>
				<g>
					
						<rect x="27.344" y="45.519" transform="matrix(0.7445 0.6676 -0.6676 0.7445 43.3341 -20.71)" fill="#44083F" width="42.76" height="1.483"/>
				</g>
			</g>
			<g>
				<g>
					
						<rect x="16.931" y="24.569" transform="matrix(0.6668 0.7452 -0.7452 0.6668 40.1305 2.1401)" fill="#44083F" width="1.482" height="42.76"/>
				</g>
			</g>
		</g>
		<g>
			<g>
				<g>
					
						<rect x="27.345" y="39.668" transform="matrix(0.7445 0.6676 -0.6676 0.7445 39.4277 -22.2045)" fill="#44083F" width="42.76" height="1.486"/>
				</g>
			</g>
			<g>
				<g>
					
						<rect x="16.931" y="18.72" transform="matrix(0.6668 0.7452 -0.7452 0.6668 35.7712 0.1911)" fill="#44083F" width="1.482" height="42.759"/>
				</g>
			</g>
		</g>
	</g>
	<g>
		<path fill="#44083F" d="M7.988,103.097c-0.461,1.277-1.125,1.277-1.346,1.277c-0.323,0-0.588-0.078-0.813-0.241
			c-0.777-0.576-1.174-1.723-1.174-3.401c0-0.847,0.102-1.601,0.299-2.229c0.315-0.947,0.844-1.386,1.66-1.386
			c0.584,0,0.979,0.26,1.242,0.82l0.154,0.323l2.47-0.906l-0.167-0.383c-0.742-1.698-1.988-2.558-3.699-2.558
			c-1.539,0-2.75,0.587-3.598,1.743c-0.822,1.118-1.24,2.657-1.24,4.574c0,1.859,0.438,3.39,1.297,4.547
			c0.89,1.194,2.08,1.8,3.541,1.8c1.961,0,3.299-1.039,3.975-3.087l0.121-0.366l-2.592-0.895L7.988,103.097z"/>
		<path fill="#44083F" d="M21.57,94.441c-3.167,0-4.778,2.116-4.778,6.29c0,4.19,1.611,6.32,4.778,6.32
			c3.154,0,4.752-2.13,4.752-6.32C26.322,96.558,24.724,94.441,21.57,94.441z M21.57,104.491c-0.496,0-2.014,0-2.014-3.76
			c0-3.761,1.518-3.761,2.014-3.761s1.992,0,1.992,3.761C23.562,104.491,22.066,104.491,21.57,104.491z"/>
		<polygon fill="#44083F" points="35.415,101.734 38.871,101.734 38.871,99.233 35.415,99.233 35.415,97.027 40.178,97.027 
			40.178,94.527 32.683,94.527 32.683,106.934 40.466,106.934 40.466,104.434 35.415,104.434 		"/>
		<path fill="#44083F" d="M54.695,100.581c0.408-0.636,0.604-1.409,0.583-2.289c0-1.127-0.332-2.046-0.995-2.73
			c-0.662-0.684-1.585-1.034-2.737-1.034h-4.807v12.406h2.731v-4.88h1.109l1.857,4.88h3.051l-2.01-5.246
			C53.958,101.465,54.365,101.094,54.695,100.581z M49.47,97.027h2.075c0.469,0,0.945,0.159,0.945,1.324
			c0,1.059-0.477,1.202-0.945,1.202H49.47V97.027z"/>
		<rect x="62.046" y="94.527" fill="#44083F" width="2.878" height="12.434"/>
	</g>
	<g>
		<path fill="#44083F" d="M56.048,113.794c-0.059,0.13-0.14,0.237-0.242,0.319c-0.104,0.083-0.223,0.147-0.359,0.188
			c-0.136,0.042-0.283,0.062-0.441,0.062c-0.289,0-0.59-0.102-0.897-0.308l0.101-0.248c0.168,0.115,0.307,0.192,0.422,0.237
			c0.117,0.045,0.236,0.067,0.361,0.067c0.102,0,0.204-0.014,0.307-0.039c0.104-0.025,0.194-0.067,0.277-0.124
			c0.082-0.058,0.146-0.137,0.197-0.232c0.05-0.095,0.074-0.214,0.074-0.359c0-0.118-0.025-0.218-0.076-0.297
			c-0.051-0.078-0.119-0.144-0.202-0.2c-0.085-0.055-0.18-0.102-0.286-0.137c-0.105-0.038-0.215-0.077-0.326-0.116
			c-0.115-0.04-0.223-0.081-0.33-0.126c-0.106-0.046-0.2-0.101-0.286-0.166c-0.083-0.067-0.149-0.15-0.2-0.248
			c-0.051-0.102-0.076-0.222-0.076-0.366c0-0.129,0.025-0.251,0.076-0.364c0.054-0.112,0.126-0.212,0.215-0.295
			c0.092-0.084,0.199-0.149,0.318-0.196c0.122-0.048,0.254-0.072,0.395-0.072c0.27,0,0.539,0.073,0.809,0.22l-0.105,0.236
			c-0.146-0.076-0.271-0.131-0.369-0.161c-0.102-0.029-0.205-0.043-0.309-0.043c-0.105,0-0.205,0.015-0.291,0.052
			c-0.09,0.033-0.168,0.079-0.234,0.141c-0.066,0.059-0.119,0.13-0.156,0.209c-0.038,0.081-0.057,0.17-0.057,0.265
			c0,0.157,0.046,0.279,0.135,0.367c0.087,0.086,0.197,0.157,0.328,0.215c0.132,0.058,0.275,0.106,0.432,0.15
			s0.299,0.103,0.43,0.172c0.133,0.071,0.242,0.163,0.329,0.28s0.132,0.272,0.132,0.467
			C56.14,113.515,56.109,113.669,56.048,113.794z"/>
		<path fill="#44083F" d="M57.257,114.46l-0.35-0.334l0.344-0.359l0.35,0.335L57.257,114.46z"/>
		<path fill="#44083F" d="M61.207,114.421l-0.604-1.314h-1.71l-0.608,1.318l-0.238-0.108l1.616-3.482l0.134-0.067l1.65,3.55
			L61.207,114.421z M59.744,111.224l-0.748,1.657H60.5L59.744,111.224z"/>
		<path fill="#44083F" d="M62.354,114.46l-0.349-0.334l0.344-0.359l0.349,0.335L62.354,114.46z"/>
		<path fill="#44083F" d="M65.357,113.794c-0.059,0.13-0.141,0.237-0.243,0.319c-0.103,0.083-0.222,0.147-0.358,0.188
			c-0.137,0.042-0.283,0.062-0.441,0.062c-0.291,0-0.59-0.102-0.896-0.308l0.102-0.248c0.164,0.115,0.303,0.192,0.421,0.237
			c0.116,0.045,0.236,0.067,0.36,0.067c0.102,0,0.202-0.014,0.306-0.039s0.196-0.067,0.278-0.124
			c0.08-0.058,0.146-0.137,0.197-0.232c0.049-0.095,0.072-0.214,0.072-0.359c0-0.118-0.025-0.218-0.075-0.297
			c-0.051-0.078-0.119-0.144-0.202-0.2c-0.084-0.055-0.18-0.102-0.287-0.137c-0.105-0.038-0.213-0.077-0.326-0.116
			c-0.115-0.04-0.223-0.081-0.328-0.126c-0.106-0.046-0.201-0.101-0.287-0.166c-0.084-0.067-0.15-0.15-0.201-0.248
			c-0.051-0.102-0.076-0.222-0.076-0.366c0-0.129,0.025-0.251,0.079-0.364c0.054-0.112,0.125-0.212,0.215-0.295
			c0.093-0.084,0.198-0.149,0.319-0.196c0.12-0.048,0.25-0.072,0.393-0.072c0.27,0,0.539,0.073,0.809,0.22l-0.106,0.236
			c-0.147-0.076-0.271-0.131-0.369-0.161c-0.099-0.029-0.202-0.043-0.308-0.043c-0.107,0-0.204,0.015-0.293,0.052
			c-0.09,0.033-0.166,0.079-0.233,0.141c-0.067,0.059-0.118,0.13-0.157,0.209c-0.036,0.081-0.058,0.17-0.058,0.265
			c0,0.157,0.048,0.279,0.137,0.367c0.089,0.086,0.196,0.157,0.328,0.215c0.133,0.058,0.276,0.106,0.433,0.15
			c0.154,0.044,0.298,0.103,0.43,0.172c0.131,0.071,0.241,0.163,0.328,0.28c0.088,0.117,0.133,0.272,0.133,0.467
			C65.449,113.515,65.417,113.669,65.357,113.794z"/>
		<path fill="#44083F" d="M66.567,114.46l-0.351-0.334l0.344-0.359l0.348,0.335L66.567,114.46z"/>
	</g>
</g>
</svg>
