<?xml version="1.0" encoding="utf-8"?>
<!-- Generator: Adobe Illustrator 16.0.0, SVG Export Plug-In . SVG Version: 6.00 Build 0)  -->
<!DOCTYPE svg PUBLIC "-//W3C//DTD SVG 1.1//EN" "http://www.w3.org/Graphics/SVG/1.1/DTD/svg11.dtd">
<svg version="1.1" id="Capa_1" xmlns="http://www.w3.org/2000/svg" xmlns:xlink="http://www.w3.org/1999/xlink" x="0px" y="0px"
	 width="57.667px" height="57.111px" viewBox="-28.476 25.977 57.667 57.111" enable-background="new -28.476 25.977 57.667 57.111"
	 xml:space="preserve">
<g>
	<path fill="#211915" d="M-27.857,46.098c0,10.718,8.721,19.439,19.44,19.439c4.41,0,8.481-1.478,11.747-3.962l3.939,3.936
		c0.023,0.026,0.051,0.05,0.076,0.071c-0.066,0.321-0.103,0.652-0.103,0.99c0,1.286,0.502,2.496,1.411,3.403l11.701,11.701
		c0.91,0.911,2.118,1.411,3.403,1.411c1.287,0,2.496-0.5,3.405-1.411c0.91-0.91,1.41-2.117,1.41-3.404c0-1.286-0.5-2.495-1.41-3.404
		l-11.7-11.699c-0.91-0.91-2.118-1.411-3.404-1.411c-0.337,0-0.67,0.036-0.992,0.104c-0.022-0.028-0.042-0.054-0.069-0.079
		L7.06,57.846c2.484-3.267,3.962-7.339,3.962-11.748c0-10.72-8.72-19.439-19.439-19.439S-27.857,35.378-27.857,46.098
		L-27.857,46.098z M25.869,76.161c0.563,0.566,0.875,1.313,0.875,2.112c0,0.798-0.312,1.547-0.875,2.112
		c-0.563,0.563-1.314,0.875-2.112,0.875c-0.796,0-1.547-0.312-2.11-0.875L11.081,69.819l4.222-4.222L25.869,76.161z M14.005,64.308
		l-4.208,4.211c-0.481-0.56-0.724-1.252-0.724-1.946c0-0.766,0.292-1.53,0.875-2.111c0.564-0.565,1.313-0.875,2.111-0.875
		C12.781,63.586,13.463,63.841,14.005,64.308L14.005,64.308z M9.275,62.645c-0.219,0.156-0.427,0.332-0.619,0.524
		c-0.196,0.193-0.369,0.401-0.527,0.62l-3.392-3.392c0.397-0.367,0.78-0.749,1.144-1.147L9.275,62.645z M9.194,46.098
		c0,9.711-7.901,17.612-17.611,17.612c-9.71,0-17.612-7.901-17.612-17.612s7.901-17.611,17.612-17.611
		C1.293,28.487,9.194,36.387,9.194,46.098L9.194,46.098z M9.194,46.098"/>
	<path fill="#211915" d="M-23.956,46.098c0,8.568,6.971,15.538,15.539,15.538s15.54-6.97,15.54-15.538
		c0-8.568-6.972-15.539-15.54-15.539S-23.956,37.53-23.956,46.098L-23.956,46.098z M5.295,46.098c0,7.56-6.152,13.71-13.712,13.71
		c-7.562,0-13.711-6.15-13.711-13.71c0-7.562,6.149-13.712,13.711-13.712C-0.857,32.386,5.295,38.537,5.295,46.098L5.295,46.098z
		 M5.295,46.098"/>
	<path fill="#211915" d="M-18.176,39.75c-0.275,0.424-0.155,0.989,0.267,1.267c0.423,0.273,0.989,0.156,1.265-0.268
		c1.82-2.794,4.896-4.463,8.227-4.463c2.275,0,4.493,0.796,6.243,2.242c0.389,0.323,0.965,0.268,1.287-0.122
		c0.141-0.169,0.208-0.376,0.208-0.582c0-0.264-0.112-0.526-0.332-0.706c-2.077-1.716-4.707-2.661-7.407-2.661
		C-12.369,34.458-16.015,36.437-18.176,39.75L-18.176,39.75z M-18.176,39.75"/>
	<path fill="#211915" d="M-19.865,43.982c-0.126,0.694-0.191,1.405-0.191,2.116c0,0.504,0.409,0.913,0.913,0.913
		c0.505,0,0.916-0.409,0.916-0.913c0-0.601,0.054-1.202,0.161-1.785c0.011-0.055,0.016-0.112,0.016-0.166
		c0-0.433-0.309-0.817-0.749-0.898C-19.296,43.159-19.773,43.485-19.865,43.982L-19.865,43.982z M-19.865,43.982"/>
</g>
</svg>
