<?xml version="1.0" encoding="utf-8"?>
<!-- Generator: Adobe Illustrator 16.0.0, SVG Export Plug-In . SVG Version: 6.00 Build 0)  -->
<!DOCTYPE svg PUBLIC "-//W3C//DTD SVG 1.1//EN" "http://www.w3.org/Graphics/SVG/1.1/DTD/svg11.dtd">
<svg version="1.1" id="Capa_1" xmlns="http://www.w3.org/2000/svg" xmlns:xlink="http://www.w3.org/1999/xlink" x="0px" y="0px"
	 width="57.667px" height="57.111px" viewBox="-28.476 25.977 57.667 57.111" enable-background="new -28.476 25.977 57.667 57.111"
	 xml:space="preserve">
<g>
	<path fill="#211915" d="M20.129,52.54c0,0.586-0.475,1.058-1.059,1.058c-0.583,0-1.051-0.472-1.051-1.058
		c0-0.582,0.469-1.055,1.051-1.055C19.654,51.485,20.129,51.958,20.129,52.54L20.129,52.54z M20.129,52.54"/>
	<path fill="#211915" d="M-17.895,52.54c0,0.586-0.468,1.058-1.052,1.058c-0.588,0-1.056-0.472-1.056-1.058
		c0-0.582,0.468-1.055,1.056-1.055C-18.363,51.485-17.895,51.958-17.895,52.54L-17.895,52.54z M-17.895,52.54"/>
	<path fill="#211915" d="M-14.721,55.707c0,0.584-0.477,1.059-1.059,1.059c-0.583,0-1.058-0.475-1.058-1.059
		c0-0.583,0.476-1.056,1.058-1.056C-15.198,54.651-14.721,55.124-14.721,55.707L-14.721,55.707z M-14.721,55.707"/>
	<path fill="#211915" d="M-8.384,55.707c0,0.584-0.475,1.059-1.058,1.059c-0.583,0-1.056-0.475-1.056-1.059
		c0-0.583,0.472-1.056,1.056-1.056C-8.859,54.651-8.384,55.124-8.384,55.707L-8.384,55.707z M-8.384,55.707"/>
	<path fill="#211915" d="M-11.556,58.881c0,0.58-0.475,1.051-1.058,1.051c-0.583,0-1.051-0.471-1.051-1.051
		c0-0.589,0.469-1.059,1.051-1.059C-12.031,57.823-11.556,58.292-11.556,58.881L-11.556,58.881z M-11.556,58.881"/>
	<path fill="#211915" d="M-5.218,58.881c0,0.58-0.475,1.051-1.058,1.051c-0.583,0-1.058-0.471-1.058-1.051
		c0-0.589,0.475-1.059,1.058-1.059C-5.693,57.823-5.218,58.292-5.218,58.881L-5.218,58.881z M-5.218,58.881"/>
	<path fill="#211915" d="M-2.051,62.045c0,0.584-0.468,1.059-1.053,1.059c-0.587,0-1.056-0.475-1.056-1.059
		c0-0.583,0.469-1.057,1.056-1.057C-2.52,60.989-2.051,61.462-2.051,62.045L-2.051,62.045z M-2.051,62.045"/>
	<path fill="#211915" d="M4.287,62.045c0,0.584-0.477,1.059-1.059,1.059c-0.582,0-1.051-0.475-1.051-1.059
		c0-0.583,0.47-1.057,1.051-1.057C3.81,60.989,4.287,61.462,4.287,62.045L4.287,62.045z M4.287,62.045"/>
	<path fill="#211915" d="M7.458,58.881c0,0.58-0.474,1.051-1.057,1.051c-0.583,0-1.058-0.471-1.058-1.051
		c0-0.589,0.476-1.059,1.058-1.059C6.984,57.823,7.458,58.292,7.458,58.881L7.458,58.881z M7.458,58.881"/>
	<path fill="#211915" d="M1.121,65.213c0,0.582-0.476,1.059-1.058,1.059c-0.583,0-1.059-0.477-1.059-1.059
		c0-0.583,0.475-1.053,1.059-1.053C0.645,64.161,1.121,64.63,1.121,65.213L1.121,65.213z M1.121,65.213"/>
	<path fill="#211915" d="M10.624,55.707c0,0.584-0.474,1.059-1.056,1.059c-0.583,0-1.059-0.475-1.059-1.059
		c0-0.583,0.476-1.056,1.059-1.056C10.149,54.651,10.624,55.124,10.624,55.707L10.624,55.707z M10.624,55.707"/>
	<path fill="#211915" d="M16.961,55.707c0,0.584-0.474,1.059-1.057,1.059c-0.583,0-1.056-0.475-1.056-1.059
		c0-0.583,0.473-1.056,1.056-1.056C16.487,54.651,16.961,55.124,16.961,55.707L16.961,55.707z M16.961,55.707"/>
	<path fill="#211915" d="M13.791,58.881c0,0.58-0.469,1.051-1.053,1.051c-0.587,0-1.056-0.471-1.056-1.051
		c0-0.589,0.469-1.059,1.056-1.059C13.322,57.823,13.791,58.292,13.791,58.881L13.791,58.881z M13.791,58.881"/>
	<path fill="#211915" d="M19.638,59.74l9.922-5.667l-10.195-5.792l10.195-5.827L0.542,25.977l-29.018,16.478l10.2,5.827l-10.2,5.792
		l10.2,5.827l-10.2,5.792L0.542,82.273l29.023-16.581l-10.2-5.792l0.077-0.04C19.515,59.829,19.577,59.789,19.638,59.74
		L19.638,59.74z M0.542,28.406l24.753,14.058l-8.065,4.608L0.542,56.605l-24.75-14.142L0.542,28.406z M-16.725,49.829
		c0.171,0.351,0.527,0.598,0.945,0.598c0.283,0,0.541-0.112,0.733-0.299l2.387,1.367c-0.563,0.026-1.006,0.48-1.006,1.045
		c0,0.586,0.469,1.058,1.051,1.058c0.583,0,1.058-0.472,1.058-1.058c0-0.182-0.057-0.342-0.139-0.496l10.912,6.233
		c-0.125,0.175-0.212,0.37-0.212,0.604c0,0.58,0.475,1.051,1.059,1.051c0.582,0,1.058-0.471,1.058-1.051
		c0-0.058-0.026-0.105-0.033-0.156l10.613-6.065c0.063,0.529,0.496,0.933,1.037,0.933c0.584,0,1.053-0.467,1.053-1.053
		c0-0.342-0.17-0.637-0.429-0.829l2.328-1.325c0.071,0.013,0.139,0.041,0.216,0.041c0.47,0,0.851-0.309,0.99-0.731l0.339-0.196
		l8.061,4.577l-2.093,1.201c-0.166-0.368-0.531-0.626-0.959-0.626c-0.583,0-1.056,0.473-1.056,1.056
		c0,0.229,0.087,0.429,0.211,0.601L17.23,58.69l-6.746,3.851c0.083-0.148,0.139-0.313,0.139-0.495c0-0.583-0.474-1.057-1.056-1.057
		c-0.583,0-1.054,0.474-1.054,1.057c0,0.569,0.45,1.023,1.006,1.046l-2.387,1.365c-0.193-0.184-0.45-0.301-0.732-0.301
		c-0.583,0-1.058,0.475-1.058,1.058c0,0.08,0.032,0.158,0.052,0.238L0.542,68.22l-5.822-3.327c-0.139-0.424-0.526-0.737-0.996-0.737
		c-0.078,0-0.145,0.032-0.216,0.046l-2.327-1.329c0.258-0.192,0.435-0.48,0.435-0.827c0-0.583-0.475-1.057-1.058-1.057
		c-0.543,0-0.97,0.412-1.033,0.938l-10.617-6.063c0.004-0.051,0.031-0.098,0.031-0.157c0-0.583-0.474-1.056-1.057-1.056
		c-0.251,0-0.475,0.103-0.655,0.245l-1.439-0.813L-16.725,49.829z M25.295,65.7L0.542,79.84L-24.208,65.7l8.062-4.584l16.688,9.538
		l16.692-9.538L25.295,65.7z M25.295,65.7"/>
</g>
</svg>
